<svg id="Camada_1" data-name="Camada 1" xmlns="http://www.w3.org/2000/svg" viewBox="0 0 1973.23 42.82"><defs><style>.cls-1{fill:#e62b48;}.cls-2{fill:#f7ae04;}.cls-3{fill:#a1293b;}.cls-4{fill:#a0293a;}.cls-5{fill:#a1293a;}.cls-6{fill:#9f293a;}.cls-7{fill:#9d2939;}.cls-8{fill:#9e293a;}.cls-9{fill:#3b6193;}.cls-10{fill:#3f6192;}.cls-11{fill:#396294;}.cls-12{fill:#2b6698;}.cls-13{fill:#2e6598;}.cls-14{fill:#2d6597;}.cls-15{fill:#1e6a9c;}.cls-16{fill:#24689a;}.cls-17{fill:#266699;}.cls-18{fill:#21689b;}.cls-19{fill:#26689a;}.cls-20{fill:#22699b;}.cls-21{fill:#2d6799;}.cls-22{fill:#2c6798;}.cls-23{fill:#2b689a;}</style></defs><path class="cls-1" d="M.85,23.72C-4.37,23.3-4.37,23.3-4.37,18c0-5,.14-10-.06-15C-4.53.54-3.76,0-1.32,0Q70.49.08,142.3,0H655.57Q825.1,0,994.63,0c3,0,3.91.59,3.77,3.69-.3,6.63-.16,13.29-.2,19.94-.82,1-2,1-3.13,1.1s-2.5.05-3.75.05q-491.73,0-983.48,0C5.49,24.71,3,25.23.85,23.72Z"/><path class="cls-2" d="M-4.43,23.72c1.25,0,2.51-.1,3.76-.1H994.75c1.15,0,2.3,0,3.45,0,0,5.71,0,11.43.13,17.15,0,1.63-.51,2.31-2.15,2.15-.72-.07-1.46,0-2.2,0H-.28c-4.74,0-4.12.5-4.14-4.17C-4.45,33.7-4.43,28.71-4.43,23.72Z"/><path class="cls-3" d="M611.56,9.93c6,1.53,11.64-.08,17.36-1-2.13,1.84-5,1.45-7.62,2.91,3.38,1.22,6.92,1,9.71,3-8.54-2-17-2.82-26,.39,1.61-2,2.29-2.24,9.93-3.48C614.08,10.58,612.24,12,611.56,9.93Z"/><path class="cls-4" d="M298.05,14.79c-8.55-2.15-17-2.77-25.62-.22,3-2.35,6.84-1.85,10.28-3-1.21-.82-2.9.23-4.55-1.79C284.7,11.6,290.27,9.58,296,9c-2.35,1.5-5.09,1.68-8,2.56C291.41,13.13,295.23,12.59,298.05,14.79Z"/><path class="cls-5" d="M141.91,7.93c-2.89,2.79-6.19,1.82-8.91,3.43,3.52,1.17,7.17.78,10,3.1a43.23,43.23,0,0,0-25.36-.23c1.09-1.74,3-1.52,4.47-2a31.19,31.19,0,0,1,5.28-.71c-1-1.7-3.23-.13-4.34-2.12C129.38,10.84,135.23,9.44,141.91,7.93Z"/><path class="cls-6" d="M960.55,8.88c-2.11,1.86-5,1.49-7.56,2.87,3.4,1.41,7.23.91,10,3.28a44.54,44.54,0,0,0-26-.35c2.73-2.61,6.53-1.75,9.66-3.14-1-.8-2.64.31-3.6-1.64C949.2,11.46,954.84,9.84,960.55,8.88Z"/><path class="cls-4" d="M888.23,14.05a17.4,17.4,0,0,1,9.9-2.25c-.93-2.09-3.2-.36-4.32-2.35,6.28,1.34,12.1,0,18-1.1-2.09,2.33-5.34,1.44-8.12,3,3.54,1.18,7.3.71,10.07,3.19C905.28,11.68,896.79,12,888.23,14.05Z"/><path class="cls-3" d="M474,8.41c-2.18,2.15-5.25,1.5-8.26,2.91,3.73,1.19,7.47.8,10.27,3.23-8.46-2.84-16.95-2.6-25.52-.48a16.79,16.79,0,0,1,9.85-2.27c-.85-2.14-3.4-.24-4.21-2.41C462.25,10.85,468.07,9.48,474,8.41Z"/><path class="cls-7" d="M725.19,14.41c2.89-2.06,6.51-1.71,9.73-2.89-1.22-.78-3,.32-4.43-1.77,6.53,1.91,12.28-.06,18.16-.84-2.28,1.77-5.28,1.39-8,2.85,3.37,1.48,7.34.6,10.55,3.62A45,45,0,0,0,725.19,14.41Z"/><path class="cls-3" d="M70.43,11.53c-1.3-.74-2.87.26-4.52-1.72C72.38,11.52,78,9.7,83.68,9c-2.18,1.58-4.85,1.49-7.47,2.63,3.23,1.76,7.33.67,10.61,3.85a43.94,43.94,0,0,0-26.2-1C63.49,12.33,67.05,12.67,70.43,11.53Z"/><path class="cls-5" d="M831.23,14.38c3.09-1.81,6.53-1.9,9.88-2.76-1.22-1-3,.29-4.3-1.73,6.24,1.57,11.85-.1,17.55-1-2.11,1.82-4.94,1.5-7.52,2.81,3.37,1.54,7.36.65,10.69,3.77A45.18,45.18,0,0,0,831.23,14.38Z"/><path class="cls-7" d="M172.18,9.73c6.42,1.85,12,0,17.7-.83-2.14,1.8-5,1.52-7.77,2.84,3.63,1.34,7.41.93,10.15,3.31a45.09,45.09,0,0,0-25.53-.57c2.86-2.38,6.56-1.76,9.78-2.91C175.37,10.65,173.59,11.92,172.18,9.73Z"/><path class="cls-4" d="M509.5,11.54c-1.39-.73-3,.27-4.44-1.68,6.34,1.58,11.93,0,17.61-.95-2.06,1.85-4.89,1.47-7.44,2.78,3.31,1.56,7.21.9,10,3.36a45.49,45.49,0,0,0-25.62-.58C502.47,12.14,506.14,12.7,509.5,11.54Z"/><path class="cls-4" d="M35.07,8.52c-2.33,1.88-5.4,1.48-8.63,2.83,3.73,1,7,1,9.78,2.74a45.83,45.83,0,0,0-24.75.06,16.53,16.53,0,0,1,9.92-2.39c-1.22-1.94-3.45-.32-4.45-2.35C23.2,10.81,29.11,9.49,35.07,8.52Z"/><path class="cls-6" d="M403.49,11.59c-1.49-.74-3,.09-4.76-1.62,3.55.41,6.42.95,9.24.47s5.68-1.17,8.58-1.44c-2.16,1.59-4.83,1.5-7.46,2.63,3.21,1.83,7.37.59,10.4,3.75a41.4,41.4,0,0,0-26.23-.47C394.89,13.12,394.89,13.12,403.49,11.59Z"/><path class="cls-6" d="M344.31,14.17a17.85,17.85,0,0,1,9.88-2.49c-1-1.88-3.2-.33-4.44-2.25,6.37,1.34,12.22.07,18.13-.94-2.19,2.14-5.48,1.26-8.34,3,3.53.75,6.69,1,9.55,2.55A47.35,47.35,0,0,0,344.31,14.17Z"/><path class="cls-6" d="M806.94,14.09a45.67,45.67,0,0,0-24.76.06A16,16,0,0,1,792,11.8c-1.12-2-3.4-.31-4.35-2.37,6.22,1.4,12.12,0,18.07-.91-2.3,1.93-5.39,1.44-8.56,2.83C800.85,12.35,804.15,12.28,806.94,14.09Z"/><path class="cls-8" d="M566.72,11.63c-1.52-1.65-3.44-.28-4.55-2.09,6.19,1.19,12,0,18.35-1.6-1.3,2-2.81,1.86-4.23,2.09s-2.67.68-4.72,1.22c4,1.18,7.57,1.19,10.52,3.22a45.47,45.47,0,0,0-25.59-.42A21.42,21.42,0,0,1,566.72,11.63Z"/><path class="cls-8" d="M238.69,11.25c4,1.2,7.57,1.13,10.5,3.21A45.73,45.73,0,0,0,223.63,14a18.5,18.5,0,0,1,10.1-2.22c-1.16-2-3.36-.39-4.4-2.22,6.14,1,12,.13,18.49-1.78-1.5,2.06-3,2-4.38,2.23A48.71,48.71,0,0,0,238.69,11.25Z"/><path class="cls-7" d="M691.68,11.34c3.13.76,6.22,1.25,9.11,2.66a45.5,45.5,0,0,0-24.74.18c2.94-2.08,6.31-2.37,10.05-2.59-1.29-1.76-3.57-.17-4.67-2.19,6.3,1.47,12.2,0,18.17-.83C697.26,10.39,694.22,10,691.68,11.34Z"/><path class="cls-9" d="M708.65,8.51c1.34.09,2.62,1.54,2.65,1.47,1.06-1.87,2.78,0,4-.77.33-.2.6-.62,1.28-.15-2,1.56-1.94,4.29-3.74,6.19-.29-2.16-1.35-2.2-3.23-.29C713.78,11.66,709.29,10.53,708.65,8.51Z"/><path class="cls-10" d="M302.88,8.62c1.48,0,2.09,1.39,3.33,1.73.27-.6.56-1.21.92-2,.92.45.36,1.37.89,2l2.65-1.63c.19,2-3.76,2.5-1.38,4.87.27.28-.53.23-.84.14-1.22-.36-.53.78-.86,1.06-1,.85-.57-.4-.74-.63-.77-1.11-1.43.55-2.32-.06C307.73,11.22,303.27,10.62,302.88,8.62Z"/><path class="cls-11" d="M637.33,14.08c3.72-3-1.51-3.4-1.4-5.47,1.4-.35,3,3.87,4.15-.13.9.35.29,1.14.81,1.82l2.78-1.68c-.12,2-3.8,2.67-1.41,5-1.12-1.48-1.35,2.55-2.67.42C639,13,638.41,14.53,637.33,14.08Z"/><path class="cls-12" d="M377.13,8.8c1.49-.71,2.76,3.77,4-.42,1.14.26.15,1.26.74,1.85,1.13.17,1.52-1.48,3.11-1.38a12.44,12.44,0,0,0-3.53,6.25c-1-1.69-1-1.69-3.63-.59C382.58,11.87,377.36,10.53,377.13,8.8Z"/><path class="cls-13" d="M52,9.05c-1.86,1.63-2.89,3.74-3.67,6.69-.48-3.66-1.81-1.7-2.85-.82-.65-1.79,2.43-1.8,1.23-3.4a28.63,28.63,0,0,0-3.1-3c1.93.1,2.53,1.37,3.64,1.75,1.1-.15,0-1.66,1.16-1.82C48.94,12.47,50.7,8.12,52,9.05Z"/><path class="cls-14" d="M763.15,8.57c.17,2.17-3.75,2.29-1.55,4.77a6.3,6.3,0,0,1-2.37.58c-.45-.37-.45-.37-2.9.84,4.2-2.82.13-4-1-6,1.4.08,1.95,1.11,2.82,1.46,1.78.74.37-1.85,1.76-1.68.75.4-.32,1.4.63,1.93Z"/><path class="cls-15" d="M815.76,14.55c4.21-2.82,0-3.93-1.11-5.94,1.34.05,1.9.94,2.66,1.39,2,1.2.58-1.59,1.74-1.41.71,3.84,2.26-.41,3.34.3C820.75,11.41,819.6,12.46,815.76,14.55Z"/><path class="cls-16" d="M423.69,8.92c1.69-.41,3.18,3.45,4.27-.68.73,4.11,2.17.59,3.42.61.16,1.75-2.55,1.82-2.12,3.5.18.73,1.79,1.61-.57,1.26-.31,0-.86,2.24-1.4-.09l-2.12,1.18C428.54,11.94,425,10.73,423.69,8.92Z"/><path class="cls-17" d="M921.15,8.68c1.5.05,2.93,3.55,3.91-.35.66,1.92.66,1.92,3.58.5-.19,1.7-3.83,2.26-1.51,4.6l-2.46.34c-.39-.34-.39-.34-2.66.48C926.26,11.58,921.13,10.62,921.15,8.68Z"/><path class="cls-16" d="M487.38,8.49c.78,3.79,2.14,0,3.83.51-2.67,1.42-2,4.44-4.12,6.05.13-2.69-1.13-1.6-2.77-.4,3.67-3.13-.24-3.94-1.13-5.83,1.2-.06,1.75.88,2.56,1.24C487.62,10.9,486.24,8.64,487.38,8.49Z"/><path class="cls-18" d="M862.67,14.37c2.52-1.68,1.66-3.33-.77-4.77,1.48-.79,3.72,3.15,3.57-1.1,1.12.42.35,1.39,1,2l2.63-1.78c.19,1.92-2.36,2-2.14,3.62.06.43.46.82.7,1.22-.28,0-.71.15-.82,0-1-1.22-.31,2.11-1.44.54S863.83,15.4,862.67,14.37Z"/><path class="cls-19" d="M154.61,8.53c.12.57.23,1.14.39,1.88L158,8.48c-.21,2-3.71,2.75-1.59,5-.28,0-.78-.12-.82,0-.84,2.09-2.8-.93-4,1.1,3.63-3.11-.48-3.87-1.18-5.59C151.53,7.6,153.56,13,154.61,8.53Z"/><path class="cls-20" d="M98.45,9.49c.22,1.29-3.62,1.24-1.54,3.77.19.24-2,0-1.65,1.65.09.4-.37.11-.44-.13s0-.75-.15-.89c-1.15-.91-1.52,1-2.86.67,2.66-1.87,1.86-3.51-.28-4.85.91-1.4,2.83,2.69,3.21-.8,0-.29.54-.48.61-.11C96.16,13.3,97.55,7,98.45,9.49Z"/><path class="cls-21" d="M537.53,8.86c-.14,1.81-3.76,2.44-1.42,4.75l-2.43.36c-.42-.41-.42-.41-3.27.54,4.07-2.38.85-3.52.1-5.15,2.62,1.08,2.62,1.08,3.66-1C534.61,12.36,536.33,8.65,537.53,8.86Z"/><path class="cls-22" d="M198.32,14.07c3.17-1.94.22-3.09-1.13-5,1.82.36,3.77,2.91,3.9-1.25.57,4.7,2.32.66,3.52,1.21-.12,1.6-3.72,2.27-1.38,4.54-.92-1.51-1.44,2.7-2.63.15C200.2,12.88,199.41,14.71,198.32,14.07Z"/><path class="cls-23" d="M968.42,9.35c1.47.54,3.14,2.18,3.33-2.12.76,4.79,2.17,1.82,3.33,1.63.64,1.85-3,1.81-1.76,3.78.56.91,1.39,1.69-.56.92-.85,2.28-2.61-1-3.79.88C972.17,12.14,969.24,11.08,968.42,9.35Z"/><path class="cls-18" d="M594.09,10.31l2.56-1.61c.32,1.88-3.68,2.26-1.3,4.54-1,.19-1.92.37-1.77,1.71-.82,0-.27-.91-.56-1-1.31-.33-1.11-1.05-1.2-2.18-.07-.91-1.74-1.69-2.49-2.72,3.21,1.23,3.21,1.23,4-.62C594.25,8.79,593.45,9.78,594.09,10.31Z"/><path class="cls-20" d="M256.47,8.75c1.56,0,3.16,3.51,4-.76.62,3.92,2.05,1,3.28.8.29,1.73-3.8,2.33-1.27,4.56-1.38-.31-1.69.74-2.11,1.65,1.24-1.74-2.49-.49-1.48-2.62C259.63,10.92,256.94,10.44,256.47,8.75Z"/><path class="cls-1" d="M980.06,23.72c-5.22-.42-5.22-.42-5.22-5.72,0-5,.14-10-.06-15-.1-2.5.67-3.08,3.11-3.07q71.8.11,143.62.05h513.27Q1804.31,0,1973.84,0c3,0,3.91.59,3.77,3.69-.3,6.63-.16,13.29-.2,19.94-.82,1-2,1-3.13,1.1s-2.5.05-3.75.05q-491.73,0-983.48,0C984.7,24.71,982.22,25.23,980.06,23.72Z"/><path class="cls-2" d="M980.06,23.72c1.25,0,2.5-.1,3.75-.1H1974l3.43,0c0,5.71,0,11.43.13,17.15,0,1.63-.51,2.31-2.14,2.15-.72-.07-1.45,0-2.18,0h-989c-4.72,0-4.1.5-4.13-4.17C980,33.7,980.06,28.71,980.06,23.72Z"/><path class="cls-3" d="M1590.78,9.93c6,1.53,11.63-.08,17.35-1-2.13,1.84-5,1.45-7.61,2.91,3.37,1.22,6.91,1,9.7,3-8.54-2-17-2.82-26,.39,1.61-2,2.29-2.24,9.93-3.48C1593.29,10.58,1591.45,12,1590.78,9.93Z"/><path class="cls-4" d="M1277.26,14.79c-8.55-2.15-17-2.77-25.62-.22,3-2.35,6.84-1.85,10.29-3-1.22-.82-2.91.23-4.55-1.79,6.53,1.83,12.1-.19,17.85-.75-2.35,1.5-5.1,1.68-8,2.56C1270.62,13.13,1274.44,12.59,1277.26,14.79Z"/><path class="cls-5" d="M1121.12,7.93c-2.89,2.79-6.19,1.82-8.9,3.43,3.51,1.17,7.17.78,10,3.1a43.2,43.2,0,0,0-25.35-.23c1.08-1.74,3-1.52,4.46-2a31.33,31.33,0,0,1,5.28-.71c-1-1.7-3.22-.13-4.34-2.12C1108.6,10.84,1114.45,9.44,1121.12,7.93Z"/><path class="cls-6" d="M1939.77,8.88c-2.12,1.86-5,1.49-7.57,2.87,3.41,1.41,7.24.91,10,3.28a44.57,44.57,0,0,0-26-.35c2.73-2.61,6.53-1.75,9.66-3.14-1-.8-2.64.31-3.6-1.64C1928.42,11.46,1934.05,9.84,1939.77,8.88Z"/><path class="cls-4" d="M1867.44,14.05a17.4,17.4,0,0,1,9.9-2.25c-.93-2.09-3.2-.36-4.31-2.35,6.27,1.34,12.09,0,18-1.1-2.09,2.33-5.33,1.44-8.12,3,3.54,1.18,7.3.71,10.07,3.19C1884.49,11.68,1876,12,1867.44,14.05Z"/><path class="cls-3" d="M1453.17,8.41c-2.19,2.15-5.26,1.5-8.27,2.91,3.73,1.19,7.47.8,10.27,3.23-8.46-2.84-17-2.6-25.52-.48a16.79,16.79,0,0,1,9.85-2.27c-.85-2.14-3.4-.24-4.21-2.41C1441.46,10.85,1447.28,9.48,1453.17,8.41Z"/><path class="cls-7" d="M1704.4,14.41c2.89-2.06,6.51-1.71,9.74-2.89-1.23-.78-3,.32-4.44-1.77,6.53,1.91,12.28-.06,18.16-.84-2.28,1.77-5.28,1.39-8,2.85,3.37,1.48,7.34.6,10.55,3.62A45,45,0,0,0,1704.4,14.41Z"/><path class="cls-3" d="M1049.64,11.53c-1.3-.74-2.87.26-4.52-1.72,6.47,1.71,12.06-.11,17.77-.8-2.18,1.58-4.85,1.49-7.47,2.63,3.23,1.76,7.33.67,10.61,3.85a43.91,43.91,0,0,0-26.19-1C1042.7,12.33,1046.26,12.67,1049.64,11.53Z"/><path class="cls-5" d="M1810.44,14.38c3.1-1.81,6.53-1.9,9.88-2.76-1.22-1-3,.29-4.3-1.73,6.24,1.57,11.85-.1,17.55-1-2.11,1.82-4.94,1.5-7.51,2.81,3.36,1.54,7.35.65,10.68,3.77A45.18,45.18,0,0,0,1810.44,14.38Z"/><path class="cls-7" d="M1151.39,9.73c6.42,1.85,12,0,17.7-.83-2.14,1.8-5,1.52-7.77,2.84,3.63,1.34,7.41.93,10.15,3.31a45.09,45.09,0,0,0-25.53-.57c2.86-2.38,6.56-1.76,9.78-2.91C1154.58,10.65,1152.81,11.92,1151.39,9.73Z"/><path class="cls-4" d="M1488.71,11.54c-1.39-.73-3,.27-4.44-1.68,6.34,1.58,11.93,0,17.61-.95-2.06,1.85-4.89,1.47-7.44,2.78,3.31,1.56,7.21.9,10,3.36a45.49,45.49,0,0,0-25.62-.58C1481.68,12.14,1485.35,12.7,1488.71,11.54Z"/><path class="cls-4" d="M1014.28,8.52c-2.33,1.88-5.39,1.48-8.63,2.83,3.73,1,7,1,9.79,2.74a45.86,45.86,0,0,0-24.76.06,16.53,16.53,0,0,1,9.92-2.39c-1.22-1.94-3.44-.32-4.45-2.35C1002.41,10.81,1008.32,9.49,1014.28,8.52Z"/><path class="cls-6" d="M1382.7,11.59c-1.48-.74-3,.09-4.76-1.62,3.56.41,6.42.95,9.24.47s5.68-1.17,8.58-1.44c-2.16,1.59-4.83,1.5-7.46,2.63,3.21,1.83,7.37.59,10.4,3.75a41.37,41.37,0,0,0-26.22-.47C1374.1,13.12,1374.1,13.12,1382.7,11.59Z"/><path class="cls-6" d="M1323.52,14.17a17.85,17.85,0,0,1,9.88-2.49c-1-1.88-3.2-.33-4.44-2.25,6.37,1.34,12.22.07,18.13-.94-2.19,2.14-5.48,1.26-8.34,3,3.54.75,6.69,1,9.56,2.55A47.38,47.38,0,0,0,1323.52,14.17Z"/><path class="cls-6" d="M1786.15,14.09a45.63,45.63,0,0,0-24.75.06,16,16,0,0,1,9.85-2.35c-1.12-2-3.39-.31-4.35-2.37,6.22,1.4,12.12,0,18.08-.91-2.31,1.93-5.4,1.44-8.57,2.83C1780.06,12.35,1783.36,12.28,1786.15,14.09Z"/><path class="cls-8" d="M1545.93,11.63c-1.52-1.65-3.43-.28-4.55-2.09,6.19,1.19,12,0,18.36-1.6-1.31,2-2.82,1.86-4.24,2.09s-2.67.68-4.72,1.22c4,1.18,7.58,1.19,10.52,3.22a45.47,45.47,0,0,0-25.59-.42A21.42,21.42,0,0,1,1545.93,11.63Z"/><path class="cls-8" d="M1217.9,11.25c4,1.2,7.57,1.13,10.5,3.21a45.73,45.73,0,0,0-25.56-.44,18.5,18.5,0,0,1,10.1-2.22c-1.16-2-3.36-.39-4.4-2.22,6.14,1,12,.13,18.5-1.78-1.5,2.06-3,2-4.39,2.23A48.71,48.71,0,0,0,1217.9,11.25Z"/><path class="cls-7" d="M1670.89,11.34c3.13.76,6.22,1.25,9.11,2.66a45.5,45.5,0,0,0-24.74.18c2.94-2.08,6.31-2.37,10-2.59-1.29-1.76-3.56-.17-4.67-2.19,6.31,1.47,12.2,0,18.17-.83C1676.47,10.39,1673.43,10,1670.89,11.34Z"/><path class="cls-9" d="M1687.86,8.51c1.34.09,2.62,1.54,2.65,1.47,1.06-1.87,2.78,0,4-.77.33-.2.6-.62,1.28-.15-2,1.56-1.94,4.29-3.74,6.19-.29-2.16-1.35-2.2-3.23-.29C1693,11.66,1688.5,10.53,1687.86,8.51Z"/><path class="cls-10" d="M1282.09,8.62c1.48,0,2.09,1.39,3.33,1.73.27-.6.56-1.21.92-2,.92.45.36,1.37.89,2l2.65-1.63c.19,2-3.76,2.5-1.38,4.87.28.28-.53.23-.84.14-1.22-.36-.53.78-.86,1.06-1,.85-.57-.4-.74-.63-.77-1.11-1.42.55-2.32-.06C1286.94,11.22,1282.48,10.62,1282.09,8.62Z"/><path class="cls-11" d="M1616.54,14.08c3.72-3-1.51-3.4-1.4-5.47,1.4-.35,3,3.87,4.15-.13.9.35.29,1.14.81,1.82l2.78-1.68c-.12,2-3.8,2.67-1.41,5-1.12-1.48-1.34,2.55-2.66.42C1618.21,13,1617.62,14.53,1616.54,14.08Z"/><path class="cls-12" d="M1356.34,8.8c1.49-.71,2.76,3.77,4-.42,1.14.26.15,1.26.74,1.85,1.13.17,1.52-1.48,3.11-1.38a12.44,12.44,0,0,0-3.53,6.25c-1-1.69-1-1.69-3.63-.59C1361.8,11.87,1356.57,10.53,1356.34,8.8Z"/><path class="cls-13" d="M1031.2,9.05c-1.86,1.63-2.89,3.74-3.67,6.69-.48-3.66-1.8-1.7-2.85-.82-.65-1.79,2.43-1.8,1.23-3.4a27.71,27.71,0,0,0-3.1-3c1.93.1,2.53,1.37,3.64,1.75,1.1-.15,0-1.66,1.17-1.82C1028.15,12.47,1029.91,8.12,1031.2,9.05Z"/><path class="cls-14" d="M1742.36,8.57c.17,2.17-3.75,2.29-1.55,4.77a6.25,6.25,0,0,1-2.37.58c-.45-.37-.45-.37-2.9.84,4.2-2.82.13-4-1-6,1.4.08,2,1.11,2.82,1.46,1.78.74.38-1.85,1.76-1.68.75.4-.32,1.4.63,1.93Z"/><path class="cls-15" d="M1795,14.55c4.21-2.82,0-3.93-1.1-5.94,1.33.05,1.89.94,2.66,1.39,2,1.2.57-1.59,1.73-1.41.71,3.84,2.27-.41,3.34.3C1800,11.41,1798.81,12.46,1795,14.55Z"/><path class="cls-16" d="M1402.9,8.92c1.69-.41,3.19,3.45,4.27-.68.73,4.11,2.17.59,3.42.61.16,1.75-2.54,1.82-2.12,3.5.18.73,1.8,1.61-.56,1.26-.32,0-.87,2.24-1.41-.09l-2.12,1.18C1407.75,11.94,1404.24,10.73,1402.9,8.92Z"/><path class="cls-17" d="M1900.36,8.68c1.5.05,2.93,3.55,3.91-.35.66,1.92.66,1.92,3.58.5-.19,1.7-3.83,2.26-1.51,4.6l-2.46.34c-.39-.34-.39-.34-2.65.48C1905.48,11.58,1900.34,10.62,1900.36,8.68Z"/><path class="cls-16" d="M1466.59,8.49c.78,3.79,2.14,0,3.83.51-2.66,1.42-2,4.44-4.12,6.05.14-2.69-1.13-1.6-2.77-.4,3.67-3.13-.24-3.94-1.12-5.83,1.19-.06,1.74.88,2.55,1.24C1466.83,10.9,1465.45,8.64,1466.59,8.49Z"/><path class="cls-18" d="M1841.89,14.37c2.52-1.68,1.65-3.33-.78-4.77,1.48-.79,3.73,3.15,3.57-1.1,1.12.42.35,1.39,1,2,.78-.54,1.61-1.1,2.62-1.78.19,1.92-2.36,2-2.14,3.62.06.43.46.82.7,1.22-.28,0-.71.15-.82,0-1-1.22-.31,2.11-1.44.54S1843,15.4,1841.89,14.37Z"/><path class="cls-19" d="M1133.82,8.53c.12.57.24,1.14.39,1.88l3-1.93c-.22,2-3.72,2.75-1.6,5-.28,0-.78-.12-.82,0-.84,2.09-2.8-.93-4,1.1,3.64-3.11-.48-3.87-1.18-5.59C1130.74,7.6,1132.77,13,1133.82,8.53Z"/><path class="cls-20" d="M1077.66,9.49c.22,1.29-3.62,1.24-1.54,3.77.19.24-2,0-1.65,1.65.09.4-.37.11-.44-.13s0-.75-.15-.89c-1.15-.91-1.52,1-2.86.67,2.66-1.87,1.86-3.51-.28-4.85.92-1.4,2.83,2.69,3.21-.8,0-.29.54-.48.61-.11C1075.37,13.3,1076.76,7,1077.66,9.49Z"/><path class="cls-21" d="M1516.74,8.86c-.14,1.81-3.76,2.44-1.42,4.75l-2.43.36c-.41-.41-.41-.41-3.26.54,4.06-2.38.84-3.52.09-5.15,2.62,1.08,2.62,1.08,3.66-1C1513.82,12.36,1515.54,8.65,1516.74,8.86Z"/><path class="cls-22" d="M1177.53,14.07c3.17-1.94.22-3.09-1.13-5,1.82.36,3.77,2.91,3.9-1.25.57,4.7,2.32.66,3.52,1.21-.12,1.6-3.72,2.27-1.38,4.54-.92-1.51-1.44,2.7-2.63.15C1179.41,12.88,1178.62,14.71,1177.53,14.07Z"/><path class="cls-23" d="M1947.63,9.35c1.47.54,3.14,2.18,3.33-2.12.76,4.79,2.17,1.82,3.33,1.63.64,1.85-3,1.81-1.76,3.78.56.91,1.4,1.69-.56.92-.85,2.28-2.61-1-3.79.88C1951.38,12.14,1948.45,11.08,1947.63,9.35Z"/><path class="cls-18" d="M1573.3,10.31l2.56-1.61c.32,1.88-3.68,2.26-1.3,4.54-1,.19-1.92.37-1.77,1.71-.82,0-.27-.91-.55-1-1.31-.33-1.12-1.05-1.21-2.18-.07-.91-1.74-1.69-2.49-2.72,3.21,1.23,3.21,1.23,4-.62C1573.46,8.79,1572.66,9.78,1573.3,10.31Z"/><path class="cls-20" d="M1235.68,8.75c1.56,0,3.16,3.51,4-.76.62,3.92,2,1,3.29.8.28,1.73-3.81,2.33-1.28,4.56-1.38-.31-1.69.74-2.11,1.65,1.25-1.74-2.48-.49-1.48-2.62C1238.84,10.92,1236.15,10.44,1235.68,8.75Z"/></svg>