<svg id="Camada_1" data-name="Camada 1" xmlns="http://www.w3.org/2000/svg" viewBox="0 0 1080 1080"><defs><style>.cls-1{fill:#913114;}.cls-2{fill:#fff1b8;}.cls-3{fill:#1d1e1c;}.cls-4{fill:#d6c166;}.cls-5{fill:#d25815;}.cls-6{fill:#7f2210;}.cls-7{fill:#f7a61f;}.cls-8{fill:#603d14;}.cls-9{fill:#fff0b7;}.cls-10{fill:#7a5421;}.cls-11{fill:none;stroke:#fff0b7;stroke-miterlimit:10;stroke-width:4.46px;}</style></defs><rect class="cls-1" x="169.42" y="439.9" width="211" height="538.44" rx="30.6" transform="translate(-281.11 190.21) rotate(-25.79)"/><rect class="cls-2" x="189.34" y="462.89" width="161.57" height="498.06" rx="25.72" transform="translate(-282.8 188.41) rotate(-25.79)"/><path class="cls-3" d="M98.92,543.12q14.2-7.75,28.83-14.58c4.9-2.24,9.85-4.37,14.72-6.66s9.67-4.72,14.46-7.18,9.58-4.93,14.4-7.31,9.65-4.79,14.5-7.12c9.73-4.61,19.5-9.13,29.42-13.35l.07.14c-9.48,5.14-19.09,10-28.75,14.74-4.84,2.36-9.71,4.64-14.58,6.94s-9.77,4.54-14.68,6.74-9.79,4.48-14.62,6.86-9.57,4.95-14.36,7.39Q113.87,536.94,99,543.26Z"/><path class="cls-3" d="M107.19,560.22q14.19-7.74,28.83-14.57c4.89-2.24,9.84-4.37,14.71-6.66s9.68-4.72,14.47-7.19,9.57-4.92,14.4-7.3,9.64-4.8,14.5-7.12c9.73-4.61,19.5-9.13,29.41-13.36l.07.15c-9.47,5.13-19.09,10-28.74,14.74-4.84,2.36-9.72,4.64-14.59,6.93s-9.76,4.54-14.67,6.75-9.8,4.48-14.62,6.86-9.57,4.95-14.37,7.39q-14.45,7.2-29.33,13.53Z"/><path class="cls-3" d="M115.46,577.33q14.19-7.74,28.82-14.57c4.9-2.24,9.85-4.38,14.72-6.66s9.67-4.72,14.46-7.19S183,544,187.87,541.6s9.64-4.79,14.49-7.11c9.73-4.61,19.5-9.13,29.42-13.36l.07.14c-9.48,5.14-19.09,10-28.75,14.75-4.84,2.36-9.71,4.64-14.58,6.93s-9.77,4.54-14.68,6.75-9.79,4.48-14.62,6.86-9.56,4.94-14.36,7.39q-14.46,7.2-29.34,13.52Z"/><path class="cls-3" d="M123.72,594.44q14.19-7.74,28.83-14.58c4.89-2.23,9.84-4.37,14.71-6.66s9.68-4.72,14.47-7.18,9.57-4.92,14.4-7.31,9.64-4.79,14.5-7.11c9.73-4.61,19.5-9.13,29.41-13.36l.07.14c-9.47,5.14-19.08,10-28.74,14.74-4.84,2.37-9.72,4.65-14.59,6.94s-9.76,4.54-14.67,6.74-9.8,4.48-14.62,6.87-9.57,4.94-14.37,7.39q-14.44,7.2-29.33,13.52Z"/><path class="cls-3" d="M132,611.55q14.19-7.75,28.82-14.58c4.9-2.24,9.85-4.37,14.72-6.66s9.68-4.72,14.46-7.18,9.58-4.93,14.41-7.31S214,571,218.89,568.7c9.73-4.61,19.51-9.12,29.42-13.35l.07.14c-9.48,5.14-19.09,10-28.75,14.74-4.84,2.36-9.71,4.65-14.58,6.94s-9.77,4.54-14.68,6.74-9.79,4.48-14.62,6.87-9.56,4.94-14.36,7.38q-14.46,7.22-29.33,13.53Z"/><path class="cls-3" d="M140.25,628.66q14.19-7.75,28.83-14.58c4.9-2.24,9.84-4.37,14.71-6.66s9.68-4.72,14.47-7.19,9.58-4.92,14.4-7.3,9.64-4.8,14.5-7.12c9.73-4.61,19.5-9.13,29.41-13.36l.07.15c-9.47,5.14-19.08,10-28.74,14.74-4.84,2.36-9.72,4.64-14.59,6.94s-9.76,4.53-14.67,6.74-9.79,4.48-14.62,6.86-9.57,5-14.37,7.39q-14.44,7.2-29.33,13.53Z"/><path class="cls-3" d="M148.52,645.76q14.19-7.74,28.82-14.57c4.9-2.24,9.85-4.37,14.72-6.66s9.68-4.72,14.46-7.19,9.58-4.92,14.41-7.3,9.64-4.8,14.49-7.12c9.73-4.61,19.51-9.13,29.42-13.36l.07.15c-9.47,5.13-19.09,10-28.75,14.74-4.83,2.36-9.71,4.64-14.58,6.93s-9.76,4.54-14.68,6.75-9.79,4.48-14.62,6.86-9.56,5-14.36,7.39q-14.46,7.2-29.33,13.53Z"/><path class="cls-3" d="M156.78,662.87q14.19-7.74,28.83-14.57c4.9-2.24,9.84-4.38,14.72-6.67s9.67-4.72,14.46-7.18,9.58-4.92,14.4-7.31,9.64-4.79,14.5-7.11c9.73-4.61,19.5-9.13,29.42-13.36l.06.14c-9.47,5.14-19.08,10-28.74,14.75-4.84,2.36-9.71,4.64-14.59,6.93s-9.76,4.54-14.67,6.74-9.79,4.49-14.62,6.87S191,647,186.19,649.49q-14.46,7.2-29.34,13.52Z"/><path class="cls-3" d="M165.05,680q14.19-7.76,28.83-14.58c4.89-2.24,9.84-4.37,14.71-6.66s9.68-4.72,14.46-7.18,9.58-4.93,14.41-7.31,9.64-4.79,14.5-7.11c9.72-4.62,19.5-9.13,29.41-13.36l.07.14c-9.47,5.14-19.09,10-28.75,14.74-4.83,2.37-9.71,4.65-14.58,6.94s-9.76,4.54-14.68,6.74-9.79,4.48-14.61,6.87-9.57,4.94-14.37,7.39q-14.46,7.2-29.33,13.52Z"/><path class="cls-3" d="M173.31,697.09q14.19-7.76,28.83-14.58c4.9-2.24,9.84-4.37,14.72-6.66s9.67-4.72,14.46-7.18,9.58-4.93,14.4-7.31,9.64-4.79,14.5-7.12c9.73-4.61,19.5-9.13,29.42-13.35l.07.14c-9.48,5.14-19.09,10-28.75,14.74-4.84,2.36-9.71,4.64-14.58,6.94s-9.77,4.54-14.68,6.74-9.79,4.48-14.62,6.87-9.57,4.94-14.36,7.38q-14.46,7.21-29.34,13.53Z"/><path class="cls-3" d="M181.58,714.19q14.19-7.74,28.83-14.57c4.89-2.24,9.84-4.37,14.71-6.66s9.68-4.72,14.47-7.19,9.57-4.92,14.4-7.3,9.64-4.8,14.5-7.12c9.73-4.61,19.5-9.13,29.41-13.36l.07.15c-9.47,5.14-19.09,10-28.75,14.74-4.83,2.36-9.71,4.64-14.58,6.93s-9.76,4.54-14.68,6.75-9.79,4.48-14.61,6.86-9.57,5-14.37,7.39q-14.44,7.2-29.33,13.53Z"/><path class="cls-3" d="M189.84,731.3q14.21-7.74,28.83-14.57c4.9-2.24,9.85-4.37,14.72-6.66s9.67-4.72,14.46-7.19,9.58-4.92,14.41-7.31,9.64-4.79,14.49-7.11c9.73-4.61,19.5-9.13,29.42-13.36l.07.15c-9.48,5.13-19.09,10-28.75,14.74-4.84,2.36-9.71,4.64-14.58,6.93s-9.77,4.54-14.68,6.75-9.79,4.48-14.62,6.86-9.57,5-14.36,7.39q-14.46,7.2-29.34,13.53Z"/><path class="cls-3" d="M198.11,748.41q14.19-7.74,28.83-14.57c4.89-2.24,9.84-4.38,14.71-6.67s9.68-4.72,14.47-7.18,9.57-4.92,14.4-7.31,9.64-4.79,14.5-7.11c9.73-4.61,19.5-9.13,29.41-13.36l.07.14c-9.47,5.14-19.09,10-28.74,14.75-4.84,2.36-9.72,4.64-14.59,6.93s-9.76,4.54-14.67,6.74-9.8,4.49-14.62,6.87-9.57,4.94-14.37,7.39q-14.44,7.2-29.33,13.52Z"/><path class="cls-3" d="M206.38,765.52q14.19-7.75,28.82-14.58c4.9-2.24,9.85-4.37,14.72-6.66s9.67-4.72,14.46-7.18,9.58-4.93,14.41-7.31,9.64-4.79,14.49-7.11c9.73-4.62,19.51-9.13,29.42-13.36l.07.14c-9.48,5.14-19.09,10-28.75,14.74-4.84,2.36-9.71,4.65-14.58,6.94s-9.77,4.54-14.68,6.74-9.79,4.48-14.62,6.87-9.56,4.94-14.36,7.39q-14.46,7.2-29.34,13.52Z"/><path class="cls-3" d="M214.64,782.63q14.19-7.75,28.83-14.58c4.89-2.24,9.84-4.37,14.71-6.66s9.68-4.72,14.47-7.19,9.58-4.92,14.4-7.3,9.64-4.79,14.5-7.12c9.73-4.61,19.5-9.13,29.41-13.35l.07.14c-9.47,5.14-19.08,10-28.74,14.74-4.84,2.36-9.72,4.64-14.59,6.94S277.94,752.79,273,755s-9.79,4.48-14.62,6.86-9.57,4.95-14.37,7.39q-14.44,7.2-29.33,13.53Z"/><path class="cls-3" d="M222.91,799.73q14.19-7.74,28.82-14.57c4.9-2.24,9.85-4.37,14.72-6.66s9.68-4.72,14.46-7.19,9.58-4.92,14.41-7.3,9.64-4.8,14.49-7.12c9.73-4.61,19.51-9.13,29.42-13.36l.07.15c-9.48,5.13-19.09,10-28.75,14.74-4.84,2.36-9.71,4.64-14.58,6.93s-9.76,4.54-14.68,6.75-9.79,4.48-14.62,6.86-9.56,4.95-14.36,7.39q-14.46,7.2-29.33,13.53Z"/><path class="cls-3" d="M231.17,816.84q14.19-7.74,28.83-14.57c4.9-2.24,9.84-4.38,14.72-6.66s9.67-4.72,14.46-7.19,9.58-4.92,14.4-7.31,9.64-4.79,14.5-7.11c9.73-4.61,19.5-9.13,29.41-13.36l.07.14c-9.47,5.14-19.08,10-28.74,14.75-4.84,2.36-9.72,4.64-14.59,6.93s-9.76,4.54-14.67,6.75-9.79,4.48-14.62,6.86-9.57,4.94-14.36,7.39q-14.46,7.2-29.34,13.52Z"/><path class="cls-3" d="M239.44,834q14.19-7.74,28.82-14.58c4.9-2.23,9.85-4.37,14.72-6.66s9.68-4.72,14.46-7.18,9.58-4.92,14.41-7.31,9.64-4.79,14.49-7.11c9.73-4.61,19.51-9.13,29.42-13.36l.07.14c-9.47,5.14-19.09,10-28.75,14.74-4.83,2.37-9.71,4.65-14.58,6.94s-9.76,4.54-14.68,6.74-9.79,4.48-14.61,6.87-9.57,4.94-14.37,7.39q-14.46,7.2-29.33,13.52Z"/><path class="cls-3" d="M247.7,851.06q14.19-7.75,28.83-14.58c4.9-2.24,9.84-4.37,14.72-6.66s9.67-4.72,14.46-7.18,9.58-4.93,14.4-7.31,9.64-4.79,14.5-7.12c9.73-4.61,19.5-9.12,29.42-13.35l.06.14c-9.47,5.14-19.08,10-28.74,14.74-4.84,2.36-9.71,4.65-14.59,6.94s-9.76,4.54-14.67,6.74-9.79,4.48-14.62,6.87-9.57,4.94-14.36,7.38q-14.46,7.22-29.34,13.53Z"/><path class="cls-3" d="M256,868.16q14.19-7.74,28.83-14.57c4.89-2.24,9.84-4.37,14.71-6.66s9.68-4.72,14.46-7.19,9.58-4.92,14.41-7.3,9.64-4.8,14.5-7.12c9.72-4.61,19.5-9.13,29.41-13.36l.07.15c-9.47,5.14-19.09,10-28.75,14.74-4.83,2.36-9.71,4.64-14.58,6.94s-9.76,4.53-14.68,6.74-9.79,4.48-14.61,6.86-9.57,5-14.37,7.39Q270.93,862,256,868.31Z"/><path class="cls-3" d="M264.23,885.27q14.2-7.74,28.83-14.57c4.9-2.24,9.84-4.37,14.72-6.66s9.67-4.72,14.46-7.19,9.58-4.92,14.4-7.3,9.65-4.8,14.5-7.12c9.73-4.61,19.5-9.13,29.42-13.36l.07.15c-9.48,5.13-19.09,10-28.75,14.74-4.84,2.36-9.71,4.64-14.58,6.93s-9.77,4.54-14.68,6.75-9.79,4.48-14.62,6.86-9.57,5-14.36,7.39q-14.46,7.2-29.34,13.53Z"/><path class="cls-3" d="M272.5,902.38q14.19-7.74,28.83-14.57c4.89-2.24,9.84-4.38,14.71-6.67s9.68-4.72,14.47-7.18,9.57-4.92,14.4-7.31,9.64-4.79,14.5-7.11c9.73-4.61,19.5-9.13,29.41-13.36l.07.14c-9.47,5.14-19.09,10-28.74,14.75-4.84,2.36-9.72,4.64-14.59,6.93s-9.76,4.54-14.68,6.74-9.79,4.49-14.61,6.87-9.57,4.94-14.37,7.39q-14.44,7.2-29.33,13.52Z"/><path class="cls-3" d="M280.76,919.49q14.21-7.75,28.83-14.58c4.9-2.24,9.85-4.37,14.72-6.66s9.67-4.72,14.46-7.18,9.58-4.93,14.41-7.31,9.64-4.79,14.49-7.11c9.73-4.62,19.5-9.13,29.42-13.36l.07.14c-9.48,5.14-19.09,10-28.75,14.74-4.84,2.36-9.71,4.65-14.58,6.94s-9.77,4.54-14.68,6.74-9.79,4.48-14.62,6.87-9.56,4.94-14.36,7.39q-14.46,7.2-29.34,13.52Z"/><path class="cls-3" d="M289,936.6q14.19-7.76,28.83-14.58c4.89-2.24,9.84-4.37,14.71-6.66s9.68-4.72,14.47-7.18,9.57-4.93,14.4-7.31,9.64-4.79,14.5-7.12c9.73-4.61,19.5-9.13,29.41-13.35l.07.14c-9.47,5.14-19.09,10-28.74,14.74-4.84,2.36-9.72,4.64-14.59,6.94s-9.76,4.54-14.67,6.74-9.8,4.48-14.62,6.87-9.57,4.94-14.37,7.38Q304,930.43,289.1,936.74Z"/><path class="cls-3" d="M297.3,953.7q14.19-7.74,28.82-14.57c4.9-2.24,9.85-4.37,14.72-6.66s9.67-4.72,14.46-7.19,9.58-4.92,14.41-7.3,9.64-4.8,14.49-7.12c9.73-4.61,19.51-9.13,29.42-13.36l.07.15c-9.48,5.14-19.09,10-28.75,14.74-4.84,2.36-9.71,4.64-14.58,6.93s-9.77,4.54-14.68,6.75-9.79,4.48-14.62,6.86-9.56,5-14.36,7.39q-14.46,7.2-29.34,13.53Z"/><rect class="cls-3" x="160.05" y="506.73" width="74.98" height="18.1" transform="translate(-204.71 137.3) rotate(-25.79)"/><rect class="cls-3" x="168.74" y="524.72" width="74.98" height="18.1" transform="translate(-211.67 142.87) rotate(-25.79)"/><rect class="cls-3" x="184.81" y="557.52" width="74.98" height="18.1" transform="translate(-224.33 153.13) rotate(-25.79)"/><rect class="cls-3" x="193.5" y="575.51" width="74.98" height="18.1" transform="translate(-231.3 158.7) rotate(-25.79)"/><rect class="cls-3" x="242.47" y="677.34" width="74.98" height="18.1" transform="translate(-270.72 190.14) rotate(-25.79)"/><rect class="cls-3" x="251.17" y="695.33" width="74.98" height="18.1" transform="translate(-277.68 195.72) rotate(-25.79)"/><rect class="cls-3" x="300.33" y="797.09" width="74.98" height="18.1" transform="translate(-317.05 227.24) rotate(-25.79)"/><rect class="cls-3" x="309.03" y="815.08" width="74.98" height="18.1" transform="translate(-324.01 232.81) rotate(-25.79)"/><rect class="cls-3" x="209.18" y="608.43" width="74.98" height="18.1" transform="translate(-244.05 168.8) rotate(-25.79)"/><rect class="cls-3" x="217.88" y="626.42" width="74.98" height="18.1" transform="translate(-251.02 174.37) rotate(-25.79)"/><rect class="cls-3" x="226.6" y="644.48" width="74.98" height="18.1" transform="translate(-258 179.97) rotate(-25.79)"/><rect class="cls-3" x="267.04" y="728.18" width="74.98" height="18.1" transform="translate(-290.39 205.9) rotate(-25.79)"/><rect class="cls-3" x="275.73" y="746.18" width="74.98" height="18.1" transform="translate(-297.35 211.47) rotate(-25.79)"/><rect class="cls-3" x="284.46" y="764.23" width="74.98" height="18.1" transform="translate(-304.34 217.06) rotate(-25.79)"/><rect class="cls-3" x="324.9" y="847.94" width="74.98" height="18.1" transform="translate(-336.72 242.99) rotate(-25.79)"/><rect class="cls-3" x="333.59" y="865.93" width="74.98" height="18.1" transform="translate(-343.69 248.56) rotate(-25.79)"/><rect class="cls-3" x="342.32" y="883.99" width="74.98" height="18.1" transform="translate(-350.67 254.16) rotate(-25.79)"/><path class="cls-2" d="M726.25,251.85l-14.53,2-13.33-14.32-11,17.66-.71.1L673.34,241.9,663.1,260.52l-.63.09-14.53-13.93-12.81,17.68-1.53.21-14-11.58-11,15-.54.07-15.81-9.35-10.65,13-.37.06-18.6-10.64L550.69,276l-.15,0-16-9.22-4.15,12h0L520,271.46l-7.58,16.92h0l-18.4-5.07-8.95,19.76h0l-16.46-4.34-7.49,17.2-18.07-5.8-4.68,18-.82.44-21.17-6.95L412.7,342,393,332.65,391.2,353.5h0l-19.86-8.09-2.5,20.1h0l-5.56,3L593.17,825.11l7,21.73,8.7,3,4.37-22.55L632,832.11l3.74-18.6,18.67,1.84,4.24-16.49,21.61,1.82,4.53-18.54,16.7,1.46.36.62.61-.53.81.07-.07-.71,12.43-10.77.42,0,14.36,12.2,16.45-14.14,13.09,10.88L774,768.75l13.93,12.88,12.28-14.88,6.72,6.29-3.3-10.17,4-.43Z"/><path class="cls-4" d="M530.57,278.68c7.36,20.83,14.41,41.76,21.42,62.7q5.25,15.71,10.37,31.46t10.13,31.54L582.27,436c3.25,10.56,6.5,21.11,9.85,31.63q10.08,31.56,20.75,62.92t21,62.83c6.9,21,13.83,42,20.59,63,13.45,42.07,26.71,84.2,39.35,126.53l-.3.1C678.94,741.3,665,699.4,651.23,657.43c-6.84-21-13.51-42-20.21-63.09s-13.3-42.12-19.81-63.23S598,489,591.14,468c-3.45-10.49-7-21-10.55-31.4L570,405.2q-5.25-15.72-10.29-31.49t-10-31.57c-6.59-21.08-13.14-42.17-19.39-63.36Z"/><path class="cls-4" d="M550.84,275.9c6.91,21,13.52,42,20.08,63.08q4.91,15.81,9.7,31.64t9.45,31.72l9.11,31.82c3,10.62,6.05,21.22,9.17,31.8,6.27,21.16,12.79,42.24,19.4,63.29s13.22,42.1,19.66,63.21,12.94,42.19,19.25,63.33c12.55,42.3,24.9,84.67,36.64,127.22l-.31.09c-13.67-42-26.73-84.12-39.58-126.34-6.4-21.11-12.62-42.28-18.87-63.44s-12.4-42.35-18.46-63.57-12.27-42.39-18.72-63.49c-3.22-10.55-6.54-21.07-9.88-31.59l-10-31.56q-4.89-15.81-9.61-31.67t-9.36-31.75c-6.13-21.19-12.24-42.4-18-63.7Z"/><path class="cls-4" d="M581.69,271.67c6.16,20.71,12,41.5,17.8,62.3q4.32,15.6,8.54,31.24t8.3,31.3l7.95,31.4c2.64,10.47,5.28,20.94,8,31.38,5.5,20.88,11.25,41.7,17.1,62.48s11.69,41.58,17.36,62.41,11.41,41.65,17,62.52c11,41.76,21.83,83.56,32,125.54l-.31.08c-12.15-41.45-23.67-83.07-35-124.74-5.62-20.85-11.08-41.74-16.56-62.62s-10.86-41.8-16.15-62.74S637,480.39,631.31,459.56c-2.85-10.41-5.79-20.8-8.74-31.19l-8.8-31.17q-4.32-15.61-8.46-31.27T597.1,334.6c-5.36-20.91-10.7-41.84-15.71-62.84Z"/><path class="cls-4" d="M608.16,268.05c5.67,21.38,11,42.83,16.34,64.29q4,16.11,7.82,32.23t7.56,32.3l7.22,32.37c2.39,10.79,4.79,21.59,7.29,32.36,5,21.53,10.27,43,15.64,64.46s10.71,42.91,15.9,64.4,10.44,43,15.49,64.5c10,43.07,19.88,86.18,29.09,129.44l-.31.08c-11.17-42.8-21.73-85.75-32.08-128.74-5.14-21.5-10.11-43-15.1-64.59s-9.89-43.1-14.69-64.69-9.76-43.13-15-64.62c-2.6-10.75-5.29-21.47-8-32.19l-8.08-32.17q-4-16.11-7.73-32.26t-7.47-32.31c-4.88-21.57-9.73-43.14-14.25-64.79Z"/><path class="cls-4" d="M635.28,264.33c5.23,20.95,10.14,42,15,63q3.63,15.78,7.15,31.58t6.9,31.64l6.55,31.72c2.17,10.57,4.34,21.15,6.62,31.7,4.56,21.1,9.39,42.14,14.31,63.16s9.82,42.05,14.57,63.11,9.54,42.11,14.15,63.2c9.15,42.2,18.1,84.44,26.42,126.82l-.31.07c-10.29-42-20-84-29.42-126.16-4.7-21.07-9.22-42.18-13.77-63.28s-9-42.23-13.35-63.38-8.86-42.26-13.61-63.32c-2.38-10.53-4.85-21-7.34-31.54l-7.41-31.53q-3.63-15.78-7.06-31.6t-6.81-31.66c-4.43-21.13-8.83-42.27-12.91-63.48Z"/><path class="cls-4" d="M662.63,260.58c4.68,21.54,9,43.15,13.35,64.77q3.22,16.22,6.32,32.45t6.07,32.5l5.71,32.56c1.89,10.86,3.79,21.72,5.79,32.55,4,21.68,8.28,43.3,12.64,64.91s8.72,43.21,12.91,64.85,8.44,43.27,12.49,64.93c8,43.34,15.88,86.72,23.08,130.22l-.31.06c-9.19-43.12-17.75-86.37-26.1-129.65-4.14-21.65-8.11-43.33-12.1-65s-7.88-43.38-11.68-65.09-7.76-43.39-11.95-65c-2.1-10.82-4.3-21.62-6.51-32.42l-6.58-32.4q-3.21-16.21-6.23-32.47t-6-32.52c-3.88-21.69-7.72-43.4-11.24-65.16Z"/><path class="cls-4" d="M687.53,257.16c4.18,21.22,8.05,42.49,11.88,63.77q2.85,16,5.58,31.94t5.33,32l5,32c1.64,10.69,3.29,21.37,5.05,32,3.51,21.33,7.29,42.61,11.17,63.88s7.74,42.55,11.44,63.84,7.45,42.59,11,63.92c7.06,42.65,13.91,85.34,20.13,128.14l-.31.06c-8.21-42.47-15.79-85-23.16-127.64-3.65-21.31-7.13-42.64-10.63-64s-6.89-42.68-10.2-64-6.77-42.7-10.47-64c-1.86-10.65-3.81-21.28-5.78-31.91l-5.84-31.9q-2.85-16-5.5-32t-5.23-32c-3.39-21.35-6.74-42.71-9.77-64.12Z"/><path class="cls-4" d="M512.6,288.33c7.73,20.38,15.16,40.87,22.55,61.36q5.52,15.39,10.93,30.81t10.69,30.88l10.36,31c3.43,10.34,6.88,20.68,10.42,31C584.64,494,592,514.49,599.42,535s14.86,41,22.13,61.51,14.58,41.07,21.72,61.66c14.21,41.2,28.22,82.47,41.62,123.94l-.3.11c-15.31-40.81-30-81.84-44.52-122.93-7.22-20.56-14.27-41.18-21.35-61.79s-14.06-41.25-21-61.92-13.93-41.3-21.2-61.84c-3.64-10.27-7.37-20.51-11.12-30.74l-11.18-30.71q-5.52-15.39-10.85-30.84t-10.6-30.91c-7-20.65-13.9-41.31-20.52-62.08Z"/><path class="cls-4" d="M485.25,303c8.68,20.52,17.05,41.16,25.39,61.81q6.23,15.49,12.36,31T535.11,427l11.79,31.26c3.91,10.42,7.83,20.85,11.85,31.23,8,20.77,16.33,41.44,24.72,62.07s16.75,41.28,25,62,16.48,41.38,24.57,62.12c16.11,41.53,32,83.13,47.34,125l-.29.11c-17.2-41.09-33.8-82.43-50.21-123.84-8.17-20.71-16.17-41.5-24.2-62.27s-16-41.58-23.81-62.43S566,510.56,557.79,489.86q-6.18-15.53-12.54-31L532.65,428q-6.24-15.49-12.28-31.07t-12-31.16c-7.92-20.82-15.8-41.65-23.39-62.59Z"/><path class="cls-4" d="M461.3,315.87c8.77,19.9,17.24,39.92,25.68,60q6.3,15,12.5,30.12t12.26,30.21l11.93,30.35c4,10.12,7.94,20.24,12,30.32,8.14,20.16,16.53,40.22,25,60.24s17,40,25.26,60.13,16.68,40.15,24.87,60.29c16.3,40.3,32.41,80.68,47.93,121.31l-.29.12c-17.39-39.86-34.18-80-50.79-120.15-8.26-20.11-16.37-40.28-24.49-60.44S567,578,559.07,557.72s-16-40.41-24.35-60.5c-4.16-10-8.42-20-12.69-30l-12.74-30q-6.3-15-12.42-30.15t-12.18-30.25c-8-20.2-16-40.43-23.68-60.77Z"/><path class="cls-4" d="M437.72,328.53c9.57,20,18.84,40.22,28.08,60.41q6.92,15.15,13.71,30.35T493,449.74l13.15,30.6c4.37,10.21,8.74,20.42,13.21,30.58,8.95,20.32,18.14,40.53,27.42,60.7s18.56,40.34,27.67,60.59,18.29,40.46,27.29,60.76c17.92,40.63,35.64,81.34,52.79,122.31l-.29.13c-19-40.15-37.39-80.56-55.6-121.06-9.08-20.26-18-40.6-26.92-60.92s-17.77-40.7-26.53-61.1-17.65-40.75-26.77-61c-4.56-10.12-9.22-20.2-13.89-30.27l-13.95-30.25q-6.9-15.15-13.62-30.39t-13.39-30.49c-8.83-20.37-17.62-40.76-26.12-61.28Z"/><path class="cls-4" d="M412.84,341.89c9.82,19.39,19.35,38.93,28.85,58.48q7.1,14.67,14.09,29.4t13.86,29.51l13.54,29.66c4.5,9.89,9,19.78,13.61,29.63,9.21,19.68,18.66,39.26,28.19,58.79s19.07,39.07,28.44,58.68,18.81,39.19,28.06,58.85c18.44,39.37,36.69,78.82,54.36,118.55l-.29.14c-19.5-38.87-38.41-78-57.14-117.24-9.33-19.62-18.5-39.33-27.69-59s-18.3-39.44-27.31-59.22S505.23,538.62,495.85,519q-7-14.7-14.27-29.32l-14.33-29.28q-7.1-14.67-14-29.44t-13.78-29.54c-9.09-19.75-18.15-39.51-26.91-59.41Z"/><path class="cls-4" d="M391.34,353.43c10.56,19.68,20.82,39.5,31.05,59.34q7.67,14.89,15.21,29.84t15,29.95l14.66,30.11q7.29,15.06,14.71,30.08c9.95,20,20.14,39.85,30.41,59.67S532.89,632.06,543,652s20.28,39.78,30.27,59.74c19.92,39.95,39.65,80,58.81,120.34l-.28.14c-21-39.43-41.36-79.15-61.56-119-10.07-19.92-20-39.92-29.92-59.91s-19.78-40-29.53-60.11-19.67-40.09-29.78-60q-7.59-14.91-15.38-29.74L450.2,473.75q-7.65-14.89-15.12-29.88t-14.89-30c-9.83-20-19.63-40.1-29.13-60.31Z"/><path class="cls-4" d="M613.14,827.33C602.23,808.23,591.62,789,581,769.72q-7.92-14.46-15.74-29t-15.5-29.1l-15.2-29.26q-7.58-14.65-15.25-29.24Q503.87,624,487.86,595.19t-31.71-57.82c-10.49-19.32-21-38.63-31.34-58-20.64-38.82-41.09-77.74-61-117l.28-.15c21.66,38.27,42.76,76.84,63.68,115.51,10.42,19.35,20.69,38.78,31,58.21s20.5,38.89,30.62,58.41,20.38,39,30.85,58.29q7.86,14.49,15.9,28.88l16,28.85q7.92,14.46,15.66,29t15.42,29.14c10.19,19.48,20.35,39,30.22,58.63Z"/><rect class="cls-5" x="290.74" y="361.36" width="210.4" height="567.86" rx="31.31" transform="translate(-241.29 236.5) rotate(-25.79)"/><rect class="cls-6" x="314.05" y="379.39" width="165.62" height="526.68" rx="26.77" transform="translate(-240.08 236.65) rotate(-25.79)"/><path class="cls-7" d="M289.15,445l3.19,3.61a11.49,11.49,0,0,1-.72,1.55c-9.41,12.8-8,25.47-.12,38.48,8,13.29,18.88,23.9,30.76,33.51,13.8,11.17,28.08,21.74,42,32.82a250.55,250.55,0,0,1,31.95,30.1c.95,1.09,1.79,2.27,2.94,3.75l-5.4,4.32c-1.18-1.09-2.1-1.8-2.87-2.66-13.4-14.92-28.53-27.94-44.32-40.23-14.83-11.55-29.88-22.82-43.56-35.77-9.67-9.16-17.76-19.43-22.75-31.92C275.13,469.83,278.56,454.76,289.15,445Z"/><path class="cls-7" d="M505,841.4l-3.47-4.07c.66-1,1.12-1.73,1.62-2.43,6.6-9.22,7.49-19.14,3.26-29.48a76.12,76.12,0,0,0-14.76-22.54c-13.8-15-29.92-27.31-46.17-39.46-16.5-12.33-32.45-25.29-46.35-40.6-1.19-1.31-2.33-2.67-3.46-4-.17-.2-.17-.55-.36-1.2.72-.63,1.55-1.39,2.42-2.1s1.64-1.24,2.65-2a10.75,10.75,0,0,1,2.09,1.45c14.34,16.09,30.85,29.77,47.67,43.14q19.47,15.45,38.44,31.53a93,93,0,0,1,22,27.07c7.42,13.89,7.7,27.4-1.82,40.49C507.8,838.45,506.61,839.57,505,841.4Z"/><path class="cls-7" d="M439.54,815.29l-3.62.93a15,15,0,0,1-.85-1.77c-4.7-15-6-30.45-6.65-46-.36-8.28-.43-16.56-.63-25-26.05-22.13-49.31-46.66-65-77.92l3.62-2.18c16.23,31.42,41.56,54.49,68.12,76.94,0,5,.08,10.18,0,15.34-.19,15.1-.3,30.2,2,45.17C437.26,805.43,438.44,810,439.54,815.29Z"/><path class="cls-7" d="M337.5,556.48c-18.85-15.67-38.05-30.41-52-51.07l3-3.06c15.18,21.13,36.23,35.18,55.7,50.86,1.1,34.56,3.33,68.63,17.83,100.94-1.14.62-2.18,1.21-3.74,2.07C343.47,624.34,338.67,590.88,337.5,556.48Z"/><path class="cls-7" d="M449.89,732.66q-.45-8.91-.88-17.73c-1-19.7-2.94-39.28-8.37-58.32-1.9-6.67-4.48-13.14-6.79-19.69-.54-1.52-1.24-3-2-4.75,1-.68,1.95-1.29,3.34-2.22a68.57,68.57,0,0,1,5.48,11.79c10.19,27,14.48,55.14,15.66,83.84.05,1.18.14,2.35.22,3.91,2,1.69,4.05,3.56,6.22,5.32,13.56,11,26.84,22.36,38.05,35.87,2.7,3.27,5.15,6.76,7.93,10.43l-3.47,2.31c-1.18-1.53-2.18-2.76-3.12-4-8.32-11.37-19.24-20-30-28.8-6.21-5-12.52-9.93-18.77-14.92C452.21,734.75,451.14,733.75,449.89,732.66Z"/><path class="cls-7" d="M366.21,542.62c26,22.4,49.19,46.88,64.86,78l-3.6,2.34c-16-31.59-41.41-54.59-68.08-77.19,0-6.52,0-13.3.12-20.07.26-14.23,0-28.42-2.38-42.49-.68-3.91-1.72-7.76-2.71-12.17l3.73-1.24C365.86,493.7,365.58,518,366.21,542.62Z"/><path class="cls-7" d="M309.74,440.28l-.62-4.92c5.44-1.19,10.36-.33,15.16,1.17,11.75,3.7,18.84,12.11,23.45,23.19,5.84,14,7.56,28.85,8,43.82.36,11.09.12,22.19.13,33.28,0,.71-.15,1.43-.29,2.83l-7.13-4.57c0-4.35.08-8.62.11-12.88.1-13.92,0-27.8-2.56-41.56a90.47,90.47,0,0,0-6.06-19.9c-5.4-12.33-14.34-19.68-28.22-20.09A19,19,0,0,1,309.74,440.28Z"/><path class="cls-7" d="M438.27,746.27l7.17,4.9c0,8.88-.13,17.45-.07,26,.09,12.6.91,25.17,4.72,37.25,1.89,6,4.12,12.14,7.44,17.44,5.4,8.64,13.67,13.28,24.1,13.52.59,0,1.17.12,1.76.19a6,6,0,0,1,.73.27c.17.61.46,1.41.62,2.24a23.83,23.83,0,0,1,.19,2.45,17,17,0,0,1-3,.65c-14.09.44-24.94-5.28-32.09-17.47-5.3-9.05-8.05-19-9.64-29.32a235.61,235.61,0,0,1-2.36-41.11C438,758,438.12,752.67,438.27,746.27Z"/><path class="cls-7" d="M392.25,682.63,386.77,688a162.37,162.37,0,0,1-31.32-64.52l7.5-1.13A171.4,171.4,0,0,0,392.25,682.63Z"/><path class="cls-7" d="M430.82,664a159.89,159.89,0,0,0-28.65-59.9,11.9,11.9,0,0,1,1.16-1.79c1.13-1.15,2.33-2.24,4-3.82,15.28,19,25.28,40.2,31.16,64.2Z"/><path class="cls-7" d="M348.83,557.18l6.66,5.56c1.32,15.82,2.58,30.94,3.88,46.61l-5.77,1.45C350.44,605.2,347,566.66,348.83,557.18Z"/><path class="cls-7" d="M445.29,729l-6.74-5.4c-1.33-15.78-2.61-30.92-3.94-46.66l5.6-1.38C443.43,680.93,446.82,716.45,445.29,729Z"/><path class="cls-7" d="M342.68,522.87l-.25,7.41c-13.92-9.26-27-18.41-38.47-30.16,1.21-1,1.94-1.68,2.74-2.24s1.51-.89,2.18-1.28Z"/><path class="cls-7" d="M490.33,786.2l-5.11,3.36L451.38,763.5c0-2,.05-4.42.09-7.68C465.52,765.06,478.35,774.57,490.33,786.2Z"/><path class="cls-7" d="M401.08,611.6l-3.77,1.81c-11.79-12.74-23.31-25.19-34.84-37.63l-.63.39-.37-6.59C376.51,582.64,390.05,595.63,401.08,611.6Z"/><path class="cls-7" d="M392.89,674.57l3.89-2.23c5.77,6.59,11.24,13.15,17,19.39s12,12.23,18.41,18.74l.21,4.58-.87.48C417.12,703.55,404,690.29,392.89,674.57Z"/><path class="cls-7" d="M450.75,767.05l6.33,4.54c0,10.54,0,20.72,0,31.5l-5.72,1.62C448.87,792.27,450.66,780.25,450.75,767.05Z"/><path class="cls-7" d="M336.83,483.13l5.85-2.13c2.15,12.59.68,25,.39,38.1l-6.13-4.47C336.9,504.26,336.87,494,336.83,483.13Z"/><path class="cls-7" d="M419.9,661.46l3.52-1.7c3.73,5.18,9.3,38.74,7.6,46.29l-4-3.44c-1-7-1.93-13.83-3.11-20.64S421.26,668.41,419.9,661.46Z"/><path class="cls-7" d="M362,579.67c3.13,1.9,5.14,3.58,5.6,6.75,1.88,12.7,3.89,25.37,5.92,38.49l-3.63,1.75C365.18,611.41,363.27,596,362,579.67Z"/><path class="cls-7" d="M300.34,485.2l-4.56,3.62c-9.7-8.78-10.15-29.67-.6-37.61l1.84,2.33C290.53,464.82,294.65,475,300.34,485.2Z"/><path class="cls-7" d="M493.83,800.64l4.32-3.43c9.51,8.86,10.09,27.66,1,37.81l-2.26-2C501.87,821,501.78,820.14,493.83,800.64Z"/><path class="cls-7" d="M333.48,469.21c-4.38-10.84-10.11-20-23-22.27l-.43-3c12.73-1.82,26.89,9.9,29.27,24.06Z"/><path class="cls-7" d="M454.25,818.39l6.23-1.41c4.53,10.33,9.75,20.14,22.66,22.17l1.09,2.92c-3.2,1.11-6.13.52-8.86-.35C464,838.11,458.28,829.38,454.25,818.39Z"/><path class="cls-7" d="M284.28,495.48,281.13,497c-13-17.71-10.07-43,4.51-54.77l1.59,1.37C281,450.9,276.67,459,276.35,468.68S279,487,284.28,495.48Z"/><path class="cls-7" d="M439.23,824.77l3.06-1.48a19.86,19.86,0,0,1,1.09,2c3.29,8.24,8.05,15.41,15.31,20.7a36.05,36.05,0,0,0,22.42,7c1.17,0,2.33.06,3.74.09l.35,2.06C470,858.71,447.24,849.34,439.23,824.77Z"/><path class="cls-7" d="M354.56,461.71l-2.95,1.13c-1.43-3-2.66-5.77-4.12-8.47-4.33-8-10.38-14.3-18.85-18.06a37.29,37.29,0,0,0-15.08-3.13l-4.58-.06,0-2.21C327.12,427.12,348.44,439.94,354.56,461.71Z"/><path class="cls-7" d="M509.87,790.65l3.25-1.57a50,50,0,0,1,7.44,18.73c2.19,13.93-2,26.88-11.85,36.12l-2.13-1.31C521.35,826.29,520.31,808.9,509.87,790.65Z"/><path class="cls-7" d="M371.34,540.62c-.14-6.2-.28-12.22-.42-18.23,3.79,4.6,4.34,10.21,5.32,15.94,4.26,4.44,8.37,9.23,9.91,15.93l-7-6.47Z"/><path class="cls-7" d="M407.8,732l14.73,13.51c.18,6.16.36,12.44.57,19.7-3.92-5.89-4.16-11.85-5.44-17.56C413.42,743.17,409.41,738.47,407.8,732Z"/><path class="cls-7" d="M459.83,706.77c4.26,5.21,5.48,11.37,6.3,17.63,3.77,4.23,7.78,8.21,9.32,14.17l-14.14-11.72Q460.58,716.83,459.83,706.77Z"/><path class="cls-7" d="M332.58,559.28c.53,7.08,1,13.63,1.54,20.77-3.48-4.55-4.75-8.42-6.27-18.45-3.71-4.12-7.89-8.16-9.53-14.21Z"/><path class="cls-7" d="M394.83,637.69a6.12,6.12,0,0,1,7.83,3,6,6,0,0,1-3.14,7.74,5.89,5.89,0,0,1-7.8-2.94A6,6,0,0,1,394.83,637.69Z"/><path class="cls-7" d="M468.47,804a5.9,5.9,0,1,1,10.67-5,5.89,5.89,0,0,1-2.12,7.37C474.29,808.09,469.87,807.05,468.47,804Z"/><path class="cls-7" d="M386.15,621c-2.53.85-4.21-.26-5.52-2.34-2-3.18-2.93-8.89-1.95-13.51A22.46,22.46,0,0,1,387.92,616C388.73,618,388,619.75,386.15,621Z"/><path class="cls-7" d="M405.89,646.27a19.15,19.15,0,0,1,12.45.08c1.63.53,3.25,1.3,3.66,3.13a4.24,4.24,0,0,1-3.78,4.87c-2.34.14-4.92-1.51-6.76-2.78C410.8,651.12,406,646.22,405.89,646.27Z"/><path class="cls-7" d="M403.34,618.67a3.24,3.24,0,0,1,2.51-.11c2.77.9,2.75,3.68,2,6a23.45,23.45,0,0,1-7.05,10c-1.59-2.28-1.79-5.33-1.41-8a16.76,16.76,0,0,1,1.29-4.44A6.72,6.72,0,0,1,403.34,618.67Z"/><path class="cls-7" d="M394.6,651.16a30.22,30.22,0,0,1,.17,10,17.68,17.68,0,0,1-1.43,4.49c-.68,1.44-1.76,2.69-3.48,2.72a3.54,3.54,0,0,1-2.39-.89c-1.56-1.35-1.53-3.52-1-5.38A20,20,0,0,1,394.6,651.16Z"/><path class="cls-7" d="M492.6,840.42c-4.6-2.69-7.19-6.25-9.35-10.1a4.16,4.16,0,0,1,1.34-5.83c1.93-1.07,4.16-.28,5.47,2.15A22.1,22.1,0,0,1,492.6,840.42Z"/><path class="cls-7" d="M415.62,681.61c-5-4.07-9-7.58-9.92-13.18.66-2.28,1.8-3.43,3.87-3.45s3.08,1.4,3.9,3A22.44,22.44,0,0,1,415.62,681.61Z"/><path class="cls-7" d="M373.75,638.71a3.38,3.38,0,0,1-1.12-4.48c2.95-7.05,13.59,2.87,16.33,5.27,0,0-3.28,1.22-3.64,1.29a15.39,15.39,0,0,1-4.79,0C378.61,640.52,375.57,640,373.75,638.71Z"/><path class="cls-7" d="M491.64,848.9a4.54,4.54,0,0,1,2.55-6.63A4.61,4.61,0,0,1,500,845a4.73,4.73,0,0,1-1.5,5.93C496.06,852.65,493,851.51,491.64,848.9Z"/><path class="cls-7" d="M492,791.49a3,3,0,0,1,1.34,1.22c1.09,1.87-.1,4-1.82,4.91-2.13,1.15-4.87.64-7-.16a12.79,12.79,0,0,1,.76-2.81,5.74,5.74,0,0,1,1.54-2.22A5.27,5.27,0,0,1,492,791.49Z"/><path class="cls-7" d="M377.72,649.43a3.9,3.9,0,0,1,.19-.35c1.54-2.52,5.95-2.08,8.34-1.3-.33,4.18-3,7.15-5.86,6.84C378,654.36,376.77,651.52,377.72,649.43Z"/><path class="cls-7" d="M417.16,635.42a3.54,3.54,0,0,1-1,1.83,7.18,7.18,0,0,1-4.34,2,11,11,0,0,1-4.48-1.2,9.3,9.3,0,0,1,.48-1.52,8.36,8.36,0,0,1,.74-1.5C410.38,632.2,418.43,629.53,417.16,635.42Z"/><path class="cls-7" d="M401.57,652.69c0-.18,5,2.59,5.55,3.34,1,1.46,1.39,4,.13,5.41a3,3,0,0,1-4.33.1,6.5,6.5,0,0,1-1.82-3.42C400.8,656.55,401.35,654.81,401.57,652.69Z"/><path class="cls-7" d="M392.07,632.49a6.89,6.89,0,0,1-5.84-4.19,3.46,3.46,0,0,1,1.54-4.86,3.54,3.54,0,0,1,4.76,1.9C393.5,627.68,393.78,630.11,392.07,632.49Z"/><path class="cls-7" d="M463.48,807.38a19.64,19.64,0,0,1-1.52,3.4,5.82,5.82,0,0,1-2.21,2.22,4.7,4.7,0,0,1-4.33-.37c-1.46-.75-1.12-3.37-.48-4.54a3.86,3.86,0,0,1,3.5-1.85A13.71,13.71,0,0,1,463.48,807.38Z"/><path class="cls-7" d="M469.09,791.67c-3.48-.62-5.69-2.37-6.35-5.52a3,3,0,0,1,.73-2.81c2.42-2.58,5.86-.94,6.44,2.29C470,786.15,469.68,791.77,469.09,791.67Z"/><path class="cls-7" d="M484.48,820a2.84,2.84,0,0,1-.56.73,3.18,3.18,0,0,1-4.54-.24c-2.15-2.45-2.08-5.28-.67-8.1.46-.93,4.85,1.9,5.28,2.52A5.31,5.31,0,0,1,484.48,820Z"/><circle class="cls-7" cx="431.41" cy="626.51" r="2.38"/><circle class="cls-7" cx="362.16" cy="659.97" r="2.38"/><circle class="cls-7" cx="509.23" cy="786.2" r="1.91"/><circle class="cls-7" cx="438.83" cy="819.82" r="1.91"/><path class="cls-7" d="M315.32,486.29a5.9,5.9,0,1,0,10.49-5.39,5.89,5.89,0,0,0-7.14-2.81C315.64,479.2,313.77,483.34,315.32,486.29Z"/><path class="cls-7" d="M301.15,445c-.66,5.29.58,9.52,2.31,13.58a4.17,4.17,0,0,0,5.45,2.48c2-.87,2.75-3.13,1.63-5.65A22.18,22.18,0,0,0,301.15,445Z"/><path class="cls-7" d="M293.84,440.58a4.54,4.54,0,0,0,6.81,2,4.6,4.6,0,0,0,1.4-6.25,4.71,4.71,0,0,0-5.61-2.42C293.56,434.79,292.59,437.93,293.84,440.58Z"/><path class="cls-7" d="M339.6,475.26a3,3,0,0,0-.15-1.81c-.82-2-3.22-2.35-5-1.55-2.21,1-3.48,3.47-4.15,5.66a11.91,11.91,0,0,0,2.69,1.11,5.87,5.87,0,0,0,2.7.14A5.28,5.28,0,0,0,339.6,475.26Z"/><path class="cls-7" d="M309.61,488.21a18.51,18.51,0,0,0-3.62-.87,5.86,5.86,0,0,0-3.1.4,4.68,4.68,0,0,0-2.34,3.66c-.3,1.61,2,2.94,3.3,3.15a3.87,3.87,0,0,0,3.6-1.66A13.42,13.42,0,0,0,309.61,488.21Z"/><path class="cls-7" d="M325.5,493.33c-1.64,3.13-1.59,5.95.5,8.4a3,3,0,0,0,2.68,1.14c3.51-.36,4.31-4.09,2.1-6.52C330.43,496,325.77,492.79,325.5,493.33Z"/><path class="cls-7" d="M312.39,463.85a2.9,2.9,0,0,0-.93,0,3.19,3.19,0,0,0-2.57,3.75c.63,3.19,2.92,4.86,6,5.47,1,.2,1.44-5,1.21-5.73A5.31,5.31,0,0,0,312.39,463.85Z"/><circle class="cls-7" cx="354.78" cy="466.4" r="1.91"/><circle class="cls-7" cx="284.74" cy="500.18" r="1.91"/><rect class="cls-5" x="748.65" y="208.66" width="216.21" height="567.86" rx="31.74" transform="matrix(0.99, -0.17, 0.17, 0.99, -71.71, 154.04)"/><rect class="cls-6" x="774.32" y="230.31" width="162.9" height="521.63" rx="26.45" transform="translate(-71.48 153.85) rotate(-9.86)"/><path class="cls-2" d="M914,375h47.58a0,0,0,0,1,0,0V559.13a0,0,0,0,1,0,0H914a9.8,9.8,0,0,1-9.8-9.8V384.77A9.8,9.8,0,0,1,914,375Z" transform="translate(-66.22 166.71) rotate(-9.86)"/><path class="cls-7" d="M805.14,271.73l2.11,4.34a10.52,10.52,0,0,1-1.11,1.29c-12.5,9.82-14.51,22.41-10.44,37,4.17,15,11.78,28.09,20.64,40.54,10.3,14.46,21.23,28.47,31.62,42.87a249.37,249.37,0,0,1,22.71,37.57c.63,1.3,1.11,2.66,1.83,4.39l-6.36,2.72c-.85-1.36-1.54-2.3-2.06-3.33-8.9-18-20-34.57-31.9-50.65-11.19-15.1-22.67-30-32.37-46.13-6.86-11.42-11.9-23.49-13.36-36.86C785,291.9,792.32,278.31,805.14,271.73Z"/><path class="cls-7" d="M906.76,711.51l-2.25-4.85c.89-.77,1.53-1.37,2.21-1.91,8.83-7.11,12.35-16.43,11-27.52a76.07,76.07,0,0,0-8.17-25.68c-9.27-18.16-21.5-34.33-33.9-50.39-12.58-16.31-24.47-33.08-33.75-51.55-.8-1.58-1.53-3.2-2.26-4.82a4.17,4.17,0,0,1,0-1.25c.86-.42,1.86-.93,2.89-1.38s1.91-.75,3.09-1.21a10.6,10.6,0,0,1,1.63,2c9.5,19.35,21.73,37,34.35,54.34q14.61,20.12,28.57,40.68a92.88,92.88,0,0,1,13.92,32c3.44,15.36.07,28.46-12.6,38.51C910.25,709.42,908.81,710.18,906.76,711.51Z"/><path class="cls-7" d="M850.71,668.8l-3.74-.07a14.8,14.8,0,0,1-.34-1.94c-.52-15.68,2.4-30.93,5.92-46.09,1.88-8.06,4-16.07,6.11-24.28-19.16-28.31-35-58.19-41.76-92.52l4.08-1.12c7.2,34.62,25.42,63.63,45,92.39-1.34,4.84-2.65,9.83-4.09,14.78-4.23,14.49-8.39,29-10.16,44.06C851.16,658.69,851.06,663.43,850.71,668.8Z"/><path class="cls-7" d="M821.82,392.11c-14-20.16-28.5-39.5-36.43-63.15l3.71-2.15c9,24.42,25.47,43.61,40,63.94-8.21,33.58-15.2,67-9.9,102l-4.15,1C809.37,459.08,813.72,425.56,821.82,392.11Z"/><path class="cls-7" d="M882.84,592c1.3-5.8,2.6-11.56,3.9-17.32,4.34-19.23,7.71-38.62,7.58-58.42,0-6.93-.79-13.86-1.26-20.79-.11-1.61-.4-3.2-.64-5.11l3.81-1.24a67.23,67.23,0,0,1,2.12,12.82c2.57,28.77-.84,57-7.4,85-.26,1.14-.5,2.3-.83,3.82,1.45,2.16,2.94,4.52,4.56,6.79,10.11,14.26,19.86,28.74,27,44.77,1.73,3.87,3.15,7.88,4.85,12.17l-4,1.29c-.73-1.78-1.37-3.24-1.93-4.73-5-13.18-13.16-24.45-21.22-35.79-4.63-6.52-9.39-12.94-14.08-19.41C884.51,594.61,883.75,593.36,882.84,592Z"/><path class="cls-7" d="M853.19,386.46C872.27,415,888,444.81,894.76,479l-4.09,1.28c-7-34.72-25.26-63.69-44.89-92.61,1.78-6.28,3.56-12.82,5.5-19.31,4.07-13.64,7.65-27.38,9.1-41.57.4-3.95.43-7.94.66-12.46l3.92-.19C866,339.24,859.18,362.59,853.19,386.46Z"/><path class="cls-7" d="M826.23,272.72l.73-4.91c5.56.32,10.07,2.46,14.29,5.2,10.33,6.71,14.91,16.71,16.37,28.62,1.86,15.11-.45,29.82-4,44.38-2.62,10.78-5.83,21.41-8.8,32.09-.19.69-.52,1.34-1,2.65l-5.64-6.31c1.21-4.19,2.39-8.28,3.56-12.38,3.83-13.38,7.42-26.79,8.68-40.73a89.87,89.87,0,0,0-.5-20.8c-1.89-13.31-8.54-22.79-21.8-26.92A16.5,16.5,0,0,1,826.23,272.72Z"/><path class="cls-7" d="M868,602l5.58,6.65c-2.4,8.54-4.79,16.77-7,25-3.3,12.16-5.87,24.49-5.45,37.15.21,6.31.72,12.81,2.49,18.8,2.89,9.77,9.61,16.46,19.59,19.49.56.17,1.1.43,1.64.65a6.3,6.3,0,0,1,.64.46c0,.64.07,1.49,0,2.32a23.63,23.63,0,0,1-.48,2.41,16.22,16.22,0,0,1-3-.16c-13.7-3.36-22.62-11.78-26.24-25.45-2.68-10.13-2.65-20.46-1.42-30.82a234.39,234.39,0,0,1,8.76-40.24C864.58,613.17,866.14,608.1,868,602Z"/><path class="cls-7" d="M840.72,528.32,834,532a162.38,162.38,0,0,1-12.87-70.55l7.53.92A171.5,171.5,0,0,0,840.72,528.32Z"/><path class="cls-7" d="M882.89,520.7a159.87,159.87,0,0,0-11.54-65.39,12,12,0,0,1,1.6-1.42c1.4-.8,2.84-1.53,4.87-2.6,9.63,22.41,13.57,45.51,12.8,70.2Z"/><path class="cls-7" d="M832.54,395.82l4.93,7.14c-3,15.6-5.82,30.5-8.76,46l-6-.15C821.22,442.51,828.2,404.45,832.54,395.82Z"/><path class="cls-7" d="M879.4,587.2l-5-7c2.95-15.56,5.78-30.49,8.72-46l5.77.18C890.49,540.41,884.23,575.53,879.4,587.2Z"/><path class="cls-7" d="M835.82,361.12l-2.22,7.07c-10.94-12.66-21.05-25-29-39.37,1.44-.64,2.32-1.1,3.24-1.43s1.69-.45,2.44-.64Z"/><path class="cls-7" d="M907.44,654.4l-5.82,1.87L876,622.08c.56-1.91,1.24-4.24,2.15-7.37C889.2,627.38,899,640,907.44,654.4Z"/><path class="cls-7" d="M868.28,462.26l-4.11.74L840.7,417.39l-.71.21,1.4-6.44C852.38,427.77,862,443.92,868.28,462.26Z"/><path class="cls-7" d="M843.5,520.73l4.35-1.1c3.79,7.89,7.3,15.67,11.22,23.25s8.27,15,12.71,23l-1,4.47-1,.23C859.07,555.14,850,538.85,843.5,520.73Z"/><path class="cls-7" d="M874.44,625.34l4.89,6.07c-2.83,10.15-5.57,20-8.47,30.34l-5.94,0C865.87,649.13,870.82,638,874.44,625.34Z"/><path class="cls-7" d="M840.85,321.27l6.2-.48c-1.31,12.7-6,24.23-9.84,36.8l-4.71-5.95Z"/><path class="cls-7" d="M873,515.34l3.85-.7c2.21,6-1.43,39.82-5.09,46.64l-3-4.39c.87-7,1.84-13.84,2.54-20.72S872.49,522.41,873,515.34Z"/><path class="cls-7" d="M839.2,421c2.49,2.68,4,4.83,3.58,8-1.6,12.73-3.06,25.48-4.63,38.66l-4,.72C833.75,452.45,836.05,437.06,839.2,421Z"/><path class="cls-7" d="M805.14,313.47l-5.37,2.27c-7-11.06-1.82-31.31,9.51-36.4l1.15,2.74C801.15,291.21,802.39,302.12,805.14,313.47Z"/><path class="cls-7" d="M906.94,669.25,912,667.1c6.79,11.09,2.3,29.35-9.2,36.7l-1.63-2.57C909.22,691.05,909.37,690.17,906.94,669.25Z"/><path class="cls-7" d="M841.35,307c-1.31-11.62-4.38-22-16.2-27.63l.4-3c12.75,1.66,23.25,16.75,21.74,31Z"/><path class="cls-7" d="M864,675.73l6.39.32c1.59,11.16,4,22,15.88,27.43l.27,3.1c-3.38.21-6-1.14-8.45-2.71C868.17,697.36,865,687.4,864,675.73Z"/><path class="cls-7" d="M786.91,319.07l-3.45.63c-7.74-20.54,1.83-44.1,19-51.55l1.16,1.74c-8,5.35-14.29,12-17.21,21.23S784.14,309.44,786.91,319.07Z"/><path class="cls-7" d="M847.86,677.85l3.35-.61a20.59,20.59,0,0,1,.51,2.23c1,8.83,3.63,17,9.2,24a36,36,0,0,0,19.74,12.73c1.12.29,2.22.67,3.57,1.08l-.22,2.08C868.42,718.8,849,703.67,847.86,677.85Z"/><path class="cls-7" d="M863.67,305.39l-3.15.3c-.58-3.24-1-6.28-1.69-9.27-2-8.91-6.17-16.56-13.32-22.45a37.38,37.38,0,0,0-13.68-7.07c-1.41-.4-2.82-.82-4.4-1.28l.55-2.14C846.51,264.71,863.61,282.77,863.67,305.39Z"/><path class="cls-7" d="M925.07,663.93l3.55-.64a49.91,49.91,0,0,1,2.15,20c-1.63,14-9.15,25.36-21.11,31.62l-1.7-1.84C926.57,701.34,930.23,684.31,925.07,663.93Z"/><path class="cls-7" d="M858.67,385.91c1.52-6,3-11.85,4.49-17.68,2.41,5.45,1.44,11,.85,16.78,2.9,5.42,5.58,11.14,5.27,18q-2.52-4-5-8.11Z"/><path class="cls-7" d="M842.47,580,853,597c-1.48,6-3,12.08-4.74,19.13-2.19-6.72-.83-12.53-.53-18.38C844.88,592.32,842.29,586.71,842.47,580Z"/><path class="cls-7" d="M899.36,569.7c2.7,6.17,2.22,12.42,1.34,18.67,2.49,5.09,5.29,10,5.17,16.15L895.4,589.44Q897.38,579.59,899.36,569.7Z"/><path class="cls-7" d="M816.33,393.49c-1.4,7-2.68,13.4-4.09,20.41-2.13-5.31-2.32-9.38-1.1-19.45-2.47-5-5.41-10-5.36-16.24Z"/><path class="cls-7" d="M855.26,485.72a6.11,6.11,0,0,1,6.75,4.95,6,6,0,0,1-5.1,6.61,5.88,5.88,0,0,1-6.72-4.92A6,6,0,0,1,855.26,485.72Z"/><path class="cls-7" d="M881.6,665.71a5.89,5.89,0,1,1,11.62-2,5.88,5.88,0,0,1-4,6.53C886.11,671.19,882.13,669,881.6,665.71Z"/><path class="cls-7" d="M851.38,467.28c-2.66.15-4-1.37-4.69-3.73-1.08-3.6-.43-9.35,1.75-13.54a22.48,22.48,0,0,1,6,13C854.68,465.07,853.5,466.6,851.38,467.28Z"/><path class="cls-7" d="M863.62,497a19.15,19.15,0,0,1,12,3.42c1.43.94,2.79,2.12,2.69,4a4.24,4.24,0,0,1-4.95,3.67c-2.29-.49-4.34-2.77-5.77-4.49C867.05,502.94,863.76,496.94,863.62,497Z"/><path class="cls-7" d="M868.57,469.68a3.2,3.2,0,0,1,2.44.57c2.43,1.6,1.67,4.27.31,6.26a23.49,23.49,0,0,1-9.48,7.77c-.92-2.63-.31-5.62.79-8.09a16.48,16.48,0,0,1,2.43-3.94A6.64,6.64,0,0,1,868.57,469.68Z"/><path class="cls-7" d="M851.43,498.64a29.93,29.93,0,0,1-2.51,9.62,17.75,17.75,0,0,1-2.57,4c-1.05,1.2-2.42,2.12-4.09,1.69a3.57,3.57,0,0,1-2.06-1.51c-1.14-1.72-.53-3.8.53-5.43A19.91,19.91,0,0,1,851.43,498.64Z"/><path class="cls-7" d="M895.09,707.24c-3.71-3.82-5.26-8-6.31-12.24a4.16,4.16,0,0,1,2.86-5.25c2.14-.52,4.08.84,4.7,3.54A22.15,22.15,0,0,1,895.09,707.24Z"/><path class="cls-7" d="M863.52,533.6c-3.69-5.24-6.65-9.71-6-15.35,1.25-2,2.66-2.82,4.66-2.29s2.59,2.17,2.94,4A22.38,22.38,0,0,1,863.52,533.6Z"/><path class="cls-7" d="M834.69,481.05a3.37,3.37,0,0,1,.12-4.62c4.73-6,12.32,6.41,14.31,9.46,0,0-3.48.3-3.85.26a15.52,15.52,0,0,1-4.61-1.28C838.88,484.09,836.09,482.81,834.69,481.05Z"/><path class="cls-7" d="M891.88,715.16A4.63,4.63,0,1,1,901,713.6a4.71,4.71,0,0,1-3,5.31C895.14,720,892.48,718,891.88,715.16Z"/><path class="cls-7" d="M907.64,660a2.92,2.92,0,0,1,1,1.53c.55,2.1-1.16,3.82-3.07,4.25-2.36.53-4.86-.69-6.72-2a12.41,12.41,0,0,1,1.49-2.5,5.77,5.77,0,0,1,2.07-1.73A5.25,5.25,0,0,1,907.64,660Z"/><path class="cls-7" d="M835.63,492.44a3.83,3.83,0,0,1,.28-.29c2.16-2,6.29-.4,8.39,1-1.44,3.93-4.79,6.09-7.48,5C834.57,497.26,834.16,494.2,835.63,492.44Z"/><path class="cls-7" d="M877.39,489.52a3.62,3.62,0,0,1-1.45,1.5,7.21,7.21,0,0,1-4.72.79,11.33,11.33,0,0,1-4-2.35,9.68,9.68,0,0,1,.87-1.34,8.85,8.85,0,0,1,1.12-1.25C871.72,484.59,880.19,484.19,877.39,489.52Z"/><path class="cls-7" d="M857.74,502c.07-.17,4.14,3.84,4.44,4.7.59,1.68.27,4.23-1.32,5.25a3,3,0,0,1-4.2-1.07,6.54,6.54,0,0,1-.83-3.78C856,505.49,857,504,857.74,502Z"/><path class="cls-7" d="M854,480a6.85,6.85,0,0,1-4.51-5.59,3.45,3.45,0,0,1,2.79-4.27,3.53,3.53,0,0,1,4.07,3.11C856.67,475.72,856.28,478.13,854,480Z"/><path class="cls-7" d="M875.89,667.6a18.72,18.72,0,0,1-2.37,2.87,5.89,5.89,0,0,1-2.73,1.55,4.76,4.76,0,0,1-4.07-1.52c-1.21-1.11-.18-3.54.75-4.5a3.86,3.86,0,0,1,3.87-.84A13.46,13.46,0,0,1,875.89,667.6Z"/><path class="cls-7" d="M885.51,654c-3.18-1.53-4.84-3.8-4.64-7a3,3,0,0,1,1.46-2.51c3-1.83,5.9.67,5.59,3.94C887.87,648.91,886.05,654.23,885.51,654Z"/><path class="cls-7" d="M892.73,685.41a3,3,0,0,1-.74.56,3.19,3.19,0,0,1-4.31-1.46c-1.41-2.93-.58-5.63,1.53-8,.7-.77,4.16,3.14,4.42,3.85A5.3,5.3,0,0,1,892.73,685.41Z"/><circle class="cls-7" cx="893.5" cy="484.76" r="2.38"/><circle class="cls-7" cx="817.82" cy="498.42" r="2.38"/><circle class="cls-7" cx="925.64" cy="659.47" r="1.91"/><circle class="cls-7" cx="848.81" cy="672.98" r="1.91"/><path class="cls-7" d="M819.27,318.54a5.9,5.9,0,1,0,11.55-2.38,5.88,5.88,0,0,0-6.12-4.62C821.48,311.8,818.57,315.28,819.27,318.54Z"/><path class="cls-7" d="M816.71,275c-2.07,4.91-2,9.32-1.42,13.69a4.17,4.17,0,0,0,4.58,3.86c2.18-.3,3.49-2.28,3.08-5A22.16,22.16,0,0,0,816.71,275Z"/><path class="cls-7" d="M810.84,268.75a4.54,4.54,0,0,0,6,3.76,4.6,4.6,0,0,0,3-5.64,4.73,4.73,0,0,0-4.76-3.84C812.13,263.09,810.35,265.85,810.84,268.75Z"/><path class="cls-7" d="M845.62,314.42a3,3,0,0,0,.34-1.78c-.25-2.15-2.47-3.13-4.4-2.84-2.39.37-4.28,2.42-5.52,4.35a13,13,0,0,0,2.3,1.79,5.86,5.86,0,0,0,2.56.86A5.27,5.27,0,0,0,845.62,314.42Z"/><path class="cls-7" d="M813.26,318.86a18.2,18.2,0,0,0-3.25-1.81,5.92,5.92,0,0,0-3.1-.45,4.73,4.73,0,0,0-3.24,2.9c-.72,1.48,1.12,3.37,2.34,3.92a3.85,3.85,0,0,0,3.91-.63A13.44,13.44,0,0,0,813.26,318.86Z"/><path class="cls-7" d="M827.19,328.05c-2.41,2.58-3.13,5.31-1.77,8.23a3,3,0,0,0,2.27,1.81c3.49.6,5.25-2.78,3.78-5.71C831.23,331.91,827.6,327.61,827.19,328.05Z"/><path class="cls-7" d="M822.47,296.14a2.81,2.81,0,0,0-.9-.25,3.19,3.19,0,0,0-3.48,2.92c-.25,3.25,1.51,5.47,4.33,6.88.93.47,2.73-4.44,2.71-5.19A5.31,5.31,0,0,0,822.47,296.14Z"/><circle class="cls-7" cx="862.63" cy="309.96" r="1.91"/><circle class="cls-7" cx="786.08" cy="323.72" r="1.91"/><circle class="cls-3" cx="914.79" cy="421.91" r="5.63"/><circle class="cls-3" cx="938.82" cy="417.73" r="5.63"/><circle class="cls-3" cx="920.29" cy="453.58" r="5.63"/><circle class="cls-3" cx="944.32" cy="449.4" r="5.63"/><circle class="cls-3" cx="925.8" cy="485.25" r="5.63"/><circle class="cls-3" cx="949.83" cy="481.07" r="5.63"/><circle class="cls-3" cx="931.3" cy="516.92" r="5.63"/><circle class="cls-3" cx="955.34" cy="512.74" r="5.63"/><rect class="cls-8" x="384.89" y="262.07" width="276.31" height="36.17" transform="matrix(1, -0.1, 0.1, 1, -24.96, 52.66)"/><circle class="cls-9" cx="566.26" cy="273.68" r="3.92"/><circle class="cls-9" cx="482.45" cy="281.94" r="3.92"/><circle class="cls-9" cx="600.2" cy="270.33" r="3.92"/><circle class="cls-9" cx="443.8" cy="285.75" r="3.92"/><circle class="cls-9" cx="524.08" cy="277.84" r="6.91"/><path class="cls-10" d="M773,332.14l-66.66-8.5a26,26,0,0,1-16-8.32,256.2,256.2,0,0,0-22.62-22c-2.51-2.16-19.13-16.34-38.35-27.26-15.45-8.79-52.67-30-101.64-27.25-52.6,2.9-88.24,31.64-104.66,44.88A218.06,218.06,0,0,0,373.19,341a25.78,25.78,0,0,1-7.88,8.22A201.26,201.26,0,0,1,342,362.57a203.78,203.78,0,0,1-52.81,17.26,220,220,0,0,1,39.32-184.7,264.68,264.68,0,0,1,174-100.53,239.45,239.45,0,0,1,195.16,65.14A214.38,214.38,0,0,1,773,332.14Z"/><path class="cls-11" d="M830.72,389.43c-10.44-.92-18.53-9.7-23.36-19s-7.53-19.68-13.18-28.51a33.37,33.37,0,0,0-14-12.63,19.61,19.61,0,0,0-8.9-1.94c-7.24.43,1.12,5.79,3,8.68a49.29,49.29,0,0,1,6.6,17.34c1.85,9.59,1.74,19.52,4.24,29s8.4,18.84,17.74,21.71"/><path class="cls-11" d="M842.35,351.79c-8.83,2.7-18.38-1.22-25.92-6.56s-14.06-12.17-22.22-16.5-19-5.61-26.14.21c4.84,12.34,3.11,24.68,3.93,37.91q1.14,18.19,2.26,36.41"/><path class="cls-11" d="M766.31,327.62c8.73.94,16,7.42,20.63,14.89s7.14,16,10.49,24.12,7.84,16.19,15.11,21.11"/><path class="cls-11" d="M243.87,445.48c10.06-2.94,16.28-13.13,19.2-23.2s3.54-20.77,7.36-30.53a33.44,33.44,0,0,1,11.29-15.13,19.68,19.68,0,0,1,8.35-3.64c7.19-1,0,5.9-1.23,9.11a49.33,49.33,0,0,0-3.09,18.29c.06,9.76,2.1,19.48,1.5,29.23s-4.57,20.12-13.17,24.75"/><path class="cls-11" d="M225.11,410.84c9.19.92,17.8-4.79,24.15-11.5s11.4-14.68,18.56-20.52,17.51-9.21,25.68-4.9c-2.33,13.05,1.77,24.81,3.55,37.95L301.94,448"/><path class="cls-11" d="M295,372.29c-8.38,2.62-14.25,10.4-17.32,18.62s-3.89,17.09-5.59,25.71-4.52,17.41-10.69,23.66"/><path class="cls-8" d="M773,332.14l-22.38-2.82c-.76-13.74-6.34-91.48-73-149.51-67.84-59.06-147.32-52.75-160.77-51.46-12.41.35-104.62,4.56-165.55,83.63C297,282.42,307,361,309.12,375.16l-20,4.67a220.43,220.43,0,0,1-4.17-79.1c7.6-58.44,36.93-97.05,48.34-111.68C393.49,111.89,483.68,97.2,506.1,94.19c12.48-1,134.57-8.46,212.8,86.34C768.91,241.14,772.69,309.27,773,332.14Z"/><circle class="cls-9" cx="759.38" cy="297.23" r="3.92"/><circle class="cls-9" cx="292.11" cy="343.29" r="3.92"/><circle class="cls-9" cx="741.26" cy="238.76" r="3.92"/><circle class="cls-9" cx="300.89" cy="282.17" r="3.92"/><circle class="cls-9" cx="683.1" cy="164.33" r="3.92"/><circle class="cls-9" cx="342.9" cy="197.87" r="3.92"/><circle class="cls-9" cx="596.35" cy="119.62" r="6.91"/><circle class="cls-9" cx="507.81" cy="111.56" r="6.91"/><circle class="cls-9" cx="422.29" cy="136.78" r="6.91"/><path class="cls-9" d="M379.3,237.13c4.95-9.69,17.47-4.81,17,5.34a9.59,9.59,0,0,1-2.2,5.91c-3.91,4.43-11.94,2.09-14.56-2.62A8.94,8.94,0,0,1,379.3,237.13Z"/><path class="cls-9" d="M409,257a19.5,19.5,0,0,1-6.42,7.31,20,20,0,0,1-4.52,2.3,8.89,8.89,0,0,1-2.42.67c-1.05,0-.76-2.24-.76-2.7,0-.88,0-1.77.08-2.65a12.11,12.11,0,0,1,.8-3.81,6,6,0,0,1,5-3.4,18.07,18.07,0,0,1,7.25.37,1.66,1.66,0,0,1,1.18.9.74.74,0,0,1-.06.72C409.08,256.79,409,256.88,409,257Z"/><path class="cls-9" d="M410.33,230.88a19.44,19.44,0,0,1,3.06,9.25,19.87,19.87,0,0,1-.29,5.05,9.09,9.09,0,0,1-.65,2.43c-.5.93-2.31-.48-2.71-.71-.77-.44-1.52-.9-2.25-1.41a12.15,12.15,0,0,1-2.88-2.61c-1.37-1.85-1.23-4-.41-6a18.61,18.61,0,0,1,4-6.08,1.69,1.69,0,0,1,1.38-.55.72.72,0,0,1,.59.41Z"/><path class="cls-9" d="M389.36,215.11a19.46,19.46,0,0,1,9.43,2.44,20,20,0,0,1,4.09,3,9,9,0,0,1,1.69,1.86c.51.92-1.66,1.69-2.07,1.89-.79.41-1.59.79-2.41,1.13a11.91,11.91,0,0,1-3.75,1c-2.3.15-4-1.12-5.3-2.93a18.35,18.35,0,0,1-2.94-6.64,1.69,1.69,0,0,1,.28-1.46.7.7,0,0,1,.66-.27Z"/><path class="cls-9" d="M368.81,260.61a19.44,19.44,0,0,0,7.74,5.92,20,20,0,0,0,4.87,1.38,8.84,8.84,0,0,0,2.51.18c1-.16.3-2.34.22-2.79-.17-.87-.36-1.74-.6-2.59a12,12,0,0,0-1.53-3.58c-1.3-1.89-3.36-2.47-5.58-2.36a18.25,18.25,0,0,0-7,1.78,1.65,1.65,0,0,0-1,1.12.7.7,0,0,0,.19.69Z"/><path class="cls-9" d="M362.39,235.29a19.72,19.72,0,0,0,.09,14.56,8.93,8.93,0,0,0,1.1,2.26c.67.81,2.18-.92,2.53-1.23.66-.58,1.31-1.19,1.93-1.82a12.26,12.26,0,0,0,2.31-3.13c1-2.08.43-4.15-.78-6a18.24,18.24,0,0,0-5.1-5.18,1.67,1.67,0,0,0-1.46-.28c-.31.11-.38.25-.5.52Z"/><path class="cls-9" d="M379.88,215.72a19.71,19.71,0,0,0-12.19,8,8.94,8.94,0,0,0-1.3,2.15c-.32,1,2,1.33,2.4,1.46.85.24,1.71.46,2.58.63a12.06,12.06,0,0,0,3.88.25c2.28-.31,3.72-1.89,4.62-3.91a18.35,18.35,0,0,0,1.59-7.09,1.7,1.7,0,0,0-.56-1.38.73.73,0,0,0-.71-.13Z"/><path class="cls-9" d="M638.51,211.42c5-9.69,17.47-4.81,17,5.34a9.54,9.54,0,0,1-2.2,5.9c-3.91,4.43-11.94,2.1-14.56-2.62A8.92,8.92,0,0,1,638.51,211.42Z"/><path class="cls-9" d="M668.19,231.26a19.45,19.45,0,0,1-6.42,7.32,20,20,0,0,1-4.52,2.3,8.89,8.89,0,0,1-2.42.67c-1.05,0-.76-2.24-.76-2.7,0-.89,0-1.77.08-2.66a12.11,12.11,0,0,1,.8-3.8c.91-2.12,2.82-3.08,5-3.41a18.43,18.43,0,0,1,7.25.37,1.69,1.69,0,0,1,1.18.91.74.74,0,0,1-.06.72Z"/><path class="cls-9" d="M669.54,205.17a19.4,19.4,0,0,1,3.06,9.24,20,20,0,0,1-.29,5.06,9.09,9.09,0,0,1-.65,2.43c-.5.93-2.31-.48-2.71-.71q-1.16-.66-2.25-1.41a12,12,0,0,1-2.88-2.62c-1.37-1.85-1.23-4-.41-6a18.46,18.46,0,0,1,4-6.07,1.7,1.7,0,0,1,1.38-.56.75.75,0,0,1,.59.42A2.33,2.33,0,0,1,669.54,205.17Z"/><path class="cls-9" d="M648.57,189.4a19.74,19.74,0,0,1,13.52,5.43,9,9,0,0,1,1.69,1.86c.51.92-1.66,1.68-2.07,1.89-.79.4-1.59.79-2.41,1.13a11.91,11.91,0,0,1-3.75,1c-2.3.15-4-1.13-5.3-2.93a18.47,18.47,0,0,1-2.94-6.65,1.67,1.67,0,0,1,.28-1.45.73.73,0,0,1,.66-.28Z"/><path class="cls-9" d="M628,234.9a19.48,19.48,0,0,0,7.73,5.92,19.69,19.69,0,0,0,4.88,1.37,9.22,9.22,0,0,0,2.51.19c1-.17.3-2.35.22-2.8-.17-.87-.36-1.73-.6-2.59a12.16,12.16,0,0,0-1.53-3.57c-1.3-1.9-3.36-2.47-5.58-2.36a18.25,18.25,0,0,0-7,1.78,1.63,1.63,0,0,0-1,1.11.72.72,0,0,0,.19.7C627.9,234.73,628,234.82,628,234.9Z"/><path class="cls-9" d="M621.6,209.57a19.74,19.74,0,0,0,.09,14.57,8.71,8.71,0,0,0,1.1,2.25c.67.82,2.18-.92,2.53-1.22.66-.59,1.31-1.19,1.93-1.83a12.21,12.21,0,0,0,2.31-3.12c1-2.08.43-4.15-.78-6a18.33,18.33,0,0,0-5.1-5.17,1.67,1.67,0,0,0-1.46-.28c-.31.11-.38.25-.5.52Z"/><path class="cls-9" d="M639.09,190a19.46,19.46,0,0,0-8.77,4.23A19.85,19.85,0,0,0,626.9,198a9,9,0,0,0-1.3,2.16c-.32,1,2,1.33,2.4,1.45.85.24,1.71.46,2.58.64a12.06,12.06,0,0,0,3.88.25c2.28-.31,3.72-1.89,4.62-3.92a18.26,18.26,0,0,0,1.59-7.08,1.7,1.7,0,0,0-.56-1.38.73.73,0,0,0-.71-.14Z"/><path class="cls-9" d="M521.1,159.73c-2.38,4.78-4,8-6.5,13L505,161.89c2.3-4.45,4.19-8.09,6.74-13Z"/><path class="cls-9" d="M539.62,175.28l13.12,7.17c-4.37,3.45-7.59,6-11.21,8.82l-12.94-6Z"/><path class="cls-9" d="M491.12,196.46l-13.49-6.15,11.71-9.46,13.61,6.2Z"/><path class="cls-9" d="M516.42,198.09l9.39,12.58c-2.06,4.12-4,8.09-6.68,13.36l-8.54-11.55Z"/><path class="cls-9" d="M498.65,167.67l8.76,9-2,2.31-10.17-7.77Q496.93,169.44,498.65,167.67Z"/><path class="cls-9" d="M523,175.26l8-11c1.12,2.95,2.33,4.89,1.93,5.31-2.57,2.73-5.48,5.12-8.28,7.63Z"/><path class="cls-9" d="M496.61,201.85l8.17-9.46,3.55,2.68q-3.43,5.35-6.86,10.7Z"/><path class="cls-9" d="M532.73,203.61l-7.93-7.18,2.07-2.38,8.43,6.62Z"/><circle class="cls-9" cx="516.16" cy="185.68" r="2.57"/><circle class="cls-9" cx="492.74" cy="213.53" r="2.57"/><circle class="cls-9" cx="543.1" cy="208.56" r="2.57"/><circle class="cls-9" cx="488.02" cy="163.29" r="2.57"/><circle class="cls-9" cx="538.38" cy="158.33" r="2.57"/></svg>