<svg id="Camada_1" data-name="Camada 1" xmlns="http://www.w3.org/2000/svg" xmlns:xlink="http://www.w3.org/1999/xlink" viewBox="0 0 1080 1080"><defs><style>.cls-1{fill:#603d14;}.cls-2{clip-path:url(#clip-path);}.cls-3{fill:#4a2f13;}.cls-4{fill:#7a5421;}.cls-5{clip-path:url(#clip-path-2);}.cls-6{clip-path:url(#clip-path-3);}.cls-7{clip-path:url(#clip-path-4);}.cls-8{fill:#f7a61f;}.cls-9{fill:#e85c0c;}</style><clipPath id="clip-path"><path class="cls-1" d="M266.69,837.51c57.54-20.28,231.94-69.62,245.6-73.48v51.71L282.69,962.92c-5.76,2.84-12.07,4.44-18.15,2.7-28.89-8.26-43.76-89.49-12.44-119.14A42,42,0,0,1,266.69,837.51Z"/></clipPath><clipPath id="clip-path-2"><path class="cls-1" d="M407,964.48l89.89-211.12h45.36l-22.67,249a62.52,62.52,0,0,1-18,36.38c-2.66,2.6-19.78,18.77-45.8,17.27-31.74-1.82-47.86-28.28-48.81-29.91C389.69,996.53,406.25,965.87,407,964.48Z"/></clipPath><clipPath id="clip-path-3"><path class="cls-1" d="M813.31,837.51c-57.54-20.28-231.94-69.62-245.6-73.48v51.71l229.6,147.18c5.76,2.84,12.07,4.44,18.15,2.7,28.89-8.26,43.76-89.49,12.44-119.14A42,42,0,0,0,813.31,837.51Z"/></clipPath><clipPath id="clip-path-4"><path class="cls-1" d="M670.77,964.48,580.88,753.36H535.52l22.67,249a62.55,62.55,0,0,0,18,36.38c2.66,2.6,19.78,18.77,45.8,17.27,31.74-1.82,47.86-28.28,48.81-29.91C688.11,996.53,671.55,965.87,670.77,964.48Z"/></clipPath></defs><path class="cls-1" d="M266.69,837.51c57.54-20.28,231.94-69.62,245.6-73.48v51.71L282.69,962.92c-5.76,2.84-12.07,4.44-18.15,2.7-28.89-8.26-43.76-89.49-12.44-119.14A42,42,0,0,1,266.69,837.51Z"/><g class="cls-2"><path class="cls-3" d="M228.54,941.73a71.13,71.13,0,0,0,12.11,16.66c14,14.38,30.4,16,49.09,18.2,14.53-2.65,27.74-9.4,41-16.27.43-.22.88-.36,1.31-.56l188.37-139-.68-15.43Z"/></g><ellipse class="cls-4" cx="269.08" cy="901.79" rx="39.94" ry="64.4"/><path class="cls-1" d="M259.34,847a25.85,25.85,0,0,1,7.91-1.43,24.39,24.39,0,0,1,4.08.22,14.58,14.58,0,0,1,4,1.1,27.36,27.36,0,0,1,6.75,4.82c2,1.75,4,3.5,6,5.42a27.72,27.72,0,0,1,2.7,3.12,25.87,25.87,0,0,1,2.1,3.55,31.43,31.43,0,0,1,2.75,7.69,38.61,38.61,0,0,1,.75,8,41.18,41.18,0,0,1-.77,7.95l-.47.05a62.63,62.63,0,0,1-2.48-7.5c-.71-2.48-1.33-4.93-2-7.32s-1.18-4.79-2-7.11-1.69-4.6-2.76-6.88a14.13,14.13,0,0,0-4.79-5.73c-2.11-1.44-4.66-1.86-7-2.26-1.19-.21-2.36-.44-3.55-.71s-2.4-.46-3.64-.69a55.53,55.53,0,0,1-7.63-1.8Z"/><path class="cls-1" d="M265,857.14a34.7,34.7,0,0,1,1.74,7.49,42.67,42.67,0,0,1,.28,7.75,45.58,45.58,0,0,1-1.08,7.71,36.17,36.17,0,0,1-2.48,7.4c-2.2,4.73-5.3,8.75-7.36,13.28s-3.27,9.5-2.58,14.23a18.23,18.23,0,0,0,2.22,6.5,13.22,13.22,0,0,0,4.32,4.69,9.82,9.82,0,0,0,5.75,1.41,8,8,0,0,0,5.06-2.09,8.31,8.31,0,0,0,2.32-5.14,13.7,13.7,0,0,0-.89-6.35,25.73,25.73,0,0,0-3.58-6.07c-1.49-1.94-3.18-3.8-4.81-5.75l.31-.36a46,46,0,0,1,6.27,4.43,23.29,23.29,0,0,1,5.18,6.1,16.25,16.25,0,0,1,2.14,8.25,12.31,12.31,0,0,1-3.31,8.46,11.93,11.93,0,0,1-8.53,3.5,14.06,14.06,0,0,1-8.47-2.68,15.75,15.75,0,0,1-5.21-6.75,19.63,19.63,0,0,1-1.38-8c.2-5.36,2-10.22,3.77-15s3.6-9.52,5.08-14.14c.73-2.31,1.43-4.62,2.06-6.95s1.11-4.71,1.51-7.11.67-4.82.87-7.28.27-5,.33-7.49Z"/><path class="cls-1" d="M272.4,890.89a19.72,19.72,0,0,1,6.87,5.77,24,24,0,0,1,2.42,3.85,17.49,17.49,0,0,1,1.56,4.27,43.34,43.34,0,0,1,.47,9c0,1.47,0,2.92,0,4.39s0,3-.09,4.45a29.91,29.91,0,0,1-.56,4.5,25.83,25.83,0,0,1-1.4,4.34,31,31,0,0,1-2,4.13A23.31,23.31,0,0,1,277,939.3a82.85,82.85,0,0,1-6.17,6,40.36,40.36,0,0,0-5.64,6.19l-.45-.16a18.24,18.24,0,0,1,3.2-8.42c1.61-2.54,3.48-4.74,5.14-6.89a49.87,49.87,0,0,0,4.58-6.54,65.36,65.36,0,0,0,3.46-7.41,17.56,17.56,0,0,0,1.11-8.24c-.3-2.81-1.6-5.39-2.72-7.84s-2.08-4.95-3.34-7.37-2.61-4.8-4.06-7.41Z"/><path class="cls-1" d="M257.75,864.2a16.39,16.39,0,0,1,1.12,7.6c-.05.64-.12,1.28-.21,1.91s-.21,1.26-.36,1.88a16.09,16.09,0,0,1-1.22,3.58c-1.09,2.29-2.71,4.29-3.78,6.48a29.43,29.43,0,0,0-2.38,6.93c-.28,1.19-.49,2.39-.78,3.56s-.59,2.31-.88,3.46c-.56,2.29-1,4.57-1.46,6.8s-.89,4.45-1.16,6.73a50.39,50.39,0,0,0-.24,7.14l-.44.17a16.15,16.15,0,0,1-3.06-7.13,23.49,23.49,0,0,1-.11-7.8,31.76,31.76,0,0,1,2.19-7.32,36.64,36.64,0,0,1,1.58-3.42c.59-1.1,1.29-2.15,1.95-3.21a28.7,28.7,0,0,0,3.37-6.5,50.55,50.55,0,0,0,1.43-7.15,29.4,29.4,0,0,1,.89-3.41l1-3.34c.68-2.23,1.3-4.48,2.07-6.93Z"/><path class="cls-1" d="M276.09,864a14.17,14.17,0,0,1,.68,2.65,44.75,44.75,0,0,1,.65,5,9.64,9.64,0,0,1,0,2.46,23.58,23.58,0,0,1-.37,2.54,12.41,12.41,0,0,0-.07,2.58,11.75,11.75,0,0,0,.65,2.46,16.44,16.44,0,0,0,1.24,2.25c.5.71,1,1.4,1.46,2.11s.91,1.39,1.33,2.09.93,1.35,1.36,2a20.25,20.25,0,0,1,1.32,2c1.62,2.82,3.24,5.62,4.79,9l-.32.36A17.83,17.83,0,0,1,280.1,895a26.63,26.63,0,0,1-1.4-2.36c-.38-.84-.72-1.69-1.07-2.53s-.61-1.72-.82-2.61-.28-1.82-.4-2.72a19.25,19.25,0,0,0-.32-2.68,12.65,12.65,0,0,0-.61-2.57,13.55,13.55,0,0,0-1-2.5,24.63,24.63,0,0,1-1-2.59,11.25,11.25,0,0,1-.29-2.71,24.39,24.39,0,0,1,.28-2.71,20.11,20.11,0,0,1,.77-2.65,13.43,13.43,0,0,1,1.39-2.47Z"/><path class="cls-1" d="M236.69,915.17a43.54,43.54,0,0,1,3.72,7.41c.52,1.26,1,2.51,1.45,3.77a33.79,33.79,0,0,1,1.19,3.82c.64,2.59,1,5.35,2.11,7.81a19.93,19.93,0,0,0,4.71,6.46l1.48,1.32c.52.4,1,.81,1.52,1.23s1,.78,1.52,1.19l1.55,1.15a49.78,49.78,0,0,0,6.55,3.75,38.5,38.5,0,0,0,7,2.7,33.39,33.39,0,0,0,7.82,1.08l.12.46A16.14,16.14,0,0,1,269,959.5a21.84,21.84,0,0,1-8.66-1.79,26.35,26.35,0,0,1-7.27-4.88c-.52-.51-1-1-1.56-1.52s-1-1.08-1.41-1.65-.85-1.17-1.24-1.78l-1.1-1.85c-1.35-2.5-2.57-5-4-7.34s-3.2-4.62-4.47-7.13a22.16,22.16,0,0,1-1.5-3.89,40.28,40.28,0,0,1-1-4,34.45,34.45,0,0,1-.62-8.34Z"/><path class="cls-4" d="M330.12,849.74c2-1.24,4.08-2.33,6.17-3.37s4.19-2,6.32-3,4.27-1.81,6.43-2.65,4.34-1.62,6.57-2.28c4.46-1.31,9.07-2.19,13.47-3.66a107.09,107.09,0,0,0,12.86-5.31c2.11-1,4.19-2,6.32-3s4.26-1.84,6.4-2.72c4.29-1.77,8.57-3.55,12.95-5.09s8.8-2.92,13.28-4.18,9-2.43,13.61-3.27l.17.45c-4.07,2.37-8.27,4.39-12.49,6.35s-8.49,3.74-12.81,5.43-8.74,3.09-13.15,4.53c-2.21.72-4.41,1.44-6.64,2.09s-4.49,1.22-6.74,1.83a108.08,108.08,0,0,0-13.23,4.3c-4.3,1.74-8.38,4.06-12.63,6-2.12.95-4.28,1.78-6.47,2.53s-4.4,1.48-6.62,2.16-4.46,1.3-6.73,1.85-4.54,1.07-6.88,1.44Z"/><path class="cls-4" d="M323.85,915.92a56.46,56.46,0,0,1,4.78-3.77c1.63-1.2,3.3-2.31,5-3.39s3.4-2.11,5.14-3.09a56.14,56.14,0,0,1,5.34-2.76c3.66-1.64,7.55-2.87,11.13-4.66a79.81,79.81,0,0,0,10.29-6.2c1.66-1.14,3.3-2.32,5-3.41s3.4-2.13,5.12-3.16c3.43-2.07,6.85-4.15,10.4-6s7.18-3.56,10.87-5.15a114,114,0,0,1,11.33-4.3l.23.42a111.8,111.8,0,0,1-9.77,7.18q-5,3.35-10.23,6.32c-3.48,2-7.08,3.72-10.68,5.48-1.8.87-3.6,1.75-5.44,2.56s-3.71,1.56-5.56,2.34A78.77,78.77,0,0,0,356,899.6c-3.44,2-6.59,4.62-10,6.81a58.36,58.36,0,0,1-5.21,3q-2.67,1.38-5.4,2.64c-1.83.83-3.67,1.63-5.56,2.35a60,60,0,0,1-5.76,2Z"/><path class="cls-4" d="M391.51,859.48c1.75-1.37,3.57-2.61,5.42-3.79s3.72-2.31,5.62-3.39,3.82-2.12,5.77-3.1,3.9-1.93,5.93-2.75c4.06-1.63,8.31-2.85,12.29-4.63a94.72,94.72,0,0,0,11.52-6.21c1.87-1.14,3.72-2.33,5.61-3.41s3.81-2.14,5.73-3.17c3.84-2.07,7.68-4.15,11.63-6s8-3.55,12.05-5.13,8.2-3.08,12.47-4.26l.21.43c-3.56,2.64-7.28,4.95-11,7.2s-7.58,4.34-11.46,6.33-7.89,3.71-11.88,5.47c-2,.87-4,1.75-6,2.56s-4.1,1.54-6.15,2.31a95.46,95.46,0,0,0-12,5.25c-3.85,2-7.43,4.64-11.22,6.82-1.89,1.1-3.83,2.08-5.82,3s-4,1.79-6,2.63-4.06,1.62-6.14,2.33a65.43,65.43,0,0,1-6.33,1.94Z"/><path class="cls-4" d="M358.46,857.39a33.74,33.74,0,0,1,6.41-4.41c1.12-.61,2.26-1.18,3.42-1.69a22.44,22.44,0,0,1,3.56-1.34c2.46-.68,5.1-.94,7.5-1.78a31.48,31.48,0,0,0,6.82-3.4c1.1-.67,2.17-1.4,3.29-2s2.25-1.2,3.38-1.77a75.67,75.67,0,0,1,6.92-3.18,69.31,69.31,0,0,1,7.29-2.29,47.73,47.73,0,0,1,7.66-1.39l.18.44a48.17,48.17,0,0,1-6.41,4.42,69.1,69.1,0,0,1-6.77,3.53,75.34,75.34,0,0,1-7.14,2.63c-1.21.4-2.41.82-3.65,1.15s-2.5.59-3.75.89a31,31,0,0,0-7.23,2.41c-2.29,1.1-4.34,2.78-6.57,4a23.39,23.39,0,0,1-3.46,1.57c-1.19.45-2.4.86-3.62,1.21a33.51,33.51,0,0,1-7.65,1.42Z"/><path class="cls-4" d="M396.94,810.78a60,60,0,0,1,5.55-2.91c1.87-.9,3.77-1.72,5.68-2.49s3.84-1.5,5.78-2.18a61,61,0,0,1,5.91-1.81c4-1,8.16-1.55,12.11-2.7a84.59,84.59,0,0,0,11.57-4.38c1.89-.83,3.77-1.72,5.67-2.51s3.84-1.52,5.77-2.25c3.85-1.45,7.7-2.93,11.64-4.14s7.91-2.29,11.94-3.23a121.2,121.2,0,0,1,12.24-2.31l.15.46a116.71,116.71,0,0,1-11.22,5.41c-3.8,1.64-7.64,3.13-11.52,4.5s-7.86,2.47-11.83,3.59c-2,.56-4,1.12-6,1.61s-4,.9-6.06,1.35a84.07,84.07,0,0,0-11.9,3.36c-3.86,1.42-7.53,3.44-11.35,5a59.94,59.94,0,0,1-5.82,2.05q-3,.91-5.95,1.68c-2,.52-4,1-6.05,1.38s-4.09.75-6.19,1Z"/><path class="cls-1" d="M407,964.48l89.89-211.12h45.36l-22.67,249a62.52,62.52,0,0,1-18,36.38c-2.66,2.6-19.78,18.77-45.8,17.27-31.74-1.82-47.86-28.28-48.81-29.91C389.69,996.53,406.25,965.87,407,964.48Z"/><g class="cls-5"><polygon class="cls-3" points="541.93 748.86 556.36 748.86 533.89 1045.39 482.86 1036.92 541.93 748.86"/></g><circle class="cls-4" cx="459.2" cy="995.78" r="60.41"/><path class="cls-1" d="M451.88,942.91a31.11,31.11,0,0,1,5-1c.85-.1,1.71-.17,2.57-.2s1.74,0,2.61.07l1.32.07a10.09,10.09,0,0,1,1.39.22,19,19,0,0,0,2.18.4c.3,0,.71,0,1.21.07.25,0,.52.06.81.11s.45.12.67.18c.84.24,1.66.5,2.48.8s1.62.59,2.4,1,1.55.78,2.3,1.19c1.52.82,3,1.69,4.48,2.48,3,1.61,6,3.09,9,4.7a45,45,0,0,1,4.42,2.66,43.4,43.4,0,0,1,4,3.24,44.27,44.27,0,0,1,7,7.7,42,42,0,0,1,4.75,9.23,33.57,33.57,0,0,1,2.1,10.07l-.45.13a116.88,116.88,0,0,0-10.41-16.54c-1.93-2.55-3.86-5.1-6-7.48-1.08-1.2-2.21-2.34-3.34-3.5s-2.28-2.34-3.5-3.44a28.29,28.29,0,0,0-8.2-5.43,38.7,38.7,0,0,0-9.55-2.25c-.8-.13-1.59-.29-2.36-.48l-.54-.13-.43,0-1.28-.13a16.26,16.26,0,0,1-2.7-.68,8.78,8.78,0,0,0-1.05-.3l-1.17-.23c-3.08-.78-6.39-1.15-9.73-2Z"/><path class="cls-1" d="M457.32,952.77a38.84,38.84,0,0,1,2,14.79,44.26,44.26,0,0,1-1,7.49,35.67,35.67,0,0,1-2.41,7.18c-2.13,4.58-5.14,8.49-7.14,12.88a25,25,0,0,0-2.51,13.81,17.84,17.84,0,0,0,2.16,6.3,12.73,12.73,0,0,0,4.19,4.56,9.5,9.5,0,0,0,5.58,1.37,7.8,7.8,0,0,0,4.92-2,8.18,8.18,0,0,0,2.25-5,13.55,13.55,0,0,0-.87-6.16,24.78,24.78,0,0,0-3.48-5.89c-1.44-1.88-3.08-3.69-4.66-5.58l.3-.35a45,45,0,0,1,6.08,4.3,22.29,22.29,0,0,1,5,5.92,15.73,15.73,0,0,1,2.07,8,11.87,11.87,0,0,1-3.21,8.22,11.58,11.58,0,0,1-8.27,3.39,13.66,13.66,0,0,1-8.23-2.6,15.24,15.24,0,0,1-5.05-6.55,19.15,19.15,0,0,1-1.34-7.79c.2-5.2,1.92-9.92,3.66-14.51s3.49-9.23,4.93-13.72c.71-2.24,1.39-4.47,2-6.74s1.08-4.56,1.46-6.89a94.81,94.81,0,0,0,1.16-14.34Z"/><path class="cls-1" d="M464.55,985.52a16.54,16.54,0,0,1,3.65,2.42,20.29,20.29,0,0,1,3,3.19,23.2,23.2,0,0,1,2.35,3.73,16.91,16.91,0,0,1,1.51,4.15,42.09,42.09,0,0,1,.46,8.72c0,1.42,0,2.83,0,4.26s0,2.86-.09,4.32a28.1,28.1,0,0,1-.55,4.36,26.55,26.55,0,0,1-1.35,4.22,29.15,29.15,0,0,1-2,4,23,23,0,0,1-2.6,3.61,79.92,79.92,0,0,1-6,5.85,39.43,39.43,0,0,0-5.47,6l-.43-.15a17.78,17.78,0,0,1,3.09-8.18c1.57-2.46,3.38-4.6,5-6.68a48.54,48.54,0,0,0,4.44-6.35,61.56,61.56,0,0,0,3.36-7.19,17,17,0,0,0,1.07-8c-.29-2.72-1.55-5.23-2.63-7.6s-2-4.81-3.24-7.15c-.58-1.19-1.24-2.35-1.88-3.55s-1.38-2.36-2.06-3.65Z"/><path class="cls-1" d="M450.34,959.62a16.1,16.1,0,0,1,1.09,7.38c-.05.62-.13,1.24-.21,1.86s-.21,1.22-.35,1.82a15.61,15.61,0,0,1-1.18,3.47c-1.06,2.22-2.63,4.16-3.68,6.29a28.69,28.69,0,0,0-2.3,6.72c-.27,1.15-.48,2.33-.76,3.46s-.57,2.24-.85,3.35c-.54,2.23-1,4.44-1.41,6.61s-.87,4.32-1.13,6.53a47.48,47.48,0,0,0-.23,6.93l-.44.16a15.84,15.84,0,0,1-3-6.92,22.91,22.91,0,0,1-.1-7.57,30.37,30.37,0,0,1,2.13-7.1,33.24,33.24,0,0,1,1.53-3.32c.57-1.07,1.26-2.09,1.9-3.11a28.42,28.42,0,0,0,3.26-6.31,49.28,49.28,0,0,0,1.39-6.94,27.72,27.72,0,0,1,.87-3.31l1-3.24c.66-2.17,1.25-4.35,2-6.73Z"/><path class="cls-1" d="M468.14,959.43a14,14,0,0,1,.65,2.57,18,18,0,0,1,.39,2.45,19.38,19.38,0,0,1,.24,2.38,8.69,8.69,0,0,1,0,2.39,24.85,24.85,0,0,1-.35,2.47,8.73,8.73,0,0,0,.56,4.89,17.16,17.16,0,0,0,1.2,2.18c.49.69,1,1.36,1.42,2s.88,1.36,1.29,2,.9,1.31,1.32,2a18.59,18.59,0,0,1,1.28,2,95.64,95.64,0,0,1,4.65,8.76l-.31.34a17.2,17.2,0,0,1-8.46-6.38,25.09,25.09,0,0,1-1.36-2.29c-.37-.81-.7-1.64-1-2.45a24.88,24.88,0,0,1-.79-2.54c-.19-.87-.28-1.77-.39-2.64a21.74,21.74,0,0,0-.31-2.6,13.27,13.27,0,0,0-.59-2.49,14.26,14.26,0,0,0-1-2.43,24.56,24.56,0,0,1-1-2.51,11.7,11.7,0,0,1-.28-2.63,23.2,23.2,0,0,1,.27-2.63,21,21,0,0,1,.75-2.57,12.3,12.3,0,0,1,1.35-2.39Z"/><path class="cls-1" d="M412.75,1014.11c.83,1.36,1.55,2.7,2.29,4s1.48,2.61,2.25,3.87q.56,1,1.14,1.89c.37.63.79,1.24,1.17,1.86.8,1.23,1.6,2.44,2.35,3.72a35.68,35.68,0,0,0,5.13,7.37,22.73,22.73,0,0,0,7.53,4.88c1.38.59,2.81,1,4.21,1.53s2.79.93,4.19,1.33a79.39,79.39,0,0,0,8.54,1.76c1.43.24,2.87.44,4.32.62l2.3.24a13.9,13.9,0,0,1,2.58.58,10.74,10.74,0,0,1,1.23.47l.48.24c.14.08.3.13.44.2a11.25,11.25,0,0,0,1.94.57,24.5,24.5,0,0,0,4.46.28l.12.44a13,13,0,0,1-4.6,1.64,9.1,9.1,0,0,1-2.61.05c-.23,0-.45-.05-.67-.09l-.61-.12c-.33,0-.66-.1-1-.13a35.84,35.84,0,0,0-4.26.12,35.27,35.27,0,0,1-4.82-.21,35.93,35.93,0,0,1-9.29-2.53,31.39,31.39,0,0,1-8.25-4.81c-2.5-2-4.83-4-7.25-6s-5.07-3.79-7.22-6.17a21.77,21.77,0,0,1-2.78-3.9,29.34,29.34,0,0,1-2-4.32,26.41,26.41,0,0,1-1.32-4.59,21,21,0,0,1-.41-4.75Z"/><path class="cls-1" d="M489.19,961.53c.66.49,1.28,1,1.89,1.56s1.16,1.13,1.71,1.73,1.06,1.23,1.56,1.86,1,1.31,1.42,2,.85,1.38,1.27,2.08.76,1.43,1.12,2.16.67,1.48,1,2.24.52,1.54.73,2.32c.82,3.17.94,6.46,1.39,9.6s1,6.26,1.52,9.46l.32,2.41c.08.81.14,1.62.18,2.44s0,1.62,0,2.44l-.15,2.43a42.5,42.5,0,0,1-1.83,9.61,40.81,40.81,0,0,1-4.18,8.83,32.73,32.73,0,0,1-6.24,7.43l-.38-.26c1.16-3,2.34-5.87,3.35-8.76s1.93-5.78,2.72-8.68,1.65-5.79,2.23-8.77l.41-2.24c.12-.75.21-1.5.37-2.25s.22-1.51.36-2.27l.31-2.3a26.16,26.16,0,0,0-.46-9.25,43.48,43.48,0,0,0-3.55-8.57c-.34-.68-.65-1.37-.94-2.07s-.6-1.39-.88-2.1l-1.8-4.19c-.33-.69-.63-1.39-.94-2.1s-.63-1.41-.94-2.13-.65-1.41-1-2.14-.65-1.44-.94-2.21Z"/><path class="cls-1" d="M429.91,990c-.08,2.46-.29,4.69-.4,6.91l-.15,3.29c0,.55,0,1.1-.06,1.64a15.07,15.07,0,0,1-.12,1.64c-.22,2.19-.65,4.54-.22,6.8a14.08,14.08,0,0,0,2.85,6.14l1.07,1.31c.39.41.75.83,1.11,1.26s.75.81,1.09,1.23l1.12,1.2c1.52,1.56,3.19,2.93,4.84,4.32s3.36,2.73,5.17,4,3.75,2.47,5.82,3.77l-.11.45a18.58,18.58,0,0,1-7.31-1,23.3,23.3,0,0,1-6.63-3.41,24,24,0,0,1-5.15-5.41l-1-1.55c-.32-.53-.62-1.08-.9-1.63s-.51-1.14-.74-1.71l-.6-1.76c-.71-2.36-1.29-4.65-2-6.92a50.35,50.35,0,0,1-2.19-7c-.08-.61-.13-1.23-.16-1.85s0-1.23.1-1.85.17-1.23.26-1.83.28-1.21.44-1.81a15.91,15.91,0,0,1,3.52-6.46Z"/><path class="cls-4" d="M502.92,931.07c0-2.67.23-5.31.5-7.93s.6-5.23,1-7.83.83-5.18,1.33-7.76,1.05-5.13,1.76-7.66c1.41-5.06,3.31-10,4.54-15.12a122.57,122.57,0,0,0,2.66-15.51c.32-2.61.58-5.24,1-7.84s.81-5.18,1.25-7.77c.89-5.17,1.76-10.35,2.92-15.46.58-2.56,1.19-5.11,1.86-7.64l1-3.81,1.08-3.79c1.48-5.05,3-10.08,5-15l.52.1c-.2,5.32-.8,10.55-1.47,15.77l-.54,3.9-.61,3.89c-.4,2.6-.87,5.18-1.36,7.75-1,5.15-2.28,10.24-3.55,15.33-.64,2.54-1.27,5.09-2,7.62s-1.52,5-2.27,7.56a120.84,120.84,0,0,0-3.81,15.27c-.93,5.16-1.18,10.47-1.92,15.67-.37,2.6-.88,5.17-1.48,7.72s-1.21,5.11-1.9,7.64-1.41,5.06-2.25,7.56-1.68,5-2.72,7.47Z"/><path class="cls-4" d="M497.17,890c.07-2.51.29-5,.59-7.45s.64-4.92,1.06-7.35.88-4.86,1.4-7.27,1.1-4.8,1.83-7.17c1.46-4.72,3.4-9.33,4.68-14.09a106.33,106.33,0,0,0,2.8-14.54c.35-2.45.63-4.91,1-7.35s.86-4.86,1.32-7.28c.94-4.85,1.86-9.7,3.06-14.48.61-2.39,1.24-4.77,1.94-7.14l1-3.55,1.11-3.54c1.53-4.71,3.14-9.39,5.13-14l.52.12c-.26,5-.9,9.92-1.62,14.81l-.58,3.66-.65,3.65c-.42,2.43-.92,4.85-1.43,7.26-1,4.82-2.38,9.57-3.69,14.33-.66,2.37-1.31,4.75-2.05,7.11s-1.56,4.7-2.34,7a106.29,106.29,0,0,0-4,14.27c-1,4.83-1.28,9.82-2.07,14.7q-.6,3.66-1.55,7.24c-.6,2.39-1.26,4.76-2,7.13s-1.46,4.72-2.31,7-1.73,4.66-2.79,6.94Z"/><path class="cls-4" d="M436.33,926.92a52.26,52.26,0,0,1,1.73-10.1c.42-1.64.9-3.25,1.43-4.85a35.72,35.72,0,0,1,1.83-4.7c1.46-3,3.38-5.94,4.67-9a50.08,50.08,0,0,0,2.84-9.7c.36-1.65.66-3.33,1.07-5s.88-3.26,1.35-4.88c.95-3.23,1.89-6.47,3.1-9.6s2.57-6.23,4.09-9.26a74,74,0,0,1,5.1-8.89l.49.18a74.58,74.58,0,0,1-1.7,10.11q-1.12,4.95-2.71,9.74c-1.05,3.2-2.39,6.29-3.7,9.39-.67,1.55-1.3,3.11-2.05,4.63s-1.56,3-2.33,4.52a50.29,50.29,0,0,0-4,9.3c-1,3.22-1.32,6.67-2.14,10a36.34,36.34,0,0,1-1.56,4.8q-.92,2.36-2,4.65a51.66,51.66,0,0,1-5.07,8.9Z"/><path class="cls-4" d="M468.66,872.3a61.28,61.28,0,0,1,1.13-11.07q.48-2.72,1.14-5.38a42.94,42.94,0,0,1,1.56-5.27c1.28-3.44,3-6.76,4.14-10.26a59.84,59.84,0,0,0,2.28-10.76c.26-1.82.46-3.66.77-5.47s.69-3.61,1.07-5.4c.76-3.59,1.5-7.18,2.53-10.69s2.21-7,3.56-10.42a85.73,85.73,0,0,1,4.58-10.14l.51.13a87.9,87.9,0,0,1-1.1,11.08q-.84,5.46-2.14,10.8c-.87,3.55-2,7-3.16,10.52-.57,1.74-1.13,3.49-1.78,5.21s-1.38,3.42-2.07,5.13a59.34,59.34,0,0,0-3.41,10.45c-.8,3.58-.93,7.33-1.55,11a42.37,42.37,0,0,1-1.29,5.34q-.76,2.64-1.7,5.23a61.1,61.1,0,0,1-4.56,10.14Z"/><path class="cls-4" d="M475.76,906.23a30.81,30.81,0,0,1,.21-7.82c.18-1.27.4-2.53.69-3.77a21.56,21.56,0,0,1,1.1-3.65c1-2.37,2.44-4.61,3.24-7a29.18,29.18,0,0,0,1.36-7.52,52.12,52.12,0,0,1,.93-7.64,67.39,67.39,0,0,1,1.62-7.46,64,64,0,0,1,2.64-7.19,45.12,45.12,0,0,1,3.68-6.91l.51.13a45.23,45.23,0,0,1-.18,7.83,67.67,67.67,0,0,1-1.23,7.56,69.86,69.86,0,0,1-2.25,7.3,52.5,52.5,0,0,1-2.94,7.11,29.06,29.06,0,0,0-2.51,7.22c-.49,2.5-.32,5.17-.64,7.71a20.33,20.33,0,0,1-.82,3.73c-.36,1.22-.78,2.42-1.25,3.61a30.72,30.72,0,0,1-3.66,6.92Z"/><path class="cls-1" d="M813.31,837.51c-57.54-20.28-231.94-69.62-245.6-73.48v51.71l229.6,147.18c5.76,2.84,12.07,4.44,18.15,2.7,28.89-8.26,43.76-89.49,12.44-119.14A42,42,0,0,0,813.31,837.51Z"/><g class="cls-6"><path class="cls-3" d="M851.46,941.73a71.13,71.13,0,0,1-12.11,16.66c-14,14.38-30.4,16-49.09,18.2-14.53-2.65-27.74-9.4-41-16.27-.43-.22-.88-.36-1.31-.56l-188.37-139,.68-15.43Z"/></g><ellipse class="cls-4" cx="810.92" cy="901.79" rx="39.94" ry="64.4"/><path class="cls-1" d="M820.66,847.45a55.53,55.53,0,0,1-7.63,1.8c-1.24.23-2.45.45-3.64.69s-2.36.5-3.55.71c-2.34.4-4.89.82-7,2.26a14.13,14.13,0,0,0-4.79,5.73c-1.07,2.28-1.92,4.59-2.76,6.88s-1.31,4.72-1.95,7.11-1.27,4.84-2,7.32a62.63,62.63,0,0,1-2.48,7.5l-.47-.05a41.18,41.18,0,0,1-.77-7.95,38.61,38.61,0,0,1,.75-8,31.43,31.43,0,0,1,2.75-7.69,25.87,25.87,0,0,1,2.1-3.55,27.72,27.72,0,0,1,2.7-3.12c2-1.92,3.94-3.67,6-5.42a27.36,27.36,0,0,1,6.75-4.82,14.58,14.58,0,0,1,4-1.1,24.39,24.39,0,0,1,4.08-.22,25.85,25.85,0,0,1,7.91,1.43Z"/><path class="cls-1" d="M815.52,857.21c.06,2.54.14,5,.33,7.49s.48,4.88.87,7.28.9,4.77,1.51,7.11,1.33,4.64,2.06,6.95c1.48,4.62,3.25,9.41,5.08,14.14s3.57,9.59,3.77,15a19.63,19.63,0,0,1-1.38,8,15.75,15.75,0,0,1-5.21,6.75,14.06,14.06,0,0,1-8.47,2.68,11.93,11.93,0,0,1-8.53-3.5,12.31,12.31,0,0,1-3.31-8.46,16.25,16.25,0,0,1,2.14-8.25,23.29,23.29,0,0,1,5.18-6.1,46,46,0,0,1,6.27-4.43l.31.36c-1.63,1.95-3.32,3.81-4.81,5.75a25.73,25.73,0,0,0-3.58,6.07,13.7,13.7,0,0,0-.89,6.35,8.31,8.31,0,0,0,2.32,5.14,8,8,0,0,0,5.06,2.09,9.87,9.87,0,0,0,5.76-1.41,13.28,13.28,0,0,0,4.31-4.69,18.23,18.23,0,0,0,2.22-6.5c.69-4.73-.5-9.75-2.58-14.23s-5.16-8.55-7.36-13.28a36.17,36.17,0,0,1-2.48-7.4,45.58,45.58,0,0,1-1.08-7.71,42.67,42.67,0,0,1,.28-7.75,34.7,34.7,0,0,1,1.74-7.49Z"/><path class="cls-1" d="M807.93,891.24c-1.45,2.61-2.86,5-4.06,7.41s-2.2,4.92-3.34,7.37-2.42,5-2.72,7.84a17.56,17.56,0,0,0,1.11,8.24,65.36,65.36,0,0,0,3.46,7.41,49.87,49.87,0,0,0,4.58,6.54c1.66,2.15,3.53,4.35,5.14,6.89a18.24,18.24,0,0,1,3.2,8.42l-.45.16a40.36,40.36,0,0,0-5.64-6.19,82.85,82.85,0,0,1-6.17-6,23.31,23.31,0,0,1-2.68-3.72,31,31,0,0,1-2-4.13,25.83,25.83,0,0,1-1.4-4.34,29.91,29.91,0,0,1-.56-4.5c-.07-1.5-.09-3-.09-4.45s0-2.92,0-4.39a43.34,43.34,0,0,1,.47-9,17.49,17.49,0,0,1,1.56-4.27,24,24,0,0,1,2.42-3.85,19.72,19.72,0,0,1,6.87-5.77Z"/><path class="cls-1" d="M822.73,864.23c.76,2.45,1.38,4.7,2.06,6.93l1,3.34a29.4,29.4,0,0,1,.89,3.41,50.55,50.55,0,0,0,1.43,7.15,28.7,28.7,0,0,0,3.37,6.5c.66,1.06,1.36,2.11,2,3.21a36.64,36.64,0,0,1,1.58,3.42,31.76,31.76,0,0,1,2.19,7.32,23.49,23.49,0,0,1-.11,7.8,16.15,16.15,0,0,1-3.06,7.13l-.44-.17a50.39,50.39,0,0,0-.24-7.14c-.27-2.28-.68-4.5-1.16-6.73s-.9-4.51-1.46-6.8c-.29-1.15-.62-2.28-.88-3.46s-.5-2.37-.78-3.56a29.43,29.43,0,0,0-2.38-6.93c-1.07-2.19-2.69-4.19-3.78-6.48a16.09,16.09,0,0,1-1.22-3.58c-.15-.62-.25-1.25-.36-1.88s-.16-1.27-.21-1.91a16.39,16.39,0,0,1,1.12-7.6Z"/><path class="cls-1" d="M804.38,863.91a13.43,13.43,0,0,1,1.39,2.47,20.11,20.11,0,0,1,.77,2.65,24.39,24.39,0,0,1,.28,2.71,11.25,11.25,0,0,1-.29,2.71,24.63,24.63,0,0,1-1,2.59,13.55,13.55,0,0,0-1,2.5,12.65,12.65,0,0,0-.61,2.57,19.25,19.25,0,0,0-.32,2.68c-.12.9-.22,1.82-.4,2.72s-.53,1.74-.82,2.61-.69,1.69-1.07,2.53a26.63,26.63,0,0,1-1.4,2.36,17.83,17.83,0,0,1-8.72,6.58l-.32-.36c1.55-3.41,3.17-6.21,4.79-9a20.25,20.25,0,0,1,1.32-2c.43-.69.9-1.36,1.36-2s.83-1.41,1.33-2.09,1-1.4,1.46-2.11a15.43,15.43,0,0,0,1.24-2.25,11.75,11.75,0,0,0,.65-2.46,12.41,12.41,0,0,0-.07-2.58,23.58,23.58,0,0,1-.37-2.54,9.64,9.64,0,0,1,0-2.46,44.75,44.75,0,0,1,.65-5,14.17,14.17,0,0,1,.68-2.65Z"/><path class="cls-1" d="M843.77,915.29a34.45,34.45,0,0,1-.62,8.34,40.28,40.28,0,0,1-1,4,22.16,22.16,0,0,1-1.5,3.89c-1.27,2.51-3.07,4.76-4.47,7.13s-2.64,4.84-4,7.34l-1.1,1.85c-.39.61-.81,1.2-1.24,1.78s-.93,1.11-1.41,1.65-1,1-1.56,1.52a26.35,26.35,0,0,1-7.27,4.88A21.84,21.84,0,0,1,811,959.5a16.14,16.14,0,0,1-8.38-2.18l.12-.46a33.39,33.39,0,0,0,7.82-1.08,38.5,38.5,0,0,0,7-2.7,49.78,49.78,0,0,0,6.55-3.75l1.55-1.15c.49-.41,1-.8,1.52-1.19s1-.83,1.52-1.23l1.48-1.32a19.93,19.93,0,0,0,4.71-6.46c1.12-2.46,1.47-5.22,2.11-7.81a33.79,33.79,0,0,1,1.19-3.82c.45-1.26.93-2.51,1.45-3.77a43.54,43.54,0,0,1,3.72-7.41Z"/><path class="cls-4" d="M749.72,850.19c-2.34-.37-4.62-.87-6.88-1.44s-4.51-1.18-6.73-1.85-4.43-1.39-6.61-2.16-4.36-1.58-6.48-2.53c-4.25-1.89-8.33-4.21-12.63-6a108.08,108.08,0,0,0-13.23-4.3c-2.25-.61-4.51-1.17-6.74-1.83s-4.43-1.37-6.64-2.09c-4.41-1.44-8.82-2.86-13.15-4.53S662,820,657.82,818.08s-8.42-4-12.49-6.35l.17-.45c4.63.84,9.13,2,13.61,3.27s8.9,2.66,13.28,4.18,8.66,3.32,13,5.09c2.14.88,4.29,1.76,6.41,2.72s4.2,2,6.31,3a107.09,107.09,0,0,0,12.86,5.31c4.4,1.47,9,2.35,13.47,3.66,2.23.66,4.42,1.43,6.57,2.28s4.31,1.73,6.43,2.65,4.24,1.9,6.32,3,4.16,2.13,6.17,3.37Z"/><path class="cls-4" d="M755.92,916.34a60,60,0,0,1-5.76-2c-1.89-.72-3.73-1.52-5.56-2.35s-3.62-1.72-5.4-2.64a58.36,58.36,0,0,1-5.21-3c-3.37-2.19-6.52-4.77-10-6.81a78.77,78.77,0,0,0-10.81-5.26c-1.85-.78-3.73-1.51-5.56-2.34s-3.64-1.69-5.44-2.56c-3.6-1.76-7.2-3.5-10.68-5.48s-6.89-4.09-10.23-6.32a111.8,111.8,0,0,1-9.77-7.18l.23-.42a114,114,0,0,1,11.33,4.3q5.53,2.38,10.87,5.15c3.55,1.84,7,3.92,10.4,6,1.72,1,3.44,2.06,5.12,3.16s3.32,2.27,5,3.41a79.81,79.81,0,0,0,10.29,6.2c3.58,1.79,7.47,3,11.13,4.66a56.14,56.14,0,0,1,5.34,2.76c1.74,1,3.45,2,5.14,3.09s3.37,2.19,5,3.39a56.46,56.46,0,0,1,4.78,3.77Z"/><path class="cls-4" d="M688.29,859.91c-2.17-.53-4.26-1.21-6.33-1.94s-4.12-1.5-6.14-2.33-4-1.71-6-2.63-3.93-1.89-5.82-3c-3.79-2.18-7.37-4.78-11.22-6.82a95.46,95.46,0,0,0-12-5.25c-2-.77-4.13-1.49-6.15-2.31s-4-1.69-6-2.56c-4-1.76-8-3.49-11.88-5.47s-7.7-4.09-11.46-6.33-7.48-4.56-11-7.2l.21-.43c4.27,1.18,8.39,2.69,12.47,4.26S615,821.21,619,823s7.79,3.92,11.63,6c1.92,1,3.84,2.06,5.73,3.17s3.74,2.27,5.61,3.41a94.72,94.72,0,0,0,11.52,6.21c4,1.78,8.23,3,12.29,4.63,2,.82,4,1.74,5.93,2.75s3.87,2,5.77,3.1,3.78,2.19,5.62,3.39,3.67,2.42,5.42,3.79Z"/><path class="cls-4" d="M721.36,857.83a33.51,33.51,0,0,1-7.65-1.42c-1.22-.35-2.43-.76-3.62-1.21a23.39,23.39,0,0,1-3.46-1.57c-2.23-1.26-4.28-2.94-6.57-4a31,31,0,0,0-7.23-2.41c-1.25-.3-2.52-.55-3.75-.89s-2.44-.75-3.65-1.15a75.34,75.34,0,0,1-7.14-2.63,69.1,69.1,0,0,1-6.77-3.53,48.17,48.17,0,0,1-6.41-4.42l.18-.44a47.73,47.73,0,0,1,7.66,1.39,69.31,69.31,0,0,1,7.29,2.29,75.67,75.67,0,0,1,6.92,3.18c1.13.57,2.28,1.12,3.38,1.77s2.19,1.35,3.29,2a31.48,31.48,0,0,0,6.82,3.4c2.4.84,5,1.1,7.5,1.78a22.44,22.44,0,0,1,3.56,1.34c1.16.51,2.3,1.08,3.42,1.69a33.74,33.74,0,0,1,6.41,4.41Z"/><path class="cls-4" d="M682.91,811.23c-2.1-.2-4.16-.55-6.19-1s-4.05-.86-6.05-1.38-4-1.07-5.95-1.68a59.94,59.94,0,0,1-5.82-2.05c-3.82-1.58-7.49-3.6-11.35-5a84.07,84.07,0,0,0-11.9-3.36c-2-.45-4.06-.85-6.06-1.35s-4-1.05-6-1.61c-4-1.12-7.94-2.23-11.83-3.59s-7.72-2.86-11.52-4.5a116.71,116.71,0,0,1-11.22-5.41l.15-.46a121.2,121.2,0,0,1,12.24,2.31c4,.94,8,2,11.94,3.23s7.79,2.69,11.65,4.14c1.92.73,3.85,1.45,5.76,2.25s3.78,1.68,5.67,2.51A84.59,84.59,0,0,0,648,798.69c4,1.15,8.1,1.71,12.11,2.7a61,61,0,0,1,5.91,1.81q2.91,1,5.78,2.18c1.91.77,3.81,1.59,5.68,2.49a60,60,0,0,1,5.55,2.91Z"/><path class="cls-1" d="M670.77,964.48,580.88,753.36H535.52l22.67,249a62.55,62.55,0,0,0,18,36.38c2.66,2.6,19.78,18.77,45.8,17.27,31.74-1.82,47.86-28.28,48.81-29.91C688.11,996.53,671.55,965.87,670.77,964.48Z"/><g class="cls-7"><polygon class="cls-3" points="535.88 748.86 521.44 748.86 543.92 1045.39 594.95 1036.92 535.88 748.86"/></g><circle class="cls-4" cx="618.6" cy="995.78" r="60.41"/><path class="cls-1" d="M625.92,943.37c-3.33.87-6.64,1.24-9.73,2l-1.17.23a9.34,9.34,0,0,0-1,.3,15.76,15.76,0,0,1-2.7.68l-1.27.13-.43,0-.54.13c-.78.19-1.57.35-2.36.48a38.77,38.77,0,0,0-9.56,2.25,28.29,28.29,0,0,0-8.2,5.43c-1.22,1.1-2.35,2.29-3.49,3.44s-2.27,2.3-3.35,3.5c-2.17,2.38-4.1,4.93-6,7.48A116,116,0,0,0,565.63,986l-.44-.13a33,33,0,0,1,2.1-10.07A41.57,41.57,0,0,1,572,966.6a44.22,44.22,0,0,1,7-7.7,43.4,43.4,0,0,1,4-3.24,46.22,46.22,0,0,1,4.42-2.66c3-1.61,6-3.09,9-4.7,1.49-.79,3-1.66,4.47-2.48.76-.41,1.52-.81,2.3-1.19s1.6-.65,2.41-1,1.64-.56,2.47-.8c.23-.06.37-.12.67-.18s.56-.08.81-.11c.51-.05.91,0,1.22-.07a18.87,18.87,0,0,0,2.17-.4,10.48,10.48,0,0,1,1.4-.22l1.31-.07c.87,0,1.75-.07,2.61-.07s1.72.1,2.57.2a30.9,30.9,0,0,1,5,1Z"/><path class="cls-1" d="M620.94,952.84a94.81,94.81,0,0,0,1.16,14.34c.38,2.33.88,4.62,1.47,6.89s1.28,4.5,2,6.74c1.44,4.49,3.14,9.14,4.92,13.72s3.47,9.31,3.66,14.51a19,19,0,0,1-1.34,7.79,15.24,15.24,0,0,1-5,6.55,13.64,13.64,0,0,1-8.23,2.6,11.61,11.61,0,0,1-8.27-3.39,12,12,0,0,1-3.21-8.22,15.83,15.83,0,0,1,2.07-8,22.32,22.32,0,0,1,5-5.92,44.35,44.35,0,0,1,6.08-4.3l.3.35c-1.59,1.89-3.23,3.7-4.67,5.58a24.73,24.73,0,0,0-3.47,5.89,13.29,13.29,0,0,0-.87,6.16,8.07,8.07,0,0,0,2.25,5,7.75,7.75,0,0,0,4.91,2,9.55,9.55,0,0,0,5.59-1.37,12.82,12.82,0,0,0,4.19-4.56,17.63,17.63,0,0,0,2.15-6.3c.67-4.59-.49-9.46-2.5-13.81s-5-8.3-7.14-12.88a35.05,35.05,0,0,1-2.41-7.18,44.28,44.28,0,0,1-1.05-7.49,38.84,38.84,0,0,1,2-14.79Z"/><path class="cls-1" d="M613.57,985.86c-.69,1.29-1.41,2.46-2.07,3.65s-1.29,2.36-1.87,3.55c-1.23,2.34-2.13,4.76-3.24,7.15s-2.35,4.88-2.64,7.6a17,17,0,0,0,1.08,8,60,60,0,0,0,3.36,7.19,48.54,48.54,0,0,0,4.44,6.35c1.61,2.08,3.43,4.22,5,6.68a17.79,17.79,0,0,1,3.1,8.18l-.44.15a38.92,38.92,0,0,0-5.47-6,81.87,81.87,0,0,1-6-5.85,23,23,0,0,1-2.6-3.61,29.15,29.15,0,0,1-2-4,26.55,26.55,0,0,1-1.35-4.22,28.08,28.08,0,0,1-.54-4.36c-.08-1.46-.09-2.9-.09-4.32s0-2.84,0-4.26a42.79,42.79,0,0,1,.46-8.72,16.53,16.53,0,0,1,1.52-4.15,21.88,21.88,0,0,1,2.35-3.73,19.41,19.41,0,0,1,3-3.19,16.25,16.25,0,0,1,3.64-2.42Z"/><path class="cls-1" d="M627.93,959.65c.74,2.38,1.34,4.56,2,6.73l1,3.24a27.69,27.69,0,0,1,.86,3.31,47.94,47.94,0,0,0,1.4,6.94,28,28,0,0,0,3.26,6.31c.64,1,1.32,2,1.89,3.11a33.24,33.24,0,0,1,1.53,3.32,30.37,30.37,0,0,1,2.13,7.1,22.91,22.91,0,0,1-.1,7.57,15.61,15.61,0,0,1-3,6.92l-.43-.16a47.44,47.44,0,0,0-.24-6.93c-.26-2.21-.65-4.37-1.12-6.53s-.87-4.38-1.42-6.61c-.27-1.11-.6-2.21-.85-3.35s-.48-2.31-.75-3.46a28.72,28.72,0,0,0-2.31-6.72c-1-2.13-2.62-4.07-3.68-6.29a16.7,16.7,0,0,1-1.18-3.47c-.14-.6-.24-1.22-.35-1.82s-.15-1.24-.2-1.86a15.84,15.84,0,0,1,1.09-7.38Z"/><path class="cls-1" d="M610.12,959.35a12.35,12.35,0,0,1,1.36,2.39,19.31,19.31,0,0,1,.74,2.57,21.12,21.12,0,0,1,.27,2.63,10.65,10.65,0,0,1-.28,2.63,22.37,22.37,0,0,1-1,2.51,14.26,14.26,0,0,0-1,2.43,12.53,12.53,0,0,0-.59,2.49,19.87,19.87,0,0,0-.31,2.6c-.12.87-.21,1.77-.39,2.64a24.94,24.94,0,0,1-.8,2.54c-.33.81-.67,1.64-1,2.45a22.91,22.91,0,0,1-1.35,2.29,17.27,17.27,0,0,1-8.47,6.38l-.3-.34a98.2,98.2,0,0,1,4.64-8.76,18.59,18.59,0,0,1,1.28-2c.42-.67.87-1.32,1.33-2a22.4,22.4,0,0,1,1.29-2c.42-.68.93-1.35,1.42-2a18.5,18.5,0,0,0,1.2-2.18,12.38,12.38,0,0,0,.63-2.39,13.09,13.09,0,0,0-.07-2.5,22.3,22.3,0,0,1-.36-2.47,9.55,9.55,0,0,1,0-2.39,19.38,19.38,0,0,1,.24-2.38A19.76,19.76,0,0,1,609,962a14.1,14.1,0,0,1,.66-2.57Z"/><path class="cls-1" d="M665.5,1014.22a21,21,0,0,1-.42,4.75,25.53,25.53,0,0,1-1.31,4.59,30.45,30.45,0,0,1-2,4.32,21.72,21.72,0,0,1-2.77,3.9c-2.16,2.38-4.84,4.2-7.23,6.17s-4.75,4-7.25,6a33.49,33.49,0,0,1-3.93,2.72,34.38,34.38,0,0,1-4.32,2.09,35.86,35.86,0,0,1-9.28,2.53,35.42,35.42,0,0,1-4.83.21,35.63,35.63,0,0,0-4.25-.12c-.33,0-.65.08-1,.13l-.6.12c-.22,0-.45.06-.67.09a9.17,9.17,0,0,1-2.62-.05,12.84,12.84,0,0,1-4.59-1.64l.12-.44a24.56,24.56,0,0,0,4.46-.28,11.14,11.14,0,0,0,1.93-.57c.15-.07.3-.12.44-.2l.49-.24a10.08,10.08,0,0,1,1.23-.47,13.8,13.8,0,0,1,2.57-.58l2.3-.24c1.45-.18,2.89-.38,4.32-.62a78.89,78.89,0,0,0,8.54-1.76c1.41-.4,2.8-.87,4.2-1.33s2.82-.94,4.2-1.53a22.63,22.63,0,0,0,7.53-4.88,35.73,35.73,0,0,0,5.14-7.37c.74-1.28,1.54-2.49,2.34-3.72.39-.62.81-1.23,1.17-1.86s.77-1.25,1.15-1.89c.77-1.26,1.48-2.56,2.25-3.87s1.45-2.66,2.28-4Z"/><path class="cls-1" d="M589,961.82c-.28.77-.61,1.49-.93,2.21s-.62,1.45-1,2.14-.61,1.43-.94,2.13-.61,1.41-.94,2.1l-1.8,4.19c-.27.71-.56,1.41-.88,2.1s-.6,1.39-.94,2.07a44.73,44.73,0,0,0-3.55,8.57,26.39,26.39,0,0,0-.45,9.25l.3,2.3c.14.76.26,1.52.37,2.27s.25,1.5.37,2.25l.4,2.24c.59,3,1.42,5.87,2.23,8.77s1.7,5.79,2.72,8.68,2.19,5.75,3.35,8.76l-.38.26a33.25,33.25,0,0,1-6.24-7.43,40.31,40.31,0,0,1-4.17-8.83,42,42,0,0,1-1.84-9.61l-.15-2.43c0-.82,0-1.63,0-2.44s.11-1.63.19-2.44l.32-2.41c.51-3.2,1.09-6.31,1.52-9.46a89.12,89.12,0,0,1,1.38-9.6c.22-.78.46-1.56.73-2.32s.63-1.5,1-2.24.75-1.44,1.12-2.16.84-1.39,1.28-2.08.93-1.32,1.41-2,1-1.25,1.57-1.86,1.13-1.17,1.7-1.73,1.23-1.07,1.89-1.56Z"/><path class="cls-1" d="M648.32,989.82a15.8,15.8,0,0,1,3.52,6.46c.17.6.3,1.2.44,1.81s.2,1.22.27,1.83.09,1.24.09,1.85-.08,1.24-.16,1.85a47.81,47.81,0,0,1-2.19,7c-.75,2.27-1.33,4.56-2,6.92l-.6,1.76c-.22.57-.47,1.14-.73,1.71s-.59,1.1-.9,1.63l-1,1.55a23.82,23.82,0,0,1-5.15,5.41,23.17,23.17,0,0,1-6.63,3.41,18.51,18.51,0,0,1-7.3,1l-.11-.45c2.06-1.3,4-2.48,5.81-3.77s3.53-2.62,5.18-4,3.31-2.76,4.84-4.32l1.11-1.2c.35-.42.71-.83,1.1-1.23s.72-.85,1.1-1.26l1.08-1.31a14.07,14.07,0,0,0,2.84-6.14,23.79,23.79,0,0,0-.21-6.8,12.94,12.94,0,0,1-.13-1.64c0-.54-.06-1.09-.06-1.64l-.14-3.29c-.12-2.22-.32-4.45-.4-6.91Z"/><path class="cls-4" d="M574.38,931.18c-1-2.46-1.92-5-2.73-7.47s-1.56-5-2.25-7.56-1.32-5.08-1.9-7.64-1.1-5.12-1.47-7.72c-.75-5.2-1-10.51-1.92-15.67a122.58,122.58,0,0,0-3.81-15.27c-.76-2.52-1.58-5-2.27-7.56s-1.35-5.08-2-7.62c-1.27-5.09-2.56-10.18-3.55-15.33-.5-2.57-1-5.15-1.36-7.75l-.61-3.89-.54-3.9c-.68-5.22-1.27-10.45-1.47-15.77l.51-.1c2,4.94,3.52,10,5,15l1.07,3.79,1,3.81c.68,2.53,1.29,5.08,1.87,7.64,1.16,5.11,2,10.29,2.92,15.46.44,2.59.89,5.17,1.25,7.77s.64,5.23,1,7.84a120.78,120.78,0,0,0,2.65,15.51c1.24,5.1,3.14,10.06,4.55,15.12.7,2.53,1.28,5.09,1.76,7.66s.94,5.16,1.33,7.76.74,5.2,1,7.83.47,5.26.51,7.93Z"/><path class="cls-4" d="M580.12,890.07c-1.06-2.28-2-4.6-2.79-6.94s-1.61-4.68-2.32-7-1.37-4.74-2-7.13-1.15-4.8-1.54-7.24c-.8-4.88-1.1-9.87-2.07-14.7a109.34,109.34,0,0,0-3.95-14.27c-.78-2.35-1.62-4.68-2.34-7s-1.39-4.74-2-7.11c-1.32-4.76-2.65-9.51-3.69-14.33-.52-2.41-1-4.83-1.44-7.26l-.64-3.65-.58-3.66c-.72-4.89-1.37-9.81-1.62-14.81l.51-.12c2,4.6,3.6,9.28,5.13,14l1.11,3.54,1,3.55c.7,2.37,1.33,4.75,1.94,7.14,1.21,4.78,2.13,9.63,3.06,14.48.47,2.42.94,4.84,1.33,7.28s.68,4.9,1,7.35a109.45,109.45,0,0,0,2.8,14.54c1.28,4.76,3.23,9.37,4.68,14.09.73,2.37,1.33,4.76,1.83,7.17s1,4.83,1.41,7.27.79,4.88,1.06,7.35.52,4.94.58,7.45Z"/><path class="cls-4" d="M641,927.09a52.38,52.38,0,0,1-5.08-8.9q-1.06-2.3-2-4.65a36.38,36.38,0,0,1-1.57-4.8c-.81-3.28-1.15-6.73-2.14-10a49.58,49.58,0,0,0-4-9.3c-.78-1.51-1.61-3-2.33-4.52s-1.39-3.08-2.05-4.63c-1.32-3.1-2.65-6.19-3.71-9.39s-2-6.44-2.7-9.74a73.06,73.06,0,0,1-1.71-10.11l.5-.18a75.3,75.3,0,0,1,5.09,8.89c1.52,3,2.87,6.12,4.1,9.26s2.14,6.37,3.09,9.6c.47,1.62,1,3.23,1.35,4.88s.71,3.32,1.07,5a50.11,50.11,0,0,0,2.85,9.7c1.28,3.11,3.21,6,4.66,9a35.77,35.77,0,0,1,1.84,4.7c.53,1.6,1,3.21,1.42,4.85a52.26,52.26,0,0,1,1.73,10.1Z"/><path class="cls-4" d="M608.64,872.43a62,62,0,0,1-4.57-10.14q-.93-2.6-1.7-5.23a44.14,44.14,0,0,1-1.28-5.34c-.62-3.63-.76-7.38-1.55-11a59.38,59.38,0,0,0-3.42-10.45c-.68-1.71-1.44-3.41-2.07-5.13s-1.21-3.47-1.78-5.21c-1.13-3.49-2.29-7-3.16-10.52s-1.58-7.16-2.13-10.8a87.9,87.9,0,0,1-1.11-11.08l.51-.13A87.45,87.45,0,0,1,591,797.58c1.34,3.43,2.51,6.9,3.55,10.42s1.78,7.1,2.54,10.69c.38,1.79.76,3.58,1.06,5.4s.52,3.65.78,5.47a59,59,0,0,0,2.27,10.76c1.1,3.5,2.87,6.82,4.14,10.26a44.82,44.82,0,0,1,1.57,5.27q.64,2.67,1.14,5.38a62.19,62.19,0,0,1,1.13,11.07Z"/><path class="cls-4" d="M601.54,906.36a30.72,30.72,0,0,1-3.66-6.92c-.46-1.19-.88-2.39-1.24-3.61a20.35,20.35,0,0,1-.83-3.73c-.32-2.54-.14-5.21-.64-7.71a28.64,28.64,0,0,0-2.5-7.22,52.57,52.57,0,0,1-2.95-7.11,69.8,69.8,0,0,1-2.24-7.3,63.35,63.35,0,0,1-1.23-7.56,45.22,45.22,0,0,1-.19-7.83l.51-.13a45.19,45.19,0,0,1,3.69,6.91,68.2,68.2,0,0,1,2.64,7.19,69.75,69.75,0,0,1,1.62,7.46,52.11,52.11,0,0,1,.92,7.64,28.78,28.78,0,0,0,1.37,7.52c.79,2.42,2.26,4.66,3.23,7a20.72,20.72,0,0,1,1.11,3.65c.28,1.24.51,2.5.69,3.77a30.81,30.81,0,0,1,.21,7.82Z"/><path class="cls-8" d="M369.07,488.75c-.27,7.88-3.32,21.43-16,45.36C347,545.54,341,557.07,337,569.42c-27.65,85.64,2.64,183.67,83.87,227.3,119.73,64.3,337.39,35.52,345.7-131.39C770,595.42,741.59,516.07,777.82,451a287.42,287.42,0,0,0-30.41,23.56C717.12,501.43,695,533.5,676.49,569.2c1.46-2.77,3.2-6.09,5-9.6,18.26-34.78,27.38-52.17,28.4-54.64,14.4-34.91,5.7-70.66,4.45-75.55-6.56-25.54-16.71-26.89-19.5-52.71-1.81-16.68,1.48-24.95-2.84-42.39A99,99,0,0,0,677.34,302c2.27,19.28,2.1,46.39-13.33,69.62-12.56,18.91-24.34,18.86-44.82,41.48-28,30.88-40.2,68.75-37,70.67,2.88,1.7,21.21-18,31.84-41.64,20.2-45,12.17-103.44-18.2-134.21-2.31-2.34-12.41-9.95-32.59-25.18-36.78-27.74-38.36-26.92-45.93-34.07-35.3-33.37-34.87-83.52-38.72-82.75-2.74.54.41,25.34,3.88,72.39,2.05,27.75,3.07,41.63,2.62,47.41-2.82,35.83-20.47,40.54-43.33,90.34,0,0-31.55,68.76-20.68,119.15a153.08,153.08,0,0,0,5.33,18.32c6.24,14,11.59,28.73,23,39.74-1.37-1.33-2.06-5.57-2.79-7.39q-1.5-3.81-3.14-7.56-3.35-7.64-7.19-15c-3.37-6.47-5.31-13.76-8.52-20.37a162.89,162.89,0,0,0-10.93-19.07,168.69,168.69,0,0,0-37.38-40.06,164.6,164.6,0,0,0-23.06-14.93q-6.06-3.24-12.38-5.95c-7.89-3.38-11.77-5.24-12.35-4.68C328.15,421.66,370.34,451.89,369.07,488.75Z"/><path class="cls-9" d="M401.27,595.33c-.13.88-.18,1.81-.26,2.22-.41,2.22-.76,4.46-1,6.7-5.64,47.13,23.5,97.91,61.67,124.16,42,28.92,100.37,32.06,145.27,7.83s74.29-74.72,73.19-125.72c-23.05,25.91-60.23,38.38-94.24,31.6,16.89,3.18,30.48-13.63,36.34-29.78s4-33.93,2.41-51-2.64-35.13,4.61-50.71c-40,10.46-73.05,43.92-83.06,84C510,557.42,497.41,499,515.1,450.24a136.4,136.4,0,0,0-18.51,204.23,77,77,0,0,1-9.48.34h-.2a85.14,85.14,0,0,1-22-3.56c-27.91-8.31-49.72-27.37-61-54.47-.32-.78-1-3.94-2-3.25A3,3,0,0,0,401.27,595.33Z"/><path class="cls-9" d="M595.31,455.73c-11.75,20.4-38.5,30.78-60.89,23.6.7.22,5.39-8.36,5.9-9.27A101,101,0,0,0,545.25,460a94.94,94.94,0,0,0,6.44-25.12,49,49,0,0,0-2-22.41c-2.47-7.23-5.48-14.3-7.25-21.76a54.94,54.94,0,0,1-1.16-6.5,48.46,48.46,0,0,1,10.17-35c-1.31,5.56.16,11.12,3,15.94a37.79,37.79,0,0,0,7.45,9c7.13,6.4,15.94,10.7,23.08,17.1C602.49,407,607,435.33,595.31,455.73Z"/><path class="cls-9" d="M338.21,228.89c-2.59,8.16-5.22,16.6-4.38,25.13s6.07,17.22,14.36,19.38c-2.45-10.26,6.58-19.61,8.37-30,1.39-8.06-1.63-16-4.33-23.48-2.37-6.55-6.19-15.17-4.09-22.24C344.79,208.07,341.52,218.49,338.21,228.89Z"/><path class="cls-9" d="M388.24,371.83A20.61,20.61,0,0,0,387,377.6c-.24,4.65,2.15,10.44,6.76,12.27,3.66,1.45,10.11-.85,12.35-3.86,2.87-3.84,2.8-9.16,1.58-13.79s-3.43-9-4.53-13.63a30,30,0,0,1,4.57-23.8c-1.31,1.86-3.25,3.1-4.89,4.64-1.95,1.83-2.7,3.74-3.52,6.23a140.16,140.16,0,0,1-6.33,17C391.53,365.78,389.45,368.46,388.24,371.83Z"/><path class="cls-9" d="M655.09,270.38c2.64,9,3.19,18.54-2.37,25.18-7,8.36-21.15,5.62-22.91-5.72-1-6.32,2.76-12.26,5.21-18.16a48.32,48.32,0,0,0,.21-36.14c2.53,6.28,9,11.47,12.34,17.49A86.69,86.69,0,0,1,655.09,270.38Z"/><path class="cls-9" d="M562.58,207.57c8.24-3.74,14.2-20.93,12.95-29.25s-7.67-15-11.18-22.68A34.4,34.4,0,0,1,562,134.89c1-5.14,3.23-10,4.86-15s2.71-10.37,1.42-15.46-5.5-9.72-10.73-10.1c3.11,6.74,1.78,14.63-.2,21.78-3.93,14.2-10.18,27.7-13.94,41.95-3.07,11.6-8.1,55.71,15.24,51,5.07-1,7.24-5.17,9.38-9.44a45.52,45.52,0,0,0,4-11.64"/><path class="cls-9" d="M706.35,185.93c-1.62,8.46-.23,18.45,6.73,23.52.85.63,6.73-14.07,7.08-15.38a54.39,54.39,0,0,0,1.67-17.51c-.34-5.28-1.14-11.1-4-15.69-3.75-6.09-4-1.26-5.06,3.22C711,171.48,707.78,178.45,706.35,185.93Z"/><path class="cls-9" d="M760,343.38a12.07,12.07,0,0,1-14.34-8.12c-1.64-6,1.72-12.21,5.08-17.49s7-11.18,5.9-17.34a65.06,65.06,0,0,1,9.65,24.63,25.76,25.76,0,0,1,0,10.6c-.86,3.45-3.06,6.72-6.32,8.14s-7.57.57-9.5-2.42"/><circle class="cls-9" cx="802.12" cy="417.79" r="3.58"/><circle class="cls-9" cx="613.04" cy="197.68" r="3.58"/><circle class="cls-9" cx="660.59" cy="74.99" r="3.58"/><circle class="cls-9" cx="497.34" cy="27.39" r="3.58"/><circle class="cls-9" cx="434.58" cy="276.97" r="3.58"/><circle class="cls-9" cx="784.65" cy="209.47" r="5.99"/><circle class="cls-9" cx="301.34" cy="373.71" r="5.99"/><circle class="cls-9" cx="408.34" cy="165.93" r="5.99"/></svg>