<svg id="Camada_1" data-name="Camada 1" xmlns="http://www.w3.org/2000/svg" viewBox="0 0 1080 1080"><defs><style>.cls-1{fill:#913114;}.cls-2{fill:#fff1b8;}.cls-3{fill:#1d1e1c;}.cls-4{fill:#d6c166;}.cls-5{fill:#d25815;}.cls-6{fill:#7f2210;}.cls-7{fill:#f7a61f;}</style></defs><rect class="cls-1" x="169.42" y="386.67" width="211" height="538.44" rx="30.6" transform="translate(-257.95 184.91) rotate(-25.79)"/><rect class="cls-2" x="189.34" y="409.65" width="161.57" height="498.06" rx="25.72" transform="translate(-259.65 183.11) rotate(-25.79)"/><path class="cls-3" d="M98.92,489.88q14.2-7.74,28.83-14.57c4.9-2.24,9.85-4.37,14.72-6.66s9.67-4.72,14.46-7.19,9.58-4.92,14.41-7.3,9.64-4.8,14.49-7.12c9.73-4.61,19.5-9.13,29.42-13.36l.07.15c-9.48,5.13-19.09,10-28.75,14.74-4.84,2.36-9.71,4.64-14.58,6.93s-9.77,4.54-14.68,6.75-9.79,4.48-14.62,6.86-9.57,4.95-14.36,7.39Q113.87,483.7,99,490Z"/><path class="cls-3" d="M107.19,507q14.19-7.74,28.83-14.57c4.89-2.24,9.84-4.38,14.71-6.66s9.68-4.72,14.47-7.19,9.57-4.92,14.4-7.31,9.64-4.79,14.5-7.11c9.73-4.61,19.5-9.13,29.41-13.36l.07.14c-9.47,5.14-19.09,10-28.74,14.75-4.84,2.36-9.72,4.64-14.59,6.93s-9.76,4.54-14.68,6.74-9.79,4.49-14.61,6.87-9.57,4.94-14.37,7.39q-14.45,7.2-29.33,13.52Z"/><path class="cls-3" d="M115.45,524.1q14.2-7.76,28.83-14.58c4.9-2.23,9.85-4.37,14.72-6.66s9.67-4.72,14.46-7.18,9.58-4.92,14.41-7.31,9.64-4.79,14.49-7.11c9.73-4.61,19.5-9.13,29.42-13.36l.07.14c-9.48,5.14-19.09,10-28.75,14.74-4.84,2.37-9.71,4.65-14.58,6.94s-9.77,4.54-14.68,6.74-9.79,4.48-14.62,6.87-9.56,4.94-14.36,7.39q-14.46,7.2-29.34,13.52Z"/><path class="cls-3" d="M123.72,541.21q14.19-7.76,28.83-14.58c4.89-2.24,9.84-4.37,14.71-6.66s9.68-4.72,14.47-7.18,9.57-4.93,14.4-7.31,9.64-4.79,14.5-7.12c9.73-4.61,19.5-9.12,29.41-13.35l.07.14c-9.47,5.14-19.08,10-28.74,14.74-4.84,2.36-9.72,4.64-14.59,6.94s-9.76,4.54-14.67,6.74-9.79,4.48-14.62,6.87-9.57,4.94-14.37,7.38q-14.44,7.21-29.33,13.53Z"/><path class="cls-3" d="M132,558.31q14.19-7.74,28.82-14.57c4.9-2.24,9.85-4.37,14.72-6.66s9.68-4.72,14.46-7.19,9.58-4.92,14.41-7.3,9.64-4.8,14.49-7.12c9.73-4.61,19.51-9.13,29.42-13.36l.07.15c-9.48,5.14-19.09,10-28.75,14.74-4.84,2.36-9.71,4.64-14.58,6.93s-9.77,4.54-14.68,6.75-9.79,4.48-14.62,6.86-9.56,5-14.36,7.39q-14.46,7.2-29.34,13.53Z"/><path class="cls-3" d="M140.25,575.42q14.19-7.74,28.83-14.57c4.9-2.24,9.84-4.37,14.72-6.66s9.67-4.72,14.46-7.19,9.58-4.92,14.4-7.3,9.64-4.8,14.5-7.12c9.73-4.61,19.5-9.13,29.41-13.36l.07.15c-9.47,5.13-19.08,10-28.74,14.74-4.84,2.36-9.72,4.64-14.59,6.93s-9.76,4.54-14.67,6.75-9.79,4.48-14.62,6.86-9.57,5-14.36,7.39q-14.46,7.2-29.34,13.53Z"/><path class="cls-3" d="M148.52,592.53q14.19-7.74,28.82-14.57c4.9-2.24,9.85-4.38,14.72-6.67s9.68-4.72,14.46-7.18,9.58-4.92,14.41-7.31,9.64-4.79,14.49-7.11c9.73-4.61,19.51-9.13,29.42-13.36l.07.14c-9.47,5.14-19.09,10-28.75,14.75-4.83,2.36-9.71,4.64-14.58,6.93s-9.76,4.54-14.68,6.74-9.79,4.49-14.62,6.87-9.56,4.94-14.36,7.39q-14.46,7.2-29.33,13.52Z"/><path class="cls-3" d="M156.78,609.64q14.19-7.75,28.83-14.58c4.9-2.24,9.84-4.37,14.72-6.66s9.67-4.72,14.46-7.18,9.58-4.93,14.4-7.31,9.64-4.79,14.5-7.11c9.73-4.62,19.5-9.13,29.42-13.36l.06.14c-9.47,5.14-19.08,10-28.74,14.74-4.84,2.36-9.71,4.65-14.59,6.94s-9.76,4.54-14.67,6.74-9.79,4.48-14.62,6.87-9.57,4.94-14.36,7.39q-14.46,7.2-29.34,13.52Z"/><path class="cls-3" d="M165.05,626.75q14.19-7.75,28.83-14.58c4.89-2.24,9.84-4.37,14.71-6.66s9.68-4.72,14.46-7.18,9.58-4.93,14.41-7.31,9.64-4.79,14.5-7.12c9.72-4.61,19.5-9.13,29.41-13.35l.07.14c-9.47,5.14-19.09,10-28.75,14.74-4.83,2.36-9.71,4.64-14.58,6.94s-9.76,4.54-14.68,6.74-9.79,4.48-14.61,6.86-9.57,4.95-14.37,7.39q-14.46,7.21-29.33,13.53Z"/><path class="cls-3" d="M173.31,643.85q14.19-7.74,28.83-14.57c4.9-2.24,9.84-4.37,14.72-6.66s9.67-4.72,14.46-7.19,9.58-4.92,14.4-7.3,9.64-4.8,14.5-7.12c9.73-4.61,19.5-9.13,29.42-13.36l.07.15c-9.48,5.13-19.09,10-28.75,14.74-4.84,2.36-9.71,4.64-14.58,6.93s-9.77,4.54-14.68,6.75-9.79,4.48-14.62,6.86-9.57,4.95-14.36,7.39q-14.46,7.2-29.34,13.53Z"/><path class="cls-3" d="M181.58,661q14.19-7.74,28.83-14.57c4.89-2.24,9.84-4.37,14.71-6.66s9.68-4.72,14.47-7.19,9.57-4.92,14.4-7.31,9.64-4.79,14.5-7.11c9.73-4.61,19.5-9.13,29.41-13.36l.07.14c-9.47,5.14-19.09,10-28.75,14.75-4.83,2.36-9.71,4.64-14.58,6.93s-9.76,4.54-14.68,6.75-9.79,4.48-14.61,6.86-9.57,4.95-14.37,7.39q-14.44,7.2-29.33,13.53Z"/><path class="cls-3" d="M189.84,678.07q14.21-7.74,28.83-14.58c4.9-2.23,9.85-4.37,14.72-6.66s9.67-4.72,14.46-7.18,9.58-4.92,14.41-7.31,9.64-4.79,14.49-7.11c9.73-4.61,19.5-9.13,29.42-13.36l.07.14c-9.48,5.14-19.09,10-28.75,14.75-4.84,2.36-9.71,4.64-14.58,6.93s-9.77,4.54-14.68,6.74-9.79,4.48-14.62,6.87-9.56,4.94-14.36,7.39q-14.46,7.2-29.34,13.52Z"/><path class="cls-3" d="M198.11,695.18q14.19-7.75,28.83-14.58c4.89-2.24,9.84-4.37,14.71-6.66s9.68-4.72,14.47-7.18,9.57-4.93,14.4-7.31,9.64-4.79,14.5-7.12c9.73-4.61,19.5-9.12,29.41-13.35l.07.14c-9.47,5.14-19.09,10-28.74,14.74-4.84,2.36-9.72,4.65-14.59,6.94s-9.76,4.54-14.67,6.74-9.8,4.48-14.62,6.87-9.57,4.94-14.37,7.39q-14.44,7.2-29.33,13.52Z"/><path class="cls-3" d="M206.38,712.29q14.19-7.75,28.82-14.58c4.9-2.24,9.85-4.37,14.72-6.66s9.67-4.72,14.46-7.19,9.58-4.92,14.41-7.3,9.64-4.79,14.49-7.12c9.73-4.61,19.51-9.13,29.42-13.35l.07.14c-9.48,5.14-19.09,10-28.75,14.74-4.84,2.36-9.71,4.64-14.58,6.94s-9.77,4.53-14.68,6.74-9.79,4.48-14.62,6.86-9.56,5-14.36,7.39q-14.46,7.2-29.34,13.53Z"/><path class="cls-3" d="M214.64,729.39q14.19-7.74,28.83-14.57c4.89-2.24,9.84-4.37,14.71-6.66s9.68-4.72,14.47-7.19,9.58-4.92,14.4-7.3,9.64-4.8,14.5-7.12c9.73-4.61,19.5-9.13,29.41-13.36l.07.15c-9.47,5.13-19.08,10-28.74,14.74-4.84,2.36-9.72,4.64-14.59,6.93s-9.76,4.54-14.67,6.75-9.79,4.48-14.62,6.86-9.57,5-14.37,7.39q-14.44,7.2-29.33,13.53Z"/><path class="cls-3" d="M222.91,746.5q14.19-7.74,28.82-14.57c4.9-2.24,9.85-4.38,14.72-6.66s9.68-4.73,14.46-7.19,9.58-4.92,14.41-7.31,9.64-4.79,14.49-7.11c9.73-4.61,19.51-9.13,29.42-13.36l.07.14c-9.48,5.14-19.09,10-28.75,14.75-4.83,2.36-9.71,4.64-14.58,6.93s-9.76,4.54-14.68,6.74-9.79,4.49-14.62,6.87-9.56,4.94-14.36,7.39q-14.46,7.2-29.33,13.52Z"/><path class="cls-3" d="M231.17,763.61Q245.36,755.86,260,749c4.9-2.23,9.84-4.37,14.72-6.66s9.67-4.72,14.46-7.18,9.58-4.92,14.4-7.31,9.64-4.79,14.5-7.11c9.73-4.62,19.5-9.13,29.41-13.36l.07.14c-9.47,5.14-19.08,10-28.74,14.74-4.84,2.37-9.72,4.65-14.59,6.94s-9.76,4.54-14.67,6.74-9.79,4.48-14.62,6.87-9.57,4.94-14.37,7.39q-14.44,7.2-29.33,13.52Z"/><path class="cls-3" d="M239.44,780.72q14.19-7.76,28.82-14.58c4.9-2.24,9.85-4.37,14.72-6.66s9.68-4.72,14.46-7.18,9.58-4.93,14.41-7.31,9.64-4.79,14.49-7.12c9.73-4.61,19.51-9.12,29.42-13.35l.07.14c-9.47,5.14-19.09,10-28.75,14.74-4.83,2.36-9.71,4.64-14.58,6.94s-9.76,4.54-14.68,6.74S288,757.56,283.21,760s-9.57,4.94-14.37,7.38q-14.46,7.21-29.33,13.53Z"/><path class="cls-3" d="M247.7,797.82q14.19-7.74,28.83-14.57c4.9-2.24,9.84-4.37,14.72-6.66s9.67-4.72,14.46-7.19,9.58-4.92,14.4-7.3,9.64-4.8,14.5-7.12c9.73-4.61,19.5-9.13,29.42-13.36l.06.15c-9.47,5.14-19.08,10-28.74,14.74-4.84,2.36-9.71,4.64-14.59,6.93S311,768,306.09,770.19s-9.79,4.48-14.62,6.86-9.57,5-14.36,7.39q-14.46,7.2-29.34,13.53Z"/><path class="cls-3" d="M256,814.93q14.19-7.74,28.83-14.57c4.89-2.24,9.84-4.37,14.71-6.66s9.68-4.72,14.46-7.19,9.58-4.92,14.41-7.3,9.64-4.8,14.5-7.12c9.72-4.61,19.5-9.13,29.41-13.36l.07.15c-9.47,5.13-19.09,10-28.75,14.74-4.83,2.36-9.71,4.64-14.58,6.93s-9.76,4.54-14.68,6.75-9.79,4.48-14.61,6.86-9.57,5-14.37,7.39q-14.44,7.2-29.33,13.53Z"/><path class="cls-3" d="M264.23,832q14.2-7.74,28.83-14.57c4.9-2.24,9.85-4.38,14.72-6.67s9.67-4.72,14.46-7.18,9.58-4.92,14.4-7.31,9.65-4.79,14.5-7.11c9.73-4.61,19.5-9.13,29.42-13.36l.07.14c-9.48,5.14-19.09,10-28.75,14.75-4.84,2.36-9.71,4.64-14.58,6.93s-9.77,4.54-14.68,6.74-9.79,4.49-14.62,6.87-9.57,4.94-14.36,7.39q-14.46,7.2-29.34,13.52Z"/><path class="cls-3" d="M272.5,849.15q14.19-7.75,28.83-14.58c4.89-2.24,9.84-4.37,14.71-6.66s9.68-4.72,14.47-7.18,9.57-4.93,14.4-7.31,9.64-4.79,14.5-7.11c9.73-4.62,19.5-9.13,29.41-13.36l.07.14c-9.47,5.14-19.09,10-28.74,14.74-4.84,2.36-9.72,4.65-14.59,6.94s-9.76,4.54-14.67,6.74-9.8,4.48-14.62,6.87-9.57,4.94-14.37,7.39q-14.44,7.2-29.33,13.52Z"/><path class="cls-3" d="M280.76,866.26q14.21-7.75,28.83-14.58c4.9-2.24,9.85-4.37,14.72-6.66s9.67-4.72,14.46-7.18,9.58-4.93,14.41-7.31,9.64-4.79,14.49-7.12c9.73-4.61,19.5-9.13,29.42-13.35l.07.14c-9.48,5.14-19.09,10-28.75,14.74-4.84,2.36-9.71,4.64-14.58,6.94s-9.77,4.54-14.68,6.74-9.79,4.48-14.62,6.86-9.56,4.95-14.36,7.39q-14.46,7.21-29.34,13.53Z"/><path class="cls-3" d="M289,883.36q14.19-7.74,28.83-14.57c4.89-2.24,9.84-4.37,14.71-6.66s9.68-4.72,14.47-7.19,9.57-4.92,14.4-7.3,9.64-4.8,14.5-7.12c9.73-4.61,19.5-9.13,29.41-13.36l.07.15c-9.47,5.13-19.08,10-28.74,14.74-4.84,2.36-9.72,4.64-14.59,6.93s-9.76,4.54-14.67,6.75-9.8,4.48-14.62,6.86-9.57,4.95-14.37,7.39q-14.44,7.2-29.33,13.53Z"/><path class="cls-3" d="M297.3,900.47q14.19-7.74,28.82-14.57c4.9-2.24,9.85-4.38,14.72-6.66s9.67-4.72,14.46-7.19,9.58-4.92,14.41-7.31,9.64-4.79,14.49-7.11c9.73-4.61,19.51-9.13,29.42-13.36l.07.14c-9.48,5.14-19.09,10-28.75,14.75-4.84,2.36-9.71,4.64-14.58,6.93s-9.77,4.54-14.68,6.75-9.79,4.48-14.62,6.86-9.56,4.95-14.36,7.39q-14.46,7.2-29.34,13.52Z"/><rect class="cls-3" x="160.05" y="453.5" width="74.98" height="18.1" transform="translate(-181.55 132) rotate(-25.79)"/><rect class="cls-3" x="168.74" y="471.49" width="74.98" height="18.1" transform="translate(-188.51 137.57) rotate(-25.79)"/><rect class="cls-3" x="184.81" y="504.28" width="74.98" height="18.1" transform="translate(-201.18 147.83) rotate(-25.79)"/><rect class="cls-3" x="193.5" y="522.28" width="74.98" height="18.1" transform="translate(-208.14 153.4) rotate(-25.79)"/><rect class="cls-3" x="242.47" y="624.1" width="74.98" height="18.1" transform="translate(-247.56 184.84) rotate(-25.79)"/><rect class="cls-3" x="251.17" y="642.1" width="74.98" height="18.1" transform="translate(-254.52 190.42) rotate(-25.79)"/><rect class="cls-3" x="300.33" y="743.86" width="74.98" height="18.1" transform="translate(-293.89 221.94) rotate(-25.79)"/><rect class="cls-3" x="309.03" y="761.85" width="74.98" height="18.1" transform="translate(-300.85 227.51) rotate(-25.79)"/><rect class="cls-3" x="209.18" y="555.2" width="74.98" height="18.1" transform="translate(-220.9 163.5) rotate(-25.79)"/><rect class="cls-3" x="217.88" y="573.19" width="74.98" height="18.1" transform="translate(-227.86 169.07) rotate(-25.79)"/><rect class="cls-3" x="226.6" y="591.25" width="74.98" height="18.1" transform="translate(-234.85 174.67) rotate(-25.79)"/><rect class="cls-3" x="267.04" y="674.95" width="74.98" height="18.1" transform="translate(-267.23 200.59) rotate(-25.79)"/><rect class="cls-3" x="275.73" y="692.94" width="74.98" height="18.1" transform="translate(-274.19 206.17) rotate(-25.79)"/><rect class="cls-3" x="284.46" y="711" width="74.98" height="18.1" transform="translate(-281.18 211.76) rotate(-25.79)"/><rect class="cls-3" x="324.9" y="794.71" width="74.98" height="18.1" transform="translate(-313.57 237.69) rotate(-25.79)"/><rect class="cls-3" x="333.59" y="812.7" width="74.98" height="18.1" transform="translate(-320.53 243.26) rotate(-25.79)"/><rect class="cls-3" x="342.32" y="830.76" width="74.98" height="18.1" transform="translate(-327.52 248.86) rotate(-25.79)"/><path class="cls-2" d="M726.25,198.62l-14.53,2-13.33-14.33-11,17.67-.71.1-13.32-15.4L663.1,207.29l-.63.08-14.53-13.92-12.81,17.68-1.53.21-14-11.58-11,15-.54.07-15.81-9.35-10.65,13-.37.05-18.6-10.63-11.88,14.82-.15,0-16-9.22-4.15,12h0L520,218.22l-7.58,16.93h0l-18.4-5.07-8.95,19.75h0l-16.46-4.34-7.49,17.2-18.07-5.8-4.68,18-.82.44-21.17-6.95-3.71,20.31L393,279.42l-1.82,20.85h0l-19.86-8.1-2.5,20.11h0l-5.56,3L593.17,771.88l7,21.72,8.7,3L613.28,774,632,778.88l3.74-18.6,18.67,1.84,4.24-16.49,21.61,1.81,4.53-18.54,16.7,1.47.36.62.61-.53.81.07-.07-.71,12.43-10.77.42,0,14.36,12.21,16.45-14.14L759.9,728,774,715.52l13.93,12.88,12.28-14.88,6.72,6.29-3.3-10.18,4-.42Z"/><path class="cls-4" d="M530.57,225.45c7.36,20.83,14.41,41.76,21.42,62.7q5.25,15.71,10.37,31.46t10.13,31.54l9.78,31.65c3.25,10.55,6.5,21.1,9.85,31.63Q602.2,446,612.87,477.34t21,62.84c6.9,21,13.83,41.94,20.59,63,13.45,42.07,26.71,84.2,39.35,126.53l-.3.1c-14.57-41.71-28.52-83.62-42.28-125.59-6.84-21-13.51-42-20.21-63.09s-13.3-42.11-19.81-63.22S598,435.72,591.14,414.74c-3.45-10.49-7-20.94-10.55-31.4L570,352q-5.25-15.7-10.29-31.48t-10-31.57c-6.59-21.08-13.14-42.17-19.39-63.36Z"/><path class="cls-4" d="M550.84,222.67c6.91,21,13.52,42,20.08,63.08q4.91,15.81,9.7,31.64t9.45,31.72l9.11,31.82c3,10.61,6.05,21.22,9.17,31.8,6.27,21.16,12.79,42.24,19.4,63.29s13.22,42.1,19.66,63.2,12.94,42.19,19.25,63.33c12.55,42.31,24.9,84.67,36.64,127.22l-.31.09c-13.67-42-26.73-84.12-39.58-126.33-6.4-21.12-12.62-42.28-18.87-63.44s-12.4-42.35-18.46-63.57S613.81,434.13,607.36,413c-3.22-10.55-6.54-21.07-9.88-31.59l-10-31.57q-4.89-15.8-9.61-31.67t-9.36-31.74c-6.13-21.2-12.24-42.4-18-63.7Z"/><path class="cls-4" d="M581.69,218.44c6.16,20.71,12,41.5,17.8,62.29Q603.81,296.34,608,312t8.3,31.31l7.95,31.4c2.64,10.47,5.28,20.94,8,31.38,5.5,20.88,11.25,41.69,17.1,62.48s11.69,41.58,17.36,62.41,11.41,41.65,17,62.52c11,41.75,21.83,83.56,32,125.54l-.31.08c-12.15-41.45-23.67-83.07-35-124.74-5.62-20.85-11.08-41.74-16.56-62.63S653,489.93,647.72,469,637,427.16,631.31,406.33c-2.84-10.42-5.79-20.81-8.74-31.19L613.77,344q-4.32-15.62-8.46-31.27t-8.21-31.33c-5.36-20.91-10.7-41.84-15.71-62.85Z"/><path class="cls-4" d="M608.16,214.81c5.67,21.38,11,42.84,16.34,64.3q4,16.11,7.82,32.23t7.56,32.29L647.1,376c2.39,10.79,4.79,21.59,7.29,32.35,5,21.54,10.27,43,15.64,64.47s10.71,42.9,15.9,64.4,10.43,43,15.49,64.5c10,43.06,19.88,86.18,29.09,129.44l-.31.07C719,688.45,708.47,645.5,698.12,602.51,693,581,688,559.46,683,537.92s-9.89-43.11-14.69-64.69-9.76-43.13-15-64.63c-2.6-10.74-5.29-21.46-8-32.18l-8.08-32.18q-4-16.1-7.73-32.25t-7.47-32.31c-4.88-21.57-9.73-43.14-14.25-64.79Z"/><path class="cls-4" d="M635.28,211.09c5.23,21,10.14,42,15,63q3.63,15.78,7.15,31.59t6.9,31.64L670.89,369c2.17,10.58,4.34,21.15,6.62,31.7,4.56,21.11,9.39,42.15,14.31,63.17s9.82,42,14.57,63.11,9.54,42.11,14.15,63.2c9.15,42.2,18.1,84.44,26.42,126.82l-.31.06c-10.29-41.94-20-84-29.42-126.15-4.7-21.07-9.22-42.18-13.77-63.29s-9-42.23-13.35-63.37S681.25,422,676.5,401c-2.38-10.53-4.85-21-7.34-31.54l-7.41-31.53q-3.63-15.78-7.06-31.6t-6.81-31.66c-4.43-21.13-8.83-42.27-12.91-63.48Z"/><path class="cls-4" d="M662.63,207.34c4.68,21.55,9,43.16,13.35,64.77q3.22,16.22,6.32,32.45t6.07,32.5l5.71,32.57c1.89,10.86,3.79,21.71,5.79,32.55,4,21.68,8.28,43.3,12.64,64.9s8.72,43.22,12.91,64.86,8.44,43.26,12.49,64.93c8,43.34,15.88,86.72,23.08,130.22l-.31.06c-9.19-43.13-17.75-86.37-26.1-129.65-4.14-21.65-8.11-43.33-12.1-65s-7.88-43.37-11.68-65.08-7.76-43.4-11.95-65c-2.1-10.81-4.3-21.61-6.51-32.41l-6.58-32.4q-3.21-16.21-6.23-32.47t-6-32.52c-3.88-21.7-7.72-43.4-11.24-65.17Z"/><path class="cls-4" d="M687.53,203.93c4.18,21.22,8.05,42.49,11.88,63.77q2.85,16,5.58,31.94t5.33,32l5,32c1.64,10.69,3.29,21.37,5,32,3.52,21.33,7.3,42.61,11.18,63.88s7.74,42.54,11.44,63.84,7.45,42.59,11,63.91C761,630,767.88,672.69,774.1,715.49l-.31,0c-8.21-42.46-15.79-85-23.16-127.63-3.65-21.31-7.13-42.64-10.63-64s-6.89-42.68-10.2-64-6.77-42.7-10.47-64c-1.86-10.65-3.81-21.28-5.78-31.91l-5.84-31.9q-2.85-16-5.5-32t-5.23-32c-3.39-21.35-6.74-42.71-9.77-64.13Z"/><path class="cls-4" d="M512.6,235.1c7.73,20.38,15.16,40.86,22.55,61.36q5.52,15.39,10.93,30.8t10.69,30.89l10.36,31c3.43,10.34,6.88,20.67,10.42,31,7.09,20.6,14.43,41.12,21.87,61.6s14.86,41,22.13,61.51,14.58,41.07,21.72,61.66c14.21,41.19,28.22,82.46,41.62,123.94l-.3.11c-15.31-40.82-30-81.84-44.52-122.94-7.22-20.55-14.27-41.17-21.35-61.78s-14.06-41.25-21-61.93-13.93-41.29-21.2-61.83c-3.64-10.27-7.37-20.51-11.12-30.74L554.27,359q-5.52-15.37-10.85-30.83t-10.6-30.92c-7-20.64-13.9-41.3-20.52-62.07Z"/><path class="cls-4" d="M485.25,249.78c8.68,20.52,17.05,41.15,25.39,61.81q6.23,15.5,12.36,31t12.11,31.13L546.9,405c3.91,10.43,7.83,20.85,11.85,31.24,8,20.77,16.33,41.44,24.72,62.07s16.75,41.27,25,62,16.48,41.38,24.57,62.13c16.11,41.53,32,83.13,47.34,125l-.29.11c-17.2-41.1-33.8-82.43-50.21-123.84-8.17-20.72-16.17-41.5-24.2-62.27s-16-41.59-23.81-62.43S566,457.33,557.79,436.63q-6.18-15.53-12.54-31l-12.6-30.94q-6.24-15.5-12.28-31.07t-12-31.16c-7.92-20.82-15.8-41.65-23.39-62.6Z"/><path class="cls-4" d="M461.3,262.64c8.77,19.9,17.24,39.92,25.68,60q6.3,15,12.5,30.11t12.26,30.22l11.93,30.35c4,10.12,7.94,20.24,12,30.32,8.14,20.16,16.53,40.21,25,60.23s17,40.05,25.26,60.13,16.68,40.15,24.87,60.29c16.3,40.31,32.41,80.69,47.93,121.32l-.29.12c-17.39-39.86-34.18-80-50.79-120.15-8.26-20.11-16.37-40.28-24.49-60.44s-16.16-40.37-24.1-60.61-16-40.41-24.35-60.5c-4.16-10-8.42-20-12.69-30l-12.74-30q-6.3-15-12.42-30.15t-12.18-30.25c-8-20.21-16-40.43-23.68-60.77Z"/><path class="cls-4" d="M437.72,275.3c9.57,20,18.84,40.21,28.08,60.4q6.92,15.17,13.71,30.35T493,396.51l13.15,30.6c4.37,10.21,8.74,20.41,13.21,30.57,8.95,20.32,18.14,40.53,27.42,60.7s18.56,40.35,27.67,60.59,18.29,40.47,27.29,60.77c17.92,40.63,35.64,81.34,52.79,122.31l-.29.13c-19-40.15-37.39-80.56-55.6-121.06-9.08-20.27-18-40.6-26.92-60.93s-17.77-40.69-26.53-61.1-17.65-40.74-26.77-61c-4.56-10.11-9.22-20.19-13.89-30.27l-13.95-30.24q-6.9-15.15-13.62-30.39t-13.39-30.49c-8.83-20.38-17.62-40.76-26.12-61.28Z"/><path class="cls-4" d="M412.84,288.65c9.82,19.4,19.35,38.94,28.85,58.49q7.1,14.67,14.09,29.4T469.64,406l13.54,29.66c4.5,9.9,9,19.79,13.61,29.63C506,485,515.45,504.6,525,524.13s19.07,39.06,28.44,58.67,18.81,39.2,28.06,58.86c18.44,39.37,36.69,78.82,54.36,118.55l-.29.13c-19.5-38.86-38.41-78-57.14-117.23-9.33-19.63-18.5-39.33-27.69-59s-18.3-39.43-27.31-59.21-18.18-39.49-27.55-59.09q-7-14.71-14.28-29.32l-14.33-29.28q-7.1-14.69-14-29.44t-13.78-29.55c-9.09-19.74-18.15-39.5-26.91-59.4Z"/><path class="cls-4" d="M391.34,300.2c10.56,19.68,20.82,39.5,31.05,59.34q7.67,14.9,15.21,29.84t15,29.95l14.66,30.11q7.29,15.06,14.71,30.08c9.95,20,20.14,39.84,30.41,59.66s20.54,39.65,30.66,59.55,20.28,39.77,30.27,59.73c19.92,40,39.65,80,58.81,120.35l-.28.14c-21-39.43-41.36-79.15-61.56-119-10.07-19.92-20-39.92-29.92-59.92s-19.78-40-29.53-60.1S491.14,499.88,481,480c-5.06-10-10.22-19.85-15.38-29.75L450.2,420.52q-7.65-14.89-15.12-29.88t-14.89-30c-9.83-20-19.63-40.1-29.13-60.31Z"/><path class="cls-4" d="M613.14,774.09C602.23,755,591.62,735.75,581,716.48q-7.92-14.46-15.74-29t-15.5-29.1l-15.2-29.27Q527,614.5,519.34,599.91,503.87,570.78,487.86,542t-31.71-57.82c-10.49-19.32-21-38.63-31.34-58-20.64-38.82-41.09-77.74-61-117l.28-.15c21.66,38.26,42.76,76.84,63.68,115.5,10.42,19.36,20.69,38.79,31,58.22s20.5,38.89,30.62,58.41,20.38,39,30.85,58.28q7.86,14.49,15.9,28.89l16,28.85q7.92,14.46,15.66,29t15.42,29.14c10.19,19.48,20.35,39,30.22,58.62Z"/><rect class="cls-5" x="290.74" y="308.13" width="210.4" height="567.86" rx="31.31" transform="translate(-218.13 231.2) rotate(-25.79)"/><rect class="cls-6" x="314.05" y="326.15" width="165.62" height="526.68" rx="26.77" transform="translate(-216.92 231.35) rotate(-25.79)"/><path class="cls-7" d="M289.15,391.76l3.19,3.6a10.39,10.39,0,0,1-.72,1.55c-9.41,12.81-8,25.48-.12,38.48,8,13.3,18.88,23.9,30.76,33.52,13.8,11.17,28.08,21.74,42,32.82a250.55,250.55,0,0,1,31.95,30.1c.95,1.09,1.79,2.27,2.94,3.74l-5.4,4.33c-1.18-1.09-2.1-1.81-2.87-2.66-13.4-14.93-28.53-27.94-44.32-40.24-14.83-11.54-29.88-22.81-43.56-35.76-9.67-9.16-17.76-19.44-22.75-31.92C275.13,416.6,278.56,401.53,289.15,391.76Z"/><path class="cls-7" d="M505,788.16l-3.47-4.06c.66-1,1.12-1.73,1.62-2.43,6.6-9.22,7.49-19.15,3.26-29.48a76,76,0,0,0-14.76-22.54c-13.8-15-29.92-27.31-46.17-39.46-16.5-12.33-32.45-25.3-46.35-40.6-1.19-1.32-2.33-2.68-3.46-4-.17-.2-.17-.55-.36-1.21.72-.62,1.55-1.39,2.42-2.1s1.64-1.23,2.65-2a11.17,11.17,0,0,1,2.09,1.44c14.34,16.1,30.85,29.78,47.67,43.14q19.47,15.46,38.44,31.53a93.17,93.17,0,0,1,22,27.08c7.42,13.88,7.7,27.4-1.82,40.48C507.8,785.22,506.61,786.34,505,788.16Z"/><path class="cls-7" d="M439.54,762.05l-3.62.94a15.83,15.83,0,0,1-.85-1.77c-4.7-15-6-30.45-6.65-46-.36-8.27-.43-16.56-.63-25-26.05-22.14-49.31-46.67-65-77.92l3.62-2.18c16.23,31.42,41.56,54.49,68.12,76.94,0,5,.08,10.18,0,15.33-.19,15.1-.3,30.2,2,45.18C437.26,752.2,438.44,756.78,439.54,762.05Z"/><path class="cls-7" d="M337.5,503.25c-18.85-15.68-38.05-30.41-52-51.07l3-3.07c15.18,21.13,36.23,35.19,55.7,50.87,1.1,34.56,3.33,68.63,17.83,100.93L358.26,603C343.47,571.1,338.67,537.65,337.5,503.25Z"/><path class="cls-7" d="M449.89,679.43c-.3-5.94-.59-11.84-.88-17.74-1-19.69-2.94-39.27-8.37-58.31-1.9-6.67-4.48-13.14-6.79-19.69-.54-1.52-1.24-3-2-4.75l3.34-2.22a68.48,68.48,0,0,1,5.48,11.78c10.19,27,14.48,55.15,15.66,83.85.05,1.18.14,2.35.22,3.9,2,1.7,4.05,3.57,6.22,5.33,13.56,11,26.84,22.36,38.05,35.87,2.7,3.27,5.15,6.75,7.93,10.42l-3.47,2.31c-1.18-1.52-2.18-2.75-3.12-4-8.32-11.36-19.24-20-30-28.79-6.21-5-12.52-9.94-18.77-14.92C452.21,681.52,451.14,680.52,449.89,679.43Z"/><path class="cls-7" d="M366.21,489.39c26,22.4,49.19,46.88,64.86,78l-3.6,2.34c-16-31.59-41.41-54.59-68.08-77.19,0-6.52,0-13.3.12-20.07.26-14.23,0-28.43-2.38-42.49-.68-3.92-1.72-7.77-2.71-12.18l3.73-1.24C365.86,440.47,365.58,464.79,366.21,489.39Z"/><path class="cls-7" d="M309.74,387.05l-.62-4.92c5.44-1.19,10.36-.34,15.16,1.17,11.75,3.7,18.84,12.1,23.45,23.18,5.84,14.06,7.56,28.85,8,43.83.36,11.08.12,22.18.13,33.28,0,.71-.15,1.43-.29,2.83l-7.13-4.57c0-4.36.08-8.62.11-12.89.1-13.91,0-27.8-2.56-41.56A90.8,90.8,0,0,0,340,407.5c-5.4-12.32-14.34-19.67-28.22-20.09A18,18,0,0,1,309.74,387.05Z"/><path class="cls-7" d="M438.27,693l7.17,4.9c0,8.88-.13,17.44-.07,26,.09,12.6.91,25.16,4.72,37.25,1.89,6,4.12,12.14,7.44,17.44,5.4,8.64,13.67,13.28,24.1,13.52a15,15,0,0,1,1.76.19,6,6,0,0,1,.73.27c.17.61.46,1.41.62,2.23a24.31,24.31,0,0,1,.19,2.45,16.18,16.18,0,0,1-3,.66c-14.09.43-24.94-5.28-32.09-17.48-5.3-9-8.05-19-9.64-29.31a235.67,235.67,0,0,1-2.36-41.12C438,704.75,438.12,699.44,438.27,693Z"/><path class="cls-7" d="M392.25,629.4l-5.48,5.35a162.33,162.33,0,0,1-31.32-64.51l7.5-1.13A171.4,171.4,0,0,0,392.25,629.4Z"/><path class="cls-7" d="M430.82,610.75a159.93,159.93,0,0,0-28.65-59.91,11.7,11.7,0,0,1,1.16-1.78c1.13-1.15,2.33-2.24,4-3.82,15.28,19,25.28,40.2,31.16,64.2Z"/><path class="cls-7" d="M348.83,504l6.66,5.55c1.32,15.83,2.58,31,3.88,46.62l-5.77,1.45C350.44,552,347,513.42,348.83,504Z"/><path class="cls-7" d="M445.29,675.75l-6.74-5.4c-1.33-15.78-2.61-30.92-3.94-46.67l5.6-1.37C443.43,627.7,446.82,663.22,445.29,675.75Z"/><path class="cls-7" d="M342.68,469.64l-.25,7.4c-13.92-9.26-27-18.4-38.47-30.15,1.21-1,1.94-1.68,2.74-2.24s1.51-.89,2.18-1.28Z"/><path class="cls-7" d="M490.33,733l-5.11,3.37-33.84-26.06c0-2,.05-4.43.09-7.69C465.52,711.83,478.35,721.34,490.33,733Z"/><path class="cls-7" d="M401.08,558.36l-3.77,1.82-34.84-37.64-.63.4-.37-6.59C376.51,529.41,390.05,542.4,401.08,558.36Z"/><path class="cls-7" d="M392.89,621.34l3.89-2.23c5.77,6.59,11.24,13.15,17,19.39s12,12.23,18.41,18.73l.21,4.59-.87.47C417.12,650.32,404,637.06,392.89,621.34Z"/><path class="cls-7" d="M450.75,713.82l6.33,4.53c0,10.55,0,20.73,0,31.51l-5.72,1.61C448.87,739,450.66,727,450.75,713.82Z"/><path class="cls-7" d="M336.83,429.9l5.85-2.13c2.15,12.59.68,25,.39,38.1l-6.13-4.47C336.9,451,336.87,440.72,336.83,429.9Z"/><path class="cls-7" d="M419.9,608.22l3.52-1.7c3.73,5.19,9.3,38.74,7.6,46.3l-4-3.44c-1-7-1.93-13.83-3.11-20.64S421.26,615.18,419.9,608.22Z"/><path class="cls-7" d="M362,526.43c3.13,1.91,5.14,3.58,5.6,6.76,1.88,12.69,3.89,25.37,5.92,38.48l-3.63,1.75C365.18,558.18,363.27,542.74,362,526.43Z"/><path class="cls-7" d="M300.34,432l-4.56,3.63c-9.7-8.78-10.15-29.67-.6-37.62L297,400.3C290.53,411.59,294.65,421.77,300.34,432Z"/><path class="cls-7" d="M493.83,747.4l4.32-3.43c9.51,8.87,10.09,27.66,1,37.82l-2.26-2C501.87,767.79,501.78,766.9,493.83,747.4Z"/><path class="cls-7" d="M333.48,416c-4.38-10.84-10.11-20-23-22.27l-.43-3c12.73-1.82,26.89,9.9,29.27,24.06Z"/><path class="cls-7" d="M454.25,765.16l6.23-1.41c4.53,10.33,9.75,20.13,22.66,22.16l1.09,2.92c-3.2,1.11-6.13.52-8.86-.35C464,784.88,458.28,776.15,454.25,765.16Z"/><path class="cls-7" d="M284.28,442.25l-3.15,1.52c-13-17.7-10.07-43,4.51-54.76l1.59,1.37c-6.23,7.29-10.56,15.36-10.88,25.07S279,433.72,284.28,442.25Z"/><path class="cls-7" d="M439.23,771.53l3.06-1.47a20.94,20.94,0,0,1,1.09,2c3.29,8.25,8.05,15.41,15.31,20.71a36.12,36.12,0,0,0,22.42,7c1.17,0,2.33,0,3.74.09l.35,2.06C470,805.48,447.24,796.11,439.23,771.53Z"/><path class="cls-7" d="M354.56,408.48l-2.95,1.13c-1.43-3-2.66-5.77-4.12-8.47-4.33-8-10.38-14.3-18.85-18.06a37.47,37.47,0,0,0-15.08-3.14c-1.46,0-2.93,0-4.58-.05l0-2.21C327.12,373.89,348.44,386.71,354.56,408.48Z"/><path class="cls-7" d="M509.87,737.42l3.25-1.57a49.91,49.91,0,0,1,7.44,18.73c2.19,13.93-2,26.88-11.85,36.12l-2.13-1.31C521.35,773.06,520.31,755.67,509.87,737.42Z"/><path class="cls-7" d="M371.34,487.39c-.14-6.2-.28-12.22-.42-18.24,3.79,4.61,4.34,10.22,5.32,16,4.26,4.44,8.37,9.23,9.91,15.92q-3.52-3.22-7-6.46Z"/><path class="cls-7" d="M407.8,678.75l14.73,13.52c.18,6.16.36,12.44.57,19.69-3.92-5.88-4.16-11.84-5.44-17.56C413.42,689.94,409.41,685.24,407.8,678.75Z"/><path class="cls-7" d="M459.83,653.54c4.26,5.21,5.48,11.37,6.3,17.63,3.77,4.23,7.78,8.21,9.32,14.17l-14.14-11.73Q460.58,663.61,459.83,653.54Z"/><path class="cls-7" d="M332.58,506.05c.53,7.08,1,13.63,1.54,20.76-3.48-4.54-4.75-8.41-6.27-18.44-3.71-4.13-7.89-8.16-9.53-14.21Z"/><path class="cls-7" d="M394.83,584.46a6.11,6.11,0,0,1,7.83,3,6,6,0,0,1-3.14,7.74,5.89,5.89,0,0,1-7.8-2.95A5.94,5.94,0,0,1,394.83,584.46Z"/><path class="cls-7" d="M468.47,750.79a5.9,5.9,0,0,1,10.67-5,5.87,5.87,0,0,1-2.12,7.36C474.29,754.86,469.87,753.82,468.47,750.79Z"/><path class="cls-7" d="M386.15,567.74c-2.53.85-4.21-.26-5.52-2.34-2-3.18-2.93-8.89-1.95-13.51a22.41,22.41,0,0,1,9.24,10.88C388.73,564.72,388,566.52,386.15,567.74Z"/><path class="cls-7" d="M405.89,593a19.15,19.15,0,0,1,12.45.08c1.63.53,3.25,1.29,3.66,3.13a4.24,4.24,0,0,1-3.78,4.87c-2.34.14-4.92-1.51-6.76-2.78C410.8,597.89,406,593,405.89,593Z"/><path class="cls-7" d="M403.34,565.44a3.24,3.24,0,0,1,2.51-.11c2.77.9,2.75,3.68,2,5.95a23.51,23.51,0,0,1-7.05,10c-1.59-2.29-1.79-5.33-1.41-8a16.94,16.94,0,0,1,1.29-4.45A6.74,6.74,0,0,1,403.34,565.44Z"/><path class="cls-7" d="M394.6,597.93a30.22,30.22,0,0,1,.17,10,17.68,17.68,0,0,1-1.43,4.49c-.68,1.44-1.76,2.69-3.48,2.72a3.54,3.54,0,0,1-2.39-.89c-1.56-1.36-1.53-3.53-1-5.38A20,20,0,0,1,394.6,597.93Z"/><path class="cls-7" d="M492.6,787.19c-4.6-2.69-7.19-6.25-9.35-10.1a4.16,4.16,0,0,1,1.34-5.83c1.93-1.07,4.16-.28,5.47,2.15A22.1,22.1,0,0,1,492.6,787.19Z"/><path class="cls-7" d="M415.62,628.38c-5-4.07-9-7.58-9.92-13.18.66-2.29,1.8-3.43,3.87-3.45s3.08,1.39,3.9,3A22.44,22.44,0,0,1,415.62,628.38Z"/><path class="cls-7" d="M373.75,585.48a3.38,3.38,0,0,1-1.12-4.48c2.95-7.06,13.59,2.87,16.33,5.27,0,0-3.28,1.22-3.64,1.29a15.7,15.7,0,0,1-4.79,0C378.61,587.28,375.57,586.8,373.75,585.48Z"/><path class="cls-7" d="M491.64,795.67a4.54,4.54,0,0,1,2.55-6.63,4.61,4.61,0,0,1,5.81,2.69,4.73,4.73,0,0,1-1.5,5.93C496.06,799.42,493,798.28,491.64,795.67Z"/><path class="cls-7" d="M492,738.26a3,3,0,0,1,1.34,1.22c1.09,1.87-.1,4-1.82,4.91-2.13,1.15-4.87.64-7-.16a12.79,12.79,0,0,1,.76-2.81,5.74,5.74,0,0,1,1.54-2.22A5.24,5.24,0,0,1,492,738.26Z"/><path class="cls-7" d="M377.72,596.2c.06-.12.12-.24.19-.36,1.54-2.51,5.95-2.07,8.34-1.29-.33,4.18-3,7.15-5.86,6.84C378,601.13,376.77,598.28,377.72,596.2Z"/><path class="cls-7" d="M417.16,582.19a3.54,3.54,0,0,1-1,1.83,7.18,7.18,0,0,1-4.34,2,11.2,11.2,0,0,1-4.48-1.2,9.3,9.3,0,0,1,.48-1.52,8.36,8.36,0,0,1,.74-1.5C410.38,579,418.43,576.3,417.16,582.19Z"/><path class="cls-7" d="M401.57,599.46c0-.18,5,2.59,5.55,3.34,1,1.46,1.39,4,.13,5.4a3,3,0,0,1-4.33.11,6.54,6.54,0,0,1-1.82-3.42C400.8,603.32,401.35,601.58,401.57,599.46Z"/><path class="cls-7" d="M392.07,579.25a6.87,6.87,0,0,1-5.84-4.18,3.45,3.45,0,0,1,1.54-4.86,3.54,3.54,0,0,1,4.76,1.9C393.5,574.45,393.78,576.88,392.07,579.25Z"/><path class="cls-7" d="M463.48,754.15a19.64,19.64,0,0,1-1.52,3.4,5.82,5.82,0,0,1-2.21,2.22,4.73,4.73,0,0,1-4.33-.38c-1.46-.74-1.12-3.36-.48-4.53a3.84,3.84,0,0,1,3.5-1.85A13.32,13.32,0,0,1,463.48,754.15Z"/><path class="cls-7" d="M469.09,738.43c-3.48-.61-5.69-2.36-6.35-5.52a3,3,0,0,1,.73-2.81c2.42-2.57,5.86-.93,6.44,2.3C470,732.92,469.68,738.54,469.09,738.43Z"/><path class="cls-7" d="M484.48,766.78a2.73,2.73,0,0,1-.56.74,3.19,3.19,0,0,1-4.54-.24c-2.15-2.45-2.08-5.28-.67-8.11.46-.93,4.85,1.91,5.28,2.53A5.29,5.29,0,0,1,484.48,766.78Z"/><circle class="cls-7" cx="431.41" cy="573.28" r="2.38"/><circle class="cls-7" cx="362.16" cy="606.73" r="2.38"/><circle class="cls-7" cx="509.23" cy="732.97" r="1.91"/><circle class="cls-7" cx="438.83" cy="766.59" r="1.91"/><path class="cls-7" d="M315.32,433.06a5.9,5.9,0,1,0,10.49-5.39,5.89,5.89,0,0,0-7.14-2.81C315.64,426,313.77,430.11,315.32,433.06Z"/><path class="cls-7" d="M301.15,391.75c-.66,5.29.58,9.51,2.31,13.57a4.18,4.18,0,0,0,5.45,2.49c2-.88,2.75-3.13,1.63-5.65A22.13,22.13,0,0,0,301.15,391.75Z"/><path class="cls-7" d="M293.84,387.35a4.54,4.54,0,0,0,6.81,2,4.59,4.59,0,0,0,1.4-6.24,4.72,4.72,0,0,0-5.61-2.43C293.56,381.56,292.59,384.7,293.84,387.35Z"/><path class="cls-7" d="M339.6,422a3,3,0,0,0-.15-1.8c-.82-2-3.22-2.36-5-1.56-2.21,1-3.48,3.48-4.15,5.67a12.39,12.39,0,0,0,2.69,1.11,5.87,5.87,0,0,0,2.7.14A5.27,5.27,0,0,0,339.6,422Z"/><path class="cls-7" d="M309.61,435a19.2,19.2,0,0,0-3.62-.88,5.87,5.87,0,0,0-3.1.41,4.68,4.68,0,0,0-2.34,3.66c-.3,1.61,2,2.94,3.3,3.14a3.84,3.84,0,0,0,3.6-1.65A13.42,13.42,0,0,0,309.61,435Z"/><path class="cls-7" d="M325.5,440.09c-1.64,3.14-1.59,6,.5,8.41a3,3,0,0,0,2.68,1.13c3.51-.36,4.31-4.08,2.1-6.51C330.43,442.73,325.77,439.56,325.5,440.09Z"/><path class="cls-7" d="M312.39,410.62a2.9,2.9,0,0,0-.93,0,3.18,3.18,0,0,0-2.57,3.75c.63,3.19,2.92,4.86,6,5.47,1,.2,1.44-5,1.21-5.73A5.31,5.31,0,0,0,312.39,410.62Z"/><circle class="cls-7" cx="354.78" cy="413.17" r="1.91"/><circle class="cls-7" cx="284.74" cy="446.94" r="1.91"/><rect class="cls-5" x="748.65" y="155.42" width="216.21" height="567.86" rx="31.74" transform="matrix(0.99, -0.17, 0.17, 0.99, -62.6, 153.25)"/><rect class="cls-6" x="774.32" y="177.07" width="162.9" height="521.63" rx="26.45" transform="translate(-62.36 153.06) rotate(-9.86)"/><path class="cls-2" d="M914,321.74h47.58a0,0,0,0,1,0,0V505.9a0,0,0,0,1,0,0H914a9.8,9.8,0,0,1-9.8-9.8V331.54a9.8,9.8,0,0,1,9.8-9.8Z" transform="translate(-57.1 165.92) rotate(-9.86)"/><path class="cls-7" d="M805.14,218.5l2.11,4.33a10.06,10.06,0,0,1-1.11,1.3c-12.5,9.81-14.51,22.41-10.44,37,4.17,15,11.78,28.09,20.64,40.53,10.3,14.47,21.23,28.48,31.62,42.88a248.88,248.88,0,0,1,22.71,37.57c.63,1.3,1.11,2.66,1.83,4.39l-6.36,2.72c-.85-1.37-1.54-2.3-2.06-3.33-8.9-18-20-34.57-31.9-50.65-11.19-15.1-22.67-30-32.37-46.14-6.86-11.41-11.9-23.48-13.36-36.85C785,238.67,792.32,225.08,805.14,218.5Z"/><path class="cls-7" d="M906.76,658.27l-2.25-4.84c.89-.78,1.53-1.37,2.21-1.91,8.83-7.11,12.35-16.43,11-27.52a76.07,76.07,0,0,0-8.17-25.68c-9.27-18.17-21.5-34.33-33.9-50.39-12.58-16.31-24.47-33.08-33.75-51.55-.8-1.58-1.53-3.2-2.26-4.82a4.22,4.22,0,0,1,0-1.26c.86-.41,1.86-.92,2.89-1.37s1.91-.75,3.09-1.21a10.89,10.89,0,0,1,1.63,1.95c9.5,19.36,21.73,37,34.35,54.35q14.61,20.1,28.57,40.68a92.83,92.83,0,0,1,13.92,32c3.44,15.37.07,28.46-12.6,38.51C910.25,656.19,908.81,657,906.76,658.27Z"/><path class="cls-7" d="M850.71,615.57,847,615.5a15.39,15.39,0,0,1-.34-1.94c-.52-15.68,2.4-30.93,5.92-46.09,1.88-8.07,4-16.07,6.11-24.29-19.16-28.31-35-58.18-41.76-92.51l4.08-1.13c7.2,34.63,25.42,63.64,45,92.4-1.34,4.84-2.65,9.82-4.09,14.77-4.23,14.5-8.39,29-10.16,44.07C851.16,605.46,851.06,610.19,850.71,615.57Z"/><path class="cls-7" d="M821.82,338.88c-14-20.16-28.5-39.5-36.43-63.15l3.71-2.15c9,24.42,25.47,43.61,40,63.93-8.21,33.59-15.2,67-9.9,102l-4.15,1C809.37,405.85,813.72,372.33,821.82,338.88Z"/><path class="cls-7" d="M882.84,538.74c1.3-5.8,2.6-11.56,3.9-17.32,4.34-19.24,7.71-38.62,7.58-58.42,0-6.93-.79-13.86-1.26-20.79-.11-1.61-.4-3.2-.64-5.11l3.81-1.24a67.23,67.23,0,0,1,2.12,12.82c2.57,28.76-.84,57-7.4,85-.26,1.14-.5,2.3-.83,3.82,1.45,2.16,2.94,4.51,4.56,6.79,10.11,14.26,19.86,28.74,27,44.76,1.73,3.88,3.15,7.89,4.85,12.17l-4,1.3c-.73-1.79-1.37-3.24-1.93-4.73-5-13.18-13.16-24.46-21.22-35.8-4.63-6.51-9.39-12.93-14.08-19.4C884.51,541.38,883.75,540.13,882.84,538.74Z"/><path class="cls-7" d="M853.19,333.23c19.08,28.55,34.82,58.35,41.57,92.52L890.67,427c-7-34.73-25.26-63.7-44.89-92.62,1.78-6.27,3.56-12.81,5.5-19.31,4.07-13.63,7.65-27.37,9.1-41.57.4-3.95.43-7.94.66-12.45l3.92-.19C866,286,859.18,309.36,853.19,333.23Z"/><path class="cls-7" d="M826.23,219.49l.73-4.91c5.56.31,10.07,2.46,14.29,5.2,10.33,6.71,14.91,16.71,16.37,28.62,1.86,15.11-.45,29.82-4,44.38-2.62,10.77-5.83,21.4-8.8,32.09-.19.69-.52,1.34-1,2.65-2-2.27-3.73-4.18-5.64-6.31,1.21-4.19,2.39-8.29,3.56-12.39,3.83-13.37,7.42-26.79,8.68-40.72a89.87,89.87,0,0,0-.5-20.8c-1.89-13.31-8.54-22.79-21.8-26.92A18.65,18.65,0,0,1,826.23,219.49Z"/><path class="cls-7" d="M868,548.74l5.58,6.64c-2.4,8.55-4.79,16.77-7,25-3.3,12.16-5.87,24.49-5.45,37.15.21,6.3.72,12.8,2.49,18.8,2.89,9.77,9.61,16.46,19.59,19.49a16.44,16.44,0,0,1,1.64.65,6.3,6.3,0,0,1,.64.46c0,.64.07,1.48,0,2.32a23.63,23.63,0,0,1-.48,2.41,17.12,17.12,0,0,1-3-.16c-13.7-3.37-22.62-11.78-26.24-25.45-2.68-10.13-2.65-20.46-1.42-30.82A234.71,234.71,0,0,1,863.05,565C864.58,559.94,866.14,554.86,868,548.74Z"/><path class="cls-7" d="M840.72,475.09,834,478.78a162.42,162.42,0,0,1-12.87-70.56l7.53.93A171.54,171.54,0,0,0,840.72,475.09Z"/><path class="cls-7" d="M882.89,467.47a160,160,0,0,0-11.54-65.4,11.74,11.74,0,0,1,1.6-1.41c1.4-.8,2.84-1.53,4.87-2.6,9.63,22.41,13.57,45.5,12.8,70.2Z"/><path class="cls-7" d="M832.54,342.59l4.93,7.14c-3,15.6-5.82,30.5-8.76,45.95l-6-.16C821.22,389.28,828.2,351.22,832.54,342.59Z"/><path class="cls-7" d="M879.4,534l-5-7c2.95-15.55,5.78-30.49,8.72-46l5.77.18C890.49,487.18,884.23,522.3,879.4,534Z"/><path class="cls-7" d="M835.82,307.89,833.6,315c-10.94-12.65-21.05-25-29-39.37,1.44-.64,2.32-1.09,3.24-1.42s1.69-.45,2.44-.64Z"/><path class="cls-7" d="M907.44,601.16,901.62,603,876,568.85c.56-1.91,1.24-4.24,2.15-7.37C889.2,574.15,899,586.75,907.44,601.16Z"/><path class="cls-7" d="M868.28,409l-4.11.75L840.7,364.16l-.71.21,1.4-6.45C852.38,374.54,862,390.69,868.28,409Z"/><path class="cls-7" d="M843.5,467.5l4.35-1.11c3.79,7.9,7.3,15.68,11.22,23.25s8.27,15,12.71,23l-1,4.47-1,.23C859.07,501.91,850,485.62,843.5,467.5Z"/><path class="cls-7" d="M874.44,572.11l4.89,6.06c-2.83,10.16-5.57,20-8.47,30.35l-5.94,0C865.87,595.9,870.82,584.8,874.44,572.11Z"/><path class="cls-7" d="M840.85,268l6.2-.48c-1.31,12.7-6,24.24-9.84,36.81l-4.71-5.95Z"/><path class="cls-7" d="M873,462.11l3.85-.7c2.21,6-1.43,39.81-5.09,46.64l-3-4.4c.87-7,1.84-13.84,2.54-20.71S872.49,469.17,873,462.11Z"/><path class="cls-7" d="M839.2,367.78c2.49,2.67,4,4.83,3.58,8-1.6,12.73-3.06,25.48-4.63,38.66l-4,.72C833.75,399.21,836.05,383.83,839.2,367.78Z"/><path class="cls-7" d="M805.14,260.24l-5.37,2.26c-7-11.06-1.82-31.3,9.51-36.39l1.15,2.74C801.15,238,802.39,248.89,805.14,260.24Z"/><path class="cls-7" d="M906.94,616l5.08-2.15c6.79,11.09,2.3,29.35-9.2,36.69L901.19,648C909.22,637.81,909.37,636.93,906.94,616Z"/><path class="cls-7" d="M841.35,253.73c-1.31-11.62-4.38-22-16.2-27.63l.4-3c12.75,1.66,23.25,16.75,21.74,31Z"/><path class="cls-7" d="M864,622.5l6.39.32c1.59,11.16,4,22,15.88,27.43l.27,3.1c-3.38.21-6-1.14-8.45-2.71C868.17,644.12,865,634.17,864,622.5Z"/><path class="cls-7" d="M786.91,265.84l-3.45.62c-7.74-20.53,1.83-44.09,19-51.54l1.16,1.74c-8,5.35-14.29,12-17.21,21.23S784.14,256.21,786.91,265.84Z"/><path class="cls-7" d="M847.86,624.62l3.35-.61a20.07,20.07,0,0,1,.51,2.23c1,8.83,3.63,17,9.2,24A36,36,0,0,0,880.66,663c1.12.3,2.22.68,3.57,1.09l-.22,2.07C868.42,665.57,849,650.44,847.86,624.62Z"/><path class="cls-7" d="M863.67,252.15l-3.15.3c-.58-3.23-1-6.28-1.69-9.27-2-8.9-6.17-16.55-13.32-22.44a37.23,37.23,0,0,0-13.68-7.07c-1.41-.4-2.82-.82-4.4-1.29l.55-2.13C846.51,211.47,863.61,229.54,863.67,252.15Z"/><path class="cls-7" d="M925.07,610.7l3.55-.65a49.94,49.94,0,0,1,2.15,20.05c-1.63,14-9.15,25.35-21.11,31.61l-1.7-1.83C926.57,648.11,930.23,631.07,925.07,610.7Z"/><path class="cls-7" d="M858.67,332.68c1.52-6,3-11.85,4.49-17.69,2.41,5.45,1.44,11,.85,16.79,2.9,5.42,5.58,11.14,5.27,18l-5-8.11Z"/><path class="cls-7" d="M842.47,526.81c3.48,5.57,6.95,11.15,10.57,17-1.48,6-3,12.09-4.74,19.13-2.19-6.72-.83-12.52-.53-18.37C844.88,539.09,842.29,533.48,842.47,526.81Z"/><path class="cls-7" d="M899.36,516.46c2.7,6.17,2.22,12.43,1.34,18.68,2.49,5.09,5.29,10,5.17,16.15-3.44-5-6.89-9.93-10.47-15.08Q897.38,526.36,899.36,516.46Z"/><path class="cls-7" d="M816.33,340.25c-1.4,7-2.68,13.4-4.09,20.42-2.13-5.31-2.32-9.38-1.1-19.45-2.47-5-5.41-10-5.36-16.24Z"/><path class="cls-7" d="M855.26,432.49a6.11,6.11,0,0,1,6.75,4.95,6,6,0,0,1-5.1,6.61,5.84,5.84,0,1,1-1.65-11.56Z"/><path class="cls-7" d="M881.6,612.48a5.89,5.89,0,1,1,11.62-2,5.89,5.89,0,0,1-4,6.53C886.11,618,882.13,615.77,881.6,612.48Z"/><path class="cls-7" d="M851.38,414.05c-2.66.14-4-1.38-4.69-3.73-1.08-3.61-.43-9.35,1.75-13.54a22.48,22.48,0,0,1,6,13C854.68,411.83,853.5,413.37,851.38,414.05Z"/><path class="cls-7" d="M863.62,443.72a19.15,19.15,0,0,1,12,3.42c1.43.94,2.79,2.11,2.69,4a4.24,4.24,0,0,1-4.95,3.68c-2.29-.5-4.34-2.77-5.77-4.49C867.05,449.71,863.76,443.71,863.62,443.72Z"/><path class="cls-7" d="M868.57,416.44A3.25,3.25,0,0,1,871,417c2.43,1.61,1.67,4.28.31,6.27a23.38,23.38,0,0,1-9.48,7.76c-.92-2.62-.31-5.61.79-8.09a16.62,16.62,0,0,1,2.43-3.93A6.66,6.66,0,0,1,868.57,416.44Z"/><path class="cls-7" d="M851.43,445.4a30,30,0,0,1-2.51,9.63,17.75,17.75,0,0,1-2.57,4c-1.05,1.2-2.42,2.11-4.09,1.68a3.6,3.6,0,0,1-2.06-1.5c-1.14-1.72-.53-3.8.53-5.43A20,20,0,0,1,851.43,445.4Z"/><path class="cls-7" d="M895.09,654c-3.71-3.83-5.26-8-6.31-12.24a4.17,4.17,0,0,1,2.86-5.26c2.14-.51,4.08.85,4.7,3.54A22.17,22.17,0,0,1,895.09,654Z"/><path class="cls-7" d="M863.52,480.37c-3.69-5.25-6.65-9.72-6-15.35,1.25-2,2.66-2.82,4.66-2.29s2.59,2.17,2.94,4A22.38,22.38,0,0,1,863.52,480.37Z"/><path class="cls-7" d="M834.69,427.82a3.37,3.37,0,0,1,.12-4.62c4.73-6,12.32,6.41,14.31,9.45,0,0-3.48.31-3.85.27a15.52,15.52,0,0,1-4.61-1.28C838.88,430.86,836.09,429.58,834.69,427.82Z"/><path class="cls-7" d="M891.88,661.92a4.54,4.54,0,0,1,4.24-5.7,4.6,4.6,0,0,1,4.87,4.15,4.71,4.71,0,0,1-3,5.31C895.14,666.72,892.48,664.8,891.88,661.92Z"/><path class="cls-7" d="M907.64,606.72a2.92,2.92,0,0,1,1,1.53c.55,2.09-1.16,3.82-3.07,4.25-2.36.53-4.86-.69-6.72-2a12.15,12.15,0,0,1,1.49-2.5,5.8,5.8,0,0,1,2.07-1.74A5.27,5.27,0,0,1,907.64,606.72Z"/><path class="cls-7" d="M835.63,439.21a3.83,3.83,0,0,1,.28-.29c2.16-2,6.29-.4,8.39,1-1.44,3.93-4.79,6.09-7.48,5C834.57,444,834.16,441,835.63,439.21Z"/><path class="cls-7" d="M877.39,436.29a3.54,3.54,0,0,1-1.45,1.49,7.09,7.09,0,0,1-4.72.79,11,11,0,0,1-4-2.35,9.07,9.07,0,0,1,.87-1.33,8.33,8.33,0,0,1,1.12-1.25C871.72,431.36,880.19,431,877.39,436.29Z"/><path class="cls-7" d="M857.74,448.75c.07-.17,4.14,3.84,4.44,4.7.59,1.68.27,4.23-1.32,5.24a3,3,0,0,1-4.2-1.06,6.56,6.56,0,0,1-.83-3.78C856,452.25,857,450.73,857.74,448.75Z"/><path class="cls-7" d="M854,426.73a6.86,6.86,0,0,1-4.51-5.59,3.47,3.47,0,0,1,2.79-4.28,3.55,3.55,0,0,1,4.07,3.12C856.67,422.49,856.28,424.9,854,426.73Z"/><path class="cls-7" d="M875.89,614.37a19.21,19.21,0,0,1-2.37,2.87,6,6,0,0,1-2.73,1.55,4.74,4.74,0,0,1-4.07-1.53c-1.21-1.11-.18-3.54.75-4.49a3.86,3.86,0,0,1,3.87-.84A13.28,13.28,0,0,1,875.89,614.37Z"/><path class="cls-7" d="M885.51,600.74c-3.18-1.53-4.84-3.81-4.64-7a3,3,0,0,1,1.46-2.51c3-1.82,5.9.68,5.59,3.95C887.87,595.67,886.05,601,885.51,600.74Z"/><path class="cls-7" d="M892.73,632.18a3,3,0,0,1-.74.56,3.19,3.19,0,0,1-4.31-1.46c-1.41-2.93-.58-5.64,1.53-8,.7-.78,4.16,3.13,4.42,3.85A5.3,5.3,0,0,1,892.73,632.18Z"/><circle class="cls-7" cx="893.5" cy="431.52" r="2.38"/><circle class="cls-7" cx="817.82" cy="445.18" r="2.38"/><circle class="cls-7" cx="925.64" cy="606.24" r="1.91"/><circle class="cls-7" cx="848.81" cy="619.74" r="1.91"/><path class="cls-7" d="M819.27,265.31a5.9,5.9,0,1,0,11.55-2.38,5.88,5.88,0,0,0-6.12-4.62C821.48,258.56,818.57,262.05,819.27,265.31Z"/><path class="cls-7" d="M816.71,221.71c-2.07,4.92-2,9.32-1.42,13.7a4.17,4.17,0,0,0,4.58,3.86c2.18-.31,3.49-2.28,3.08-5A22.18,22.18,0,0,0,816.71,221.71Z"/><path class="cls-7" d="M810.84,215.51a4.54,4.54,0,0,0,6,3.77,4.61,4.61,0,0,0,3-5.64,4.72,4.72,0,0,0-4.76-3.84C812.13,209.86,810.35,212.62,810.84,215.51Z"/><path class="cls-7" d="M845.62,261.19a3,3,0,0,0,.34-1.78c-.25-2.15-2.47-3.13-4.4-2.84-2.39.36-4.28,2.42-5.52,4.35a13,13,0,0,0,2.3,1.79,5.72,5.72,0,0,0,2.56.85A5.24,5.24,0,0,0,845.62,261.19Z"/><path class="cls-7" d="M813.26,265.63a18.2,18.2,0,0,0-3.25-1.81,5.92,5.92,0,0,0-3.1-.45,4.73,4.73,0,0,0-3.24,2.9c-.72,1.47,1.12,3.36,2.34,3.92a3.87,3.87,0,0,0,3.91-.63A13.44,13.44,0,0,0,813.26,265.63Z"/><path class="cls-7" d="M827.19,274.82c-2.41,2.58-3.13,5.31-1.77,8.23a3,3,0,0,0,2.27,1.81c3.49.6,5.25-2.78,3.78-5.71C831.23,278.68,827.6,274.38,827.19,274.82Z"/><path class="cls-7" d="M822.47,242.91a2.81,2.81,0,0,0-.9-.25,3.19,3.19,0,0,0-3.48,2.92c-.25,3.24,1.51,5.46,4.33,6.88.93.47,2.73-4.44,2.71-5.19A5.31,5.31,0,0,0,822.47,242.91Z"/><circle class="cls-7" cx="862.63" cy="256.73" r="1.91"/><circle class="cls-7" cx="786.08" cy="270.48" r="1.91"/><circle class="cls-3" cx="914.79" cy="368.68" r="5.63"/><circle class="cls-3" cx="938.82" cy="364.5" r="5.63"/><circle class="cls-3" cx="920.29" cy="400.35" r="5.63"/><circle class="cls-3" cx="944.32" cy="396.17" r="5.63"/><circle class="cls-3" cx="925.8" cy="432.02" r="5.63"/><circle class="cls-3" cx="949.83" cy="427.84" r="5.63"/><circle class="cls-3" cx="931.3" cy="463.69" r="5.63"/><circle class="cls-3" cx="955.34" cy="459.51" r="5.63"/></svg>