<svg id="Camada_1" data-name="Camada 1" xmlns="http://www.w3.org/2000/svg" viewBox="0 0 1080 1080"><defs><style>.cls-1{fill:#603d14;}.cls-2{fill:#fff0b7;}.cls-3{fill:#7a5421;}.cls-4{fill:none;stroke:#fff0b7;stroke-miterlimit:10;stroke-width:7.11px;}</style></defs><rect class="cls-1" x="302.8" y="521.64" width="440.34" height="57.64" transform="translate(-51.48 53.96) rotate(-5.63)"/><circle class="cls-2" cx="591.83" cy="540.13" r="6.24"/><circle class="cls-2" cx="458.28" cy="553.3" r="6.24"/><circle class="cls-2" cx="645.93" cy="534.8" r="6.24"/><circle class="cls-2" cx="396.69" cy="559.37" r="6.24"/><circle class="cls-2" cx="524.62" cy="546.76" r="11.02"/><path class="cls-3" d="M921.21,633.3,815,619.76a41.52,41.52,0,0,1-25.5-13.26,408,408,0,0,0-36.06-35.11c-4-3.43-30.48-26-61.1-43.44-24.63-14-83.94-47.73-162-43.43-83.82,4.63-140.62,50.44-166.78,71.54a347,347,0,0,0-79.4,91.36,41.25,41.25,0,0,1-12.56,13.1,321.73,321.73,0,0,1-37.19,21.27,325.29,325.29,0,0,1-84.16,27.51A350.6,350.6,0,0,1,212.91,415,421.88,421.88,0,0,1,490.28,254.74a381.68,381.68,0,0,1,311,103.82A341.54,341.54,0,0,1,921.21,633.3Z"/><path class="cls-4" d="M1013.29,724.6c-16.64-1.48-29.54-15.47-37.23-30.29s-12-31.37-21-45.43c-5.42-8.47-13.11-16-22.37-20.13-4.33-1.94-9.38-3.38-14.18-3.09-11.54.68,1.79,9.22,4.77,13.84,5.34,8.3,8.65,18,10.51,27.63,3,15.28,2.78,31.1,6.76,46.15s13.39,30,28.27,34.59"/><path class="cls-4" d="M1031.82,664.61c-14.08,4.3-29.3-2-41.31-10.46s-22.4-19.39-35.41-26.29-30.22-8.94-41.65.33c7.7,19.67,4.95,39.33,6.26,60.42l3.6,58"/><path class="cls-4" d="M910.64,626.09c13.92,1.5,25.51,11.82,32.87,23.73s11.39,25.5,16.73,38.44,12.48,25.8,24.07,33.65"/><path class="cls-4" d="M78.07,813.92c16-4.69,26-20.93,30.6-37s5.64-33.1,11.72-48.66c3.67-9.37,9.74-18.24,18-24.11,3.87-2.75,8.54-5.14,13.3-5.8,11.46-1.58.05,9.4-2,14.51-3.62,9.18-5,19.32-4.91,29.15.09,15.56,3.34,31.05,2.38,46.58s-7.28,32.07-21,39.44"/><path class="cls-4" d="M48.18,758.71c14.65,1.47,28.36-7.63,38.48-18.32s18.18-23.4,29.58-32.71,27.9-14.67,40.93-7.8c-3.72,20.8,2.81,39.54,5.65,60.48q3.9,28.8,7.79,57.6"/><path class="cls-4" d="M159.51,697.27c-13.36,4.19-22.71,16.58-27.61,29.69s-6.19,27.23-8.9,41-7.2,27.75-17,37.71"/><path class="cls-1" d="M921.21,633.3l-35.66-4.49c-1.2-21.9-10.1-145.8-116.34-238.27-108.12-94.12-234.78-84.07-256.22-82-19.76.56-166.71,7.25-263.81,133.26-86.51,112.27-70.43,237.47-67.13,260.05l-31.8,7.45a351.27,351.27,0,0,1-6.65-126.07c12.12-93.11,58.86-154.64,77-178,95.87-123,239.6-146.38,275.32-151.18,19.89-1.55,214.46-13.48,339.12,137.6C914.78,488.28,920.8,596.85,921.21,633.3Z"/><circle class="cls-2" cx="899.59" cy="577.67" r="6.24"/><circle class="cls-2" cx="154.95" cy="651.07" r="6.24"/><circle class="cls-2" cx="870.72" cy="484.48" r="6.24"/><circle class="cls-2" cx="168.94" cy="553.66" r="6.24"/><circle class="cls-2" cx="778.04" cy="365.88" r="6.24"/><circle class="cls-2" cx="235.89" cy="419.32" r="6.24"/><circle class="cls-2" cx="639.79" cy="294.62" r="11.02"/><circle class="cls-2" cx="498.69" cy="281.77" r="11.02"/><circle class="cls-2" cx="362.41" cy="321.97" r="11.02"/><path class="cls-2" d="M293.9,481.89c7.88-15.45,27.83-7.67,27.06,8.51a15.26,15.26,0,0,1-3.5,9.41c-6.25,7.06-19,3.33-23.21-4.18A14.23,14.23,0,0,1,293.9,481.89Z"/><path class="cls-2" d="M341.2,513.51A31,31,0,0,1,331,525.17a31.43,31.43,0,0,1-7.19,3.66,13.94,13.94,0,0,1-3.87,1.07c-1.67.07-1.2-3.56-1.21-4.29,0-1.42,0-2.83.13-4.24a19,19,0,0,1,1.28-6.06c1.44-3.37,4.49-4.91,8-5.43a29.23,29.23,0,0,1,11.56.59,2.67,2.67,0,0,1,1.87,1.44,1.18,1.18,0,0,1-.09,1.15Z"/><path class="cls-2" d="M343.35,471.93a31.34,31.34,0,0,1,4.4,22.79,14.17,14.17,0,0,1-1,3.87c-.79,1.48-3.69-.76-4.33-1.13-1.22-.71-2.42-1.45-3.58-2.25a19,19,0,0,1-4.59-4.17c-2.18-2.94-2-6.35-.64-9.62a29.06,29.06,0,0,1,6.35-9.68,2.67,2.67,0,0,1,2.19-.89,1.16,1.16,0,0,1,.94.66C343.17,471.65,343.26,471.79,343.35,471.93Z"/><path class="cls-2" d="M309.93,446.8a31.09,31.09,0,0,1,15,3.88,31.47,31.47,0,0,1,6.52,4.77,14,14,0,0,1,2.69,3c.82,1.47-2.64,2.69-3.29,3-1.25.64-2.53,1.26-3.83,1.79a19,19,0,0,1-6,1.6c-3.66.24-6.4-1.79-8.44-4.67a29.3,29.3,0,0,1-4.69-10.59,2.67,2.67,0,0,1,.44-2.32,1.15,1.15,0,0,1,1.07-.43Z"/><path class="cls-2" d="M277.19,519.31a30.91,30.91,0,0,0,12.32,9.43,31.25,31.25,0,0,0,7.76,2.19,14.61,14.61,0,0,0,4,.3c1.65-.27.49-3.74.35-4.46-.27-1.38-.57-2.76-1-4.12a19.05,19.05,0,0,0-2.43-5.7c-2.07-3-5.36-3.93-8.88-3.76A29.23,29.23,0,0,0,278.12,516a2.65,2.65,0,0,0-1.55,1.78,1.16,1.16,0,0,0,.31,1.11C277,519,277.08,519.18,277.19,519.31Z"/><path class="cls-2" d="M267,479a31.43,31.43,0,0,0,.14,23.21,14.43,14.43,0,0,0,1.76,3.59c1.07,1.3,3.47-1.46,4-1.95,1.06-.93,2.1-1.89,3.08-2.91a18.92,18.92,0,0,0,3.68-5c1.56-3.31.68-6.61-1.24-9.57a29.3,29.3,0,0,0-8.13-8.25,2.68,2.68,0,0,0-2.32-.44,1.14,1.14,0,0,0-.79.83Z"/><path class="cls-2" d="M294.82,447.77a31.49,31.49,0,0,0-19.43,12.69,14.34,14.34,0,0,0-2.06,3.44c-.52,1.59,3.11,2.12,3.81,2.31,1.36.39,2.73.74,4.12,1a18.9,18.9,0,0,0,6.18.4c3.63-.48,5.93-3,7.37-6.23a29.29,29.29,0,0,0,2.53-11.3,2.66,2.66,0,0,0-.89-2.19,1.17,1.17,0,0,0-1.13-.22Z"/><path class="cls-2" d="M707,440.92c7.88-15.45,27.83-7.67,27.06,8.51a15.23,15.23,0,0,1-3.5,9.4c-6.25,7.06-19,3.34-23.21-4.17A14.23,14.23,0,0,1,707,440.92Z"/><path class="cls-2" d="M754.28,472.54A31,31,0,0,1,744,484.19a31.87,31.87,0,0,1-7.19,3.67,14.66,14.66,0,0,1-3.87,1.07c-1.67.06-1.2-3.57-1.21-4.3,0-1.41,0-2.83.13-4.24a19.08,19.08,0,0,1,1.28-6.06c1.44-3.37,4.49-4.9,8-5.42a29,29,0,0,1,11.56.58,2.66,2.66,0,0,1,1.87,1.45,1.16,1.16,0,0,1-.09,1.14Z"/><path class="cls-2" d="M756.43,431a31.32,31.32,0,0,1,4.4,22.78,14.33,14.33,0,0,1-1,3.88c-.8,1.47-3.69-.77-4.33-1.13-1.22-.71-2.42-1.45-3.58-2.26a19,19,0,0,1-4.59-4.16c-2.18-2.95-2-6.36-.65-9.63a29.45,29.45,0,0,1,6.36-9.68,2.66,2.66,0,0,1,2.19-.88,1.14,1.14,0,0,1,.94.66C756.25,430.68,756.34,430.82,756.43,431Z"/><path class="cls-2" d="M723,405.82a31,31,0,0,1,15,3.89,31.43,31.43,0,0,1,6.52,4.76,14,14,0,0,1,2.69,3c.82,1.46-2.64,2.68-3.29,3-1.25.64-2.53,1.25-3.83,1.79a19.55,19.55,0,0,1-6,1.6c-3.66.23-6.4-1.8-8.44-4.68A29.25,29.25,0,0,1,721,408.59a2.69,2.69,0,0,1,.44-2.33,1.17,1.17,0,0,1,1.07-.43Z"/><path class="cls-2" d="M690.27,478.33A31.41,31.41,0,0,0,710.35,490a14.2,14.2,0,0,0,4,.3c1.65-.26.49-3.74.35-4.45-.27-1.39-.58-2.77-1-4.13a19.05,19.05,0,0,0-2.43-5.7c-2.07-3-5.36-3.93-8.88-3.76A29.23,29.23,0,0,0,691.2,475a2.65,2.65,0,0,0-1.55,1.78,1.13,1.13,0,0,0,.31,1.11C690.06,478.07,690.16,478.2,690.27,478.33Z"/><path class="cls-2" d="M680,438a31.43,31.43,0,0,0,.14,23.21,14.32,14.32,0,0,0,1.76,3.6c1.06,1.29,3.47-1.47,4-1.95,1.06-.94,2.1-1.9,3.08-2.91a19.25,19.25,0,0,0,3.68-5c1.56-3.32.68-6.62-1.24-9.57a29,29,0,0,0-8.13-8.25,2.61,2.61,0,0,0-2.32-.44,1.14,1.14,0,0,0-.79.83C680.16,437.66,680.1,437.82,680,438Z"/><path class="cls-2" d="M707.9,406.8a31,31,0,0,0-14,6.74,31.47,31.47,0,0,0-5.46,5.95,14.09,14.09,0,0,0-2.06,3.43c-.52,1.59,3.11,2.12,3.81,2.32,1.36.38,2.73.73,4.12,1a19.17,19.17,0,0,0,6.18.39c3.63-.48,5.93-3,7.36-6.23a29.29,29.29,0,0,0,2.54-11.29,2.68,2.68,0,0,0-.89-2.2,1.14,1.14,0,0,0-1.13-.21Z"/><path class="cls-2" d="M519.88,358.55l-10.37,20.73L494.15,362c3.67-7.09,6.68-12.89,10.75-20.73Z"/><path class="cls-2" d="M549.38,383.33l20.92,11.42-17.87,14.06-20.62-9.6Z"/><path class="cls-2" d="M472.09,417.08l-21.49-9.8,18.65-15.09,21.7,9.88Z"/><path class="cls-2" d="M512.41,419.68l15,20L516.72,461c-5.53-7.49-9.38-12.71-13.59-18.4Z"/><path class="cls-2" d="M484.09,371.19l14,14.36-3.21,3.68-16.22-12.38Z"/><path class="cls-2" d="M523,383.29l12.79-17.5c1.78,4.71,3.71,7.79,3.08,8.46-4.09,4.35-8.74,8.17-13.2,12.16Z"/><path class="cls-2" d="M480.84,425.67l13-15.08,5.66,4.27-10.94,17.05Z"/><path class="cls-2" d="M538.4,428.46,525.77,417l3.29-3.78,13.43,10.55Z"/><circle class="cls-2" cx="512" cy="399.9" r="4.1"/><circle class="cls-2" cx="474.68" cy="444.28" r="4.1"/><circle class="cls-2" cx="554.94" cy="436.36" r="4.1"/><circle class="cls-2" cx="467.15" cy="364.21" r="4.1"/><circle class="cls-2" cx="547.41" cy="356.3" r="4.1"/></svg>